G04*
G04 #@! TF.GenerationSoftware,Altium Limited,Altium Designer,22.11.1 (43)*
G04*
G04 Layer_Color=8421504*
%FSLAX25Y25*%
%MOIN*%
G70*
G04*
G04 #@! TF.SameCoordinates,86DA71BE-ED10-4D6F-9541-DF3680A4200E*
G04*
G04*
G04 #@! TF.FilePolarity,Positive*
G04*
G01*
G75*
%ADD18R,0.06299X0.12598*%
%ADD19R,0.12598X0.06299*%
%ADD20R,0.03543X0.03937*%
%ADD21R,0.03543X0.01772*%
G04:AMPARAMS|DCode=22|XSize=59.06mil|YSize=17.72mil|CornerRadius=1.95mil|HoleSize=0mil|Usage=FLASHONLY|Rotation=0.000|XOffset=0mil|YOffset=0mil|HoleType=Round|Shape=RoundedRectangle|*
%AMROUNDEDRECTD22*
21,1,0.05906,0.01382,0,0,0.0*
21,1,0.05516,0.01772,0,0,0.0*
1,1,0.00390,0.02758,-0.00691*
1,1,0.00390,-0.02758,-0.00691*
1,1,0.00390,-0.02758,0.00691*
1,1,0.00390,0.02758,0.00691*
%
%ADD22ROUNDEDRECTD22*%
%ADD23R,0.03347X0.03740*%
%ADD24R,0.06000X0.02000*%
%ADD25R,0.06000X0.07000*%
D18*
X86200Y89342D02*
D03*
Y69657D02*
D03*
X186048Y165594D02*
D03*
Y145909D02*
D03*
X188900Y51385D02*
D03*
Y31700D02*
D03*
X90000Y150291D02*
D03*
Y130606D02*
D03*
D19*
X106257Y85300D02*
D03*
X125943D02*
D03*
D20*
X148954Y12539D02*
D03*
X143639D02*
D03*
X162144D02*
D03*
X167459D02*
D03*
D21*
X96500Y49844D02*
D03*
Y46695D02*
D03*
Y43545D02*
D03*
Y40395D02*
D03*
Y37246D02*
D03*
Y34096D02*
D03*
Y30947D02*
D03*
Y27797D02*
D03*
X89807D02*
D03*
Y30947D02*
D03*
Y34096D02*
D03*
Y37246D02*
D03*
Y40395D02*
D03*
Y43545D02*
D03*
Y46695D02*
D03*
Y49844D02*
D03*
X123605D02*
D03*
Y46695D02*
D03*
Y43545D02*
D03*
Y40395D02*
D03*
Y37246D02*
D03*
Y34096D02*
D03*
Y30947D02*
D03*
X116912Y27797D02*
D03*
Y30947D02*
D03*
Y34096D02*
D03*
Y37246D02*
D03*
Y40395D02*
D03*
Y43545D02*
D03*
Y46695D02*
D03*
Y49844D02*
D03*
X123605Y27797D02*
D03*
D22*
X170917Y55575D02*
D03*
Y53016D02*
D03*
Y50457D02*
D03*
Y47898D02*
D03*
Y45339D02*
D03*
Y42779D02*
D03*
Y40220D02*
D03*
Y37661D02*
D03*
Y35102D02*
D03*
Y32543D02*
D03*
Y29984D02*
D03*
Y27425D02*
D03*
X148083D02*
D03*
Y29984D02*
D03*
Y32543D02*
D03*
Y35102D02*
D03*
Y37661D02*
D03*
Y40220D02*
D03*
Y42779D02*
D03*
Y45339D02*
D03*
Y47898D02*
D03*
Y50457D02*
D03*
Y53016D02*
D03*
Y55575D02*
D03*
D23*
X123059Y62500D02*
D03*
X117941D02*
D03*
D24*
X159815Y76250D02*
D03*
Y91289D02*
D03*
X138615D02*
D03*
Y76250D02*
D03*
D25*
X159815Y83769D02*
D03*
X138615D02*
D03*
M02*
