G04*
G04 #@! TF.GenerationSoftware,Altium Limited,Altium Designer,22.11.1 (43)*
G04*
G04 Layer_Color=32896*
%FSLAX25Y25*%
%MOIN*%
G70*
G04*
G04 #@! TF.SameCoordinates,3125327F-633B-4DE6-8F98-D116A0B0FB6F*
G04*
G04*
G04 #@! TF.FilePolarity,Positive*
G04*
G01*
G75*
%ADD13C,0.00591*%
%ADD18C,0.00602*%
%ADD22C,0.01000*%
%ADD74R,0.19781X0.11614*%
G36*
X55786Y381028D02*
X36002D01*
Y385457D01*
X55786D01*
Y381028D01*
D02*
G37*
G36*
X17778Y383805D02*
X18298D01*
Y383550D01*
X17829D01*
X17956Y382924D01*
X18298D01*
Y382669D01*
X18011D01*
X18157Y381937D01*
X17902D01*
X17752Y382669D01*
X17214D01*
X17363Y381937D01*
X17105D01*
X16959Y382669D01*
X16424D01*
Y382924D01*
X16904D01*
X16777Y383550D01*
X16424D01*
Y383805D01*
X16726D01*
X16573Y384544D01*
X16832D01*
X16984Y383805D01*
X17520D01*
X17370Y384544D01*
X17625D01*
X17778Y383805D01*
D02*
G37*
G36*
X29211Y381981D02*
X27329D01*
Y382280D01*
X28876D01*
Y383135D01*
X27482D01*
Y383434D01*
X28876D01*
Y384202D01*
X27388D01*
Y384500D01*
X29211D01*
Y381981D01*
D02*
G37*
G36*
X26864D02*
X26529D01*
Y383099D01*
X26099D01*
X26059Y383095D01*
X26030D01*
X26004Y383091D01*
X25986Y383088D01*
X25972D01*
X25964Y383084D01*
X25961D01*
X25903Y383066D01*
X25877Y383055D01*
X25855Y383044D01*
X25833Y383033D01*
X25819Y383026D01*
X25811Y383022D01*
X25808Y383018D01*
X25779Y382997D01*
X25750Y382971D01*
X25695Y382917D01*
X25670Y382891D01*
X25651Y382869D01*
X25640Y382855D01*
X25637Y382851D01*
X25600Y382800D01*
X25560Y382746D01*
X25520Y382687D01*
X25480Y382633D01*
X25447Y382582D01*
X25422Y382542D01*
X25411Y382527D01*
X25404Y382516D01*
X25396Y382509D01*
Y382505D01*
X25065Y381981D01*
X24650D01*
X25084Y382665D01*
X25135Y382738D01*
X25182Y382804D01*
X25229Y382858D01*
X25269Y382909D01*
X25306Y382946D01*
X25335Y382975D01*
X25353Y382993D01*
X25360Y383000D01*
X25389Y383022D01*
X25422Y383048D01*
X25488Y383088D01*
X25517Y383102D01*
X25539Y383117D01*
X25553Y383124D01*
X25560Y383128D01*
X25495Y383139D01*
X25433Y383150D01*
X25378Y383168D01*
X25324Y383182D01*
X25276Y383201D01*
X25233Y383222D01*
X25193Y383241D01*
X25156Y383259D01*
X25127Y383281D01*
X25098Y383299D01*
X25076Y383313D01*
X25058Y383328D01*
X25043Y383339D01*
X25032Y383350D01*
X25029Y383353D01*
X25025Y383357D01*
X24996Y383393D01*
X24967Y383430D01*
X24923Y383506D01*
X24894Y383583D01*
X24872Y383656D01*
X24858Y383717D01*
X24854Y383743D01*
Y383768D01*
X24850Y383787D01*
Y383801D01*
Y383808D01*
Y383812D01*
X24854Y383889D01*
X24865Y383958D01*
X24883Y384023D01*
X24902Y384078D01*
X24923Y384125D01*
X24938Y384161D01*
X24952Y384183D01*
X24956Y384187D01*
Y384191D01*
X25000Y384249D01*
X25043Y384300D01*
X25091Y384344D01*
X25135Y384376D01*
X25174Y384402D01*
X25207Y384416D01*
X25229Y384427D01*
X25233Y384431D01*
X25236D01*
X25269Y384442D01*
X25309Y384453D01*
X25389Y384471D01*
X25477Y384482D01*
X25557Y384493D01*
X25633Y384496D01*
X25666D01*
X25695Y384500D01*
X26864D01*
Y381981D01*
D02*
G37*
G36*
X24272D02*
X23937D01*
Y384500D01*
X24272D01*
Y381981D01*
D02*
G37*
G36*
X23624D02*
X23271D01*
X22998Y382746D01*
X21942D01*
X21647Y381981D01*
X21269D01*
X22299Y384500D01*
X22663D01*
X23624Y381981D01*
D02*
G37*
G36*
X21014D02*
X19438D01*
Y382280D01*
X20679D01*
Y384500D01*
X21014D01*
Y381981D01*
D02*
G37*
G36*
X30791Y384540D02*
X30875Y384529D01*
X30955Y384514D01*
X31024Y384500D01*
X31079Y384485D01*
X31104Y384478D01*
X31122Y384471D01*
X31137Y384464D01*
X31148Y384460D01*
X31155Y384456D01*
X31159D01*
X31231Y384420D01*
X31297Y384380D01*
X31352Y384336D01*
X31395Y384296D01*
X31428Y384260D01*
X31453Y384231D01*
X31472Y384209D01*
X31475Y384205D01*
Y384202D01*
X31512Y384140D01*
X31537Y384078D01*
X31555Y384016D01*
X31566Y383961D01*
X31574Y383914D01*
X31581Y383877D01*
Y383863D01*
Y383852D01*
Y383848D01*
Y383845D01*
X31577Y383783D01*
X31566Y383725D01*
X31552Y383670D01*
X31537Y383623D01*
X31523Y383586D01*
X31508Y383557D01*
X31497Y383539D01*
X31493Y383532D01*
X31457Y383481D01*
X31413Y383434D01*
X31370Y383393D01*
X31326Y383361D01*
X31290Y383331D01*
X31257Y383313D01*
X31235Y383299D01*
X31231Y383295D01*
X31228D01*
X31199Y383281D01*
X31166Y383266D01*
X31093Y383241D01*
X31009Y383215D01*
X30929Y383190D01*
X30856Y383168D01*
X30824Y383160D01*
X30795Y383153D01*
X30773Y383146D01*
X30755Y383142D01*
X30744Y383139D01*
X30740D01*
X30678Y383124D01*
X30620Y383109D01*
X30569Y383095D01*
X30525Y383084D01*
X30482Y383073D01*
X30445Y383062D01*
X30413Y383055D01*
X30387Y383044D01*
X30362Y383037D01*
X30343Y383033D01*
X30314Y383022D01*
X30296Y383018D01*
X30292Y383015D01*
X30238Y382993D01*
X30190Y382967D01*
X30150Y382942D01*
X30121Y382920D01*
X30096Y382898D01*
X30081Y382884D01*
X30070Y382873D01*
X30067Y382869D01*
X30041Y382837D01*
X30023Y382800D01*
X30012Y382764D01*
X30001Y382735D01*
X29998Y382705D01*
X29994Y382684D01*
Y382665D01*
Y382662D01*
X29998Y382618D01*
X30005Y382578D01*
X30016Y382542D01*
X30030Y382512D01*
X30045Y382483D01*
X30056Y382465D01*
X30063Y382451D01*
X30067Y382447D01*
X30096Y382411D01*
X30132Y382382D01*
X30169Y382356D01*
X30201Y382330D01*
X30234Y382316D01*
X30260Y382301D01*
X30278Y382294D01*
X30285Y382291D01*
X30340Y382272D01*
X30398Y382258D01*
X30456Y382250D01*
X30507Y382243D01*
X30551Y382240D01*
X30587Y382236D01*
X30620D01*
X30700Y382240D01*
X30773Y382247D01*
X30838Y382258D01*
X30897Y382272D01*
X30944Y382287D01*
X30980Y382298D01*
X30991Y382301D01*
X31002Y382305D01*
X31006Y382309D01*
X31009D01*
X31068Y382338D01*
X31122Y382371D01*
X31162Y382403D01*
X31199Y382436D01*
X31228Y382462D01*
X31246Y382487D01*
X31257Y382502D01*
X31261Y382505D01*
X31286Y382553D01*
X31312Y382604D01*
X31326Y382658D01*
X31341Y382705D01*
X31352Y382753D01*
X31359Y382786D01*
Y382800D01*
X31363Y382811D01*
Y382815D01*
Y382818D01*
X31675Y382789D01*
X31668Y382698D01*
X31654Y382611D01*
X31632Y382534D01*
X31606Y382465D01*
X31581Y382411D01*
X31570Y382389D01*
X31563Y382371D01*
X31552Y382356D01*
X31548Y382345D01*
X31541Y382338D01*
Y382334D01*
X31486Y382265D01*
X31428Y382203D01*
X31366Y382152D01*
X31308Y382108D01*
X31257Y382076D01*
X31213Y382054D01*
X31199Y382047D01*
X31188Y382039D01*
X31181Y382036D01*
X31177D01*
X31086Y382003D01*
X30991Y381978D01*
X30897Y381963D01*
X30806Y381948D01*
X30762Y381945D01*
X30725Y381941D01*
X30693D01*
X30664Y381937D01*
X30605D01*
X30507Y381941D01*
X30416Y381952D01*
X30332Y381970D01*
X30263Y381988D01*
X30205Y382003D01*
X30180Y382014D01*
X30158Y382021D01*
X30143Y382028D01*
X30132Y382032D01*
X30125Y382036D01*
X30121D01*
X30045Y382076D01*
X29979Y382119D01*
X29921Y382167D01*
X29874Y382210D01*
X29837Y382247D01*
X29812Y382280D01*
X29794Y382301D01*
X29790Y382305D01*
Y382309D01*
X29750Y382378D01*
X29721Y382443D01*
X29703Y382505D01*
X29688Y382563D01*
X29681Y382614D01*
X29673Y382655D01*
Y382669D01*
Y382680D01*
Y382684D01*
Y382687D01*
X29677Y382760D01*
X29688Y382829D01*
X29706Y382891D01*
X29724Y382942D01*
X29746Y382986D01*
X29761Y383018D01*
X29776Y383037D01*
X29779Y383044D01*
X29823Y383099D01*
X29874Y383150D01*
X29928Y383193D01*
X29983Y383233D01*
X30030Y383262D01*
X30070Y383284D01*
X30085Y383292D01*
X30096Y383299D01*
X30103Y383302D01*
X30107D01*
X30136Y383317D01*
X30172Y383328D01*
X30212Y383343D01*
X30256Y383357D01*
X30347Y383383D01*
X30442Y383408D01*
X30485Y383419D01*
X30525Y383430D01*
X30565Y383441D01*
X30598Y383448D01*
X30624Y383455D01*
X30645Y383459D01*
X30660Y383463D01*
X30664D01*
X30736Y383481D01*
X30802Y383495D01*
X30860Y383513D01*
X30911Y383528D01*
X30958Y383546D01*
X30999Y383561D01*
X31035Y383575D01*
X31068Y383586D01*
X31093Y383601D01*
X31115Y383612D01*
X31130Y383619D01*
X31144Y383630D01*
X31162Y383641D01*
X31166Y383645D01*
X31199Y383681D01*
X31220Y383717D01*
X31239Y383754D01*
X31250Y383790D01*
X31257Y383819D01*
X31261Y383845D01*
Y383859D01*
Y383867D01*
X31253Y383925D01*
X31239Y383976D01*
X31217Y384019D01*
X31191Y384060D01*
X31170Y384089D01*
X31148Y384114D01*
X31133Y384129D01*
X31126Y384132D01*
X31097Y384151D01*
X31068Y384169D01*
X30999Y384198D01*
X30926Y384216D01*
X30853Y384231D01*
X30787Y384238D01*
X30758Y384242D01*
X30736Y384245D01*
X30685D01*
X30584Y384242D01*
X30492Y384227D01*
X30420Y384205D01*
X30358Y384183D01*
X30310Y384161D01*
X30274Y384140D01*
X30256Y384125D01*
X30249Y384121D01*
X30198Y384070D01*
X30158Y384016D01*
X30125Y383958D01*
X30103Y383899D01*
X30088Y383845D01*
X30078Y383805D01*
X30074Y383787D01*
X30070Y383776D01*
Y383768D01*
Y383765D01*
X29750Y383790D01*
X29757Y383870D01*
X29776Y383943D01*
X29794Y384012D01*
X29819Y384070D01*
X29841Y384118D01*
X29859Y384154D01*
X29866Y384165D01*
X29874Y384176D01*
X29877Y384180D01*
Y384183D01*
X29925Y384245D01*
X29976Y384300D01*
X30030Y384347D01*
X30085Y384384D01*
X30132Y384416D01*
X30169Y384435D01*
X30183Y384442D01*
X30194Y384449D01*
X30201Y384453D01*
X30205D01*
X30285Y384482D01*
X30372Y384504D01*
X30452Y384522D01*
X30529Y384533D01*
X30598Y384540D01*
X30624D01*
X30649Y384544D01*
X30696D01*
X30791Y384540D01*
D02*
G37*
%LPC*%
G36*
X38734Y384546D02*
X37566D01*
X37806D01*
X37955Y383807D01*
X37420D01*
X37267Y384546D01*
X37009D01*
X37161Y383807D01*
X36859D01*
Y383552D01*
X37212D01*
X37340Y382926D01*
X36859D01*
Y382973D01*
Y382926D01*
Y381939D01*
Y382671D01*
X37394D01*
X37540Y381939D01*
X36859D01*
X37799D01*
X37649Y382671D01*
X38188D01*
X38337Y381939D01*
X38592D01*
X38446Y382671D01*
X38734D01*
Y383359D01*
Y382926D01*
X38392D01*
X38264Y383552D01*
X38734D01*
Y383814D01*
Y383807D01*
X38214D01*
X38061Y384546D01*
X38734D01*
D02*
G37*
G36*
X36859Y383552D02*
D01*
Y383446D01*
Y383552D01*
D02*
G37*
G36*
X42287Y384502D02*
D01*
Y383057D01*
Y384502D01*
D02*
G37*
G36*
X44168D02*
X42345D01*
Y384204D01*
X43834D01*
Y383436D01*
X42439D01*
Y383137D01*
X43834D01*
Y382282D01*
X42287D01*
D01*
Y381983D01*
X44168D01*
Y384502D01*
D02*
G37*
G36*
X54928D02*
X53006D01*
Y381983D01*
Y383741D01*
X53010Y383716D01*
X53014Y383690D01*
X53017Y383658D01*
X53025Y383621D01*
X53032Y383581D01*
X53057Y383497D01*
X53072Y383454D01*
X53094Y383406D01*
X53119Y383359D01*
X53145Y383315D01*
X53177Y383272D01*
X53214Y383228D01*
X53218Y383224D01*
X53225Y383217D01*
X53236Y383206D01*
X53254Y383195D01*
X53276Y383177D01*
X53305Y383159D01*
X53341Y383137D01*
X53381Y383119D01*
X53429Y383097D01*
X53483Y383075D01*
X53541Y383057D01*
X53611Y383042D01*
X53684Y383028D01*
X53764Y383017D01*
X53855Y383010D01*
X53949Y383006D01*
X54593D01*
Y381983D01*
X54928D01*
Y384502D01*
D02*
G37*
G36*
X50054D02*
X48151D01*
Y382991D01*
Y384502D01*
X49064D01*
X49039Y384498D01*
X49010D01*
X48944Y384491D01*
X48871Y384484D01*
X48795Y384469D01*
X48719Y384451D01*
X48649Y384425D01*
X48646D01*
X48642Y384422D01*
X48620Y384411D01*
X48588Y384393D01*
X48551Y384367D01*
X48507Y384334D01*
X48460Y384295D01*
X48416Y384243D01*
X48376Y384189D01*
X48373Y384182D01*
X48362Y384160D01*
X48344Y384131D01*
X48325Y384087D01*
X48307Y384036D01*
X48289Y383981D01*
X48278Y383920D01*
X48274Y383858D01*
Y383850D01*
Y383832D01*
X48278Y383800D01*
X48285Y383759D01*
X48296Y383712D01*
X48314Y383661D01*
X48336Y383610D01*
X48365Y383556D01*
X48369Y383548D01*
X48380Y383534D01*
X48402Y383505D01*
X48431Y383475D01*
X48467Y383439D01*
X48511Y383399D01*
X48566Y383363D01*
X48627Y383326D01*
X48624D01*
X48617Y383323D01*
X48606Y383319D01*
X48591Y383312D01*
X48547Y383297D01*
X48496Y383272D01*
X48442Y383239D01*
X48380Y383199D01*
X48325Y383152D01*
X48274Y383093D01*
X48271Y383086D01*
X48256Y383064D01*
X48234Y383031D01*
X48213Y382988D01*
X48191Y382929D01*
X48169Y382868D01*
X48154Y382795D01*
X48151Y382715D01*
Y381983D01*
Y382686D01*
X48154Y382649D01*
X48162Y382606D01*
X48169Y382555D01*
X48183Y382500D01*
X48202Y382442D01*
X48227Y382383D01*
X48231Y382376D01*
X48242Y382358D01*
X48256Y382332D01*
X48278Y382296D01*
X48307Y382260D01*
X48336Y382220D01*
X48373Y382180D01*
X48413Y382147D01*
X48416Y382143D01*
X48431Y382132D01*
X48456Y382118D01*
X48489Y382103D01*
X48529Y382081D01*
X48577Y382060D01*
X48627Y382041D01*
X48689Y382023D01*
X48697D01*
X48719Y382016D01*
X48755Y382012D01*
X48802Y382005D01*
X48860Y381998D01*
X48930Y381990D01*
X49006Y381987D01*
X49093Y381983D01*
X50054D01*
Y384502D01*
D02*
G37*
G36*
X46709D02*
X44496D01*
Y381983D01*
Y384502D01*
X45541D01*
X45512Y384498D01*
X45479D01*
X45403Y384495D01*
X45322Y384484D01*
X45235Y384473D01*
X45155Y384455D01*
X45115Y384444D01*
X45082Y384433D01*
X45079D01*
X45075Y384429D01*
X45053Y384418D01*
X45020Y384404D01*
X44980Y384378D01*
X44937Y384346D01*
X44889Y384302D01*
X44846Y384251D01*
X44802Y384193D01*
Y384189D01*
X44798Y384185D01*
X44784Y384163D01*
X44769Y384127D01*
X44747Y384080D01*
X44729Y384025D01*
X44711Y383960D01*
X44700Y383891D01*
X44696Y383814D01*
Y383810D01*
Y383803D01*
Y383788D01*
X44700Y383770D01*
Y383745D01*
X44704Y383719D01*
X44718Y383658D01*
X44740Y383585D01*
X44769Y383508D01*
X44813Y383432D01*
X44842Y383395D01*
X44871Y383359D01*
X44875Y383355D01*
X44878Y383352D01*
X44889Y383341D01*
X44904Y383330D01*
X44922Y383315D01*
X44944Y383301D01*
X44973Y383283D01*
X45002Y383261D01*
X45039Y383243D01*
X45079Y383224D01*
X45122Y383203D01*
X45169Y383184D01*
X45224Y383170D01*
X45279Y383152D01*
X45341Y383141D01*
X45406Y383130D01*
X45399Y383126D01*
X45384Y383119D01*
X45362Y383104D01*
X45333Y383090D01*
X45268Y383050D01*
X45235Y383024D01*
X45206Y383002D01*
X45199Y382995D01*
X45180Y382977D01*
X45151Y382948D01*
X45115Y382911D01*
X45075Y382860D01*
X45028Y382806D01*
X44980Y382740D01*
X44929Y382667D01*
X44496Y381983D01*
X44911D01*
X45242Y382507D01*
Y382511D01*
X45250Y382518D01*
X45257Y382529D01*
X45268Y382544D01*
X45293Y382584D01*
X45326Y382635D01*
X45366Y382689D01*
X45406Y382748D01*
X45446Y382802D01*
X45483Y382853D01*
X45486Y382857D01*
X45497Y382871D01*
X45515Y382893D01*
X45541Y382919D01*
X45595Y382973D01*
X45625Y382999D01*
X45654Y383020D01*
X45657Y383024D01*
X45665Y383028D01*
X45679Y383035D01*
X45701Y383046D01*
X45723Y383057D01*
X45748Y383068D01*
X45807Y383086D01*
X45810D01*
X45817Y383090D01*
X45832D01*
X45850Y383093D01*
X45876Y383097D01*
X45905D01*
X45945Y383101D01*
X46374D01*
Y381983D01*
X46709D01*
Y384502D01*
D02*
G37*
G36*
X42086D02*
X39779D01*
Y381983D01*
Y384502D01*
X40762Y381983D01*
X41111D01*
X42086Y384502D01*
D01*
D02*
G37*
G36*
X52679Y384546D02*
X50451D01*
Y381939D01*
Y382777D01*
X50455Y382762D01*
X50462Y382740D01*
X50473Y382711D01*
X50484Y382678D01*
X50498Y382638D01*
X50517Y382595D01*
X50538Y382547D01*
X50590Y382445D01*
X50655Y382344D01*
X50695Y382293D01*
X50735Y382242D01*
X50779Y382198D01*
X50830Y382154D01*
X50833Y382151D01*
X50841Y382143D01*
X50859Y382136D01*
X50877Y382121D01*
X50906Y382103D01*
X50935Y382085D01*
X50975Y382067D01*
X51015Y382049D01*
X51063Y382027D01*
X51114Y382009D01*
X51168Y381990D01*
X51227Y381972D01*
X51288Y381958D01*
X51354Y381950D01*
X51423Y381943D01*
X51496Y381939D01*
X51536D01*
X51565Y381943D01*
X51598D01*
X51638Y381947D01*
X51682Y381954D01*
X51732Y381961D01*
X51838Y381979D01*
X51947Y382009D01*
X52056Y382049D01*
X52107Y382074D01*
X52158Y382103D01*
X52162Y382107D01*
X52169Y382111D01*
X52184Y382121D01*
X52198Y382136D01*
X52220Y382151D01*
X52246Y382172D01*
X52275Y382198D01*
X52304Y382227D01*
X52333Y382260D01*
X52366Y382293D01*
X52431Y382376D01*
X52493Y382474D01*
X52548Y382584D01*
Y382587D01*
X52555Y382598D01*
X52559Y382616D01*
X52570Y382638D01*
X52577Y382667D01*
X52588Y382704D01*
X52602Y382744D01*
X52613Y382787D01*
X52624Y382835D01*
X52639Y382890D01*
X52657Y383002D01*
X52672Y383130D01*
X52679Y383261D01*
Y383304D01*
Y383301D01*
X52675Y383326D01*
Y383363D01*
X52672Y383399D01*
X52668Y383446D01*
X52661Y383494D01*
X52642Y383599D01*
X52617Y383716D01*
X52581Y383832D01*
X52530Y383945D01*
X52526Y383949D01*
X52522Y383960D01*
X52515Y383974D01*
X52500Y383992D01*
X52486Y384018D01*
X52468Y384047D01*
X52420Y384113D01*
X52359Y384185D01*
X52286Y384258D01*
X52202Y384331D01*
X52104Y384393D01*
X52100Y384396D01*
X52089Y384400D01*
X52075Y384407D01*
X52056Y384418D01*
X52027Y384429D01*
X51998Y384440D01*
X51962Y384455D01*
X51922Y384469D01*
X51878Y384484D01*
X51831Y384498D01*
X51729Y384520D01*
X51612Y384538D01*
X51492Y384546D01*
X52679D01*
D02*
G37*
%LPD*%
G36*
X38133Y382926D02*
X37598D01*
X37471Y383552D01*
X38006D01*
X38133Y382926D01*
D02*
G37*
G36*
X53840Y384498D02*
X53778Y384495D01*
X53713Y384491D01*
X53651Y384484D01*
X53596Y384476D01*
X53589D01*
X53563Y384469D01*
X53531Y384462D01*
X53487Y384451D01*
X53440Y384433D01*
X53389Y384411D01*
X53334Y384385D01*
X53287Y384356D01*
X53279Y384353D01*
X53265Y384342D01*
X53243Y384320D01*
X53214Y384295D01*
X53181Y384262D01*
X53148Y384218D01*
X53112Y384171D01*
X53083Y384116D01*
X53079Y384109D01*
X53072Y384091D01*
X53057Y384058D01*
X53043Y384014D01*
X53032Y383963D01*
X53017Y383905D01*
X53010Y383840D01*
X53006Y383770D01*
Y384502D01*
X53895D01*
X53840Y384498D01*
D02*
G37*
G36*
X54593Y383304D02*
X53916D01*
X53891Y383308D01*
X53865D01*
X53836Y383312D01*
X53767Y383319D01*
X53691Y383333D01*
X53614Y383355D01*
X53545Y383384D01*
X53512Y383403D01*
X53487Y383424D01*
X53480Y383432D01*
X53465Y383446D01*
X53443Y383475D01*
X53418Y383512D01*
X53392Y383559D01*
X53370Y383617D01*
X53356Y383683D01*
X53349Y383759D01*
Y383763D01*
Y383767D01*
Y383785D01*
X53352Y383818D01*
X53360Y383854D01*
X53367Y383894D01*
X53381Y383941D01*
X53403Y383985D01*
X53429Y384029D01*
X53432Y384032D01*
X53443Y384047D01*
X53461Y384065D01*
X53483Y384091D01*
X53516Y384116D01*
X53552Y384138D01*
X53592Y384160D01*
X53640Y384178D01*
X53643D01*
X53658Y384182D01*
X53680Y384185D01*
X53709Y384193D01*
X53753Y384196D01*
X53807Y384200D01*
X53873Y384204D01*
X54593D01*
Y383304D01*
D02*
G37*
G36*
X49720Y383446D02*
X49101D01*
X49053Y383450D01*
X49002Y383454D01*
X48952Y383457D01*
X48900Y383465D01*
X48860Y383472D01*
X48853Y383475D01*
X48839Y383479D01*
X48817Y383490D01*
X48788Y383505D01*
X48759Y383519D01*
X48726Y383541D01*
X48693Y383570D01*
X48668Y383599D01*
X48664Y383603D01*
X48657Y383614D01*
X48646Y383636D01*
X48635Y383661D01*
X48624Y383690D01*
X48613Y383727D01*
X48606Y383770D01*
X48602Y383818D01*
Y383825D01*
Y383840D01*
X48606Y383861D01*
X48609Y383891D01*
X48617Y383927D01*
X48627Y383963D01*
X48642Y384000D01*
X48664Y384036D01*
X48668Y384040D01*
X48675Y384051D01*
X48689Y384069D01*
X48708Y384087D01*
X48733Y384109D01*
X48762Y384131D01*
X48799Y384153D01*
X48839Y384167D01*
X48842D01*
X48860Y384174D01*
X48886Y384178D01*
X48926Y384185D01*
X48981Y384193D01*
X49042Y384196D01*
X49123Y384204D01*
X49720D01*
Y383446D01*
D02*
G37*
G36*
Y382282D02*
X49002D01*
X48926Y382285D01*
X48893Y382289D01*
X48864Y382293D01*
X48860D01*
X48846Y382296D01*
X48824Y382300D01*
X48799Y382307D01*
X48737Y382329D01*
X48675Y382358D01*
X48671Y382362D01*
X48660Y382369D01*
X48646Y382380D01*
X48627Y382394D01*
X48609Y382416D01*
X48584Y382438D01*
X48566Y382467D01*
X48544Y382500D01*
X48540Y382504D01*
X48537Y382515D01*
X48529Y382536D01*
X48518Y382562D01*
X48507Y382591D01*
X48500Y382627D01*
X48496Y382671D01*
X48493Y382715D01*
Y382722D01*
Y382737D01*
X48496Y382766D01*
X48504Y382799D01*
X48511Y382835D01*
X48526Y382875D01*
X48544Y382915D01*
X48569Y382955D01*
X48573Y382959D01*
X48584Y382973D01*
X48598Y382991D01*
X48620Y383013D01*
X48649Y383039D01*
X48686Y383064D01*
X48726Y383086D01*
X48773Y383104D01*
X48780Y383108D01*
X48795Y383112D01*
X48828Y383119D01*
X48868Y383126D01*
X48919Y383133D01*
X48981Y383141D01*
X49057Y383148D01*
X49720D01*
Y382282D01*
D02*
G37*
G36*
X46374Y383388D02*
X45625D01*
X45581Y383392D01*
X45530Y383395D01*
X45472Y383399D01*
X45413Y383406D01*
X45355Y383417D01*
X45304Y383432D01*
X45297Y383436D01*
X45282Y383443D01*
X45261Y383454D01*
X45231Y383468D01*
X45199Y383490D01*
X45166Y383516D01*
X45133Y383548D01*
X45108Y383585D01*
X45104Y383588D01*
X45097Y383603D01*
X45086Y383625D01*
X45071Y383654D01*
X45060Y383687D01*
X45049Y383723D01*
X45042Y383767D01*
X45039Y383810D01*
Y383814D01*
Y383818D01*
X45042Y383840D01*
X45046Y383872D01*
X45053Y383916D01*
X45071Y383960D01*
X45093Y384011D01*
X45126Y384058D01*
X45169Y384105D01*
X45177Y384109D01*
X45195Y384123D01*
X45224Y384142D01*
X45271Y384163D01*
X45326Y384185D01*
X45399Y384204D01*
X45483Y384218D01*
X45581Y384222D01*
X46374D01*
Y383388D01*
D02*
G37*
G36*
X41067Y382671D02*
Y382667D01*
X41064Y382660D01*
X41060Y382649D01*
X41053Y382635D01*
X41049Y382613D01*
X41042Y382591D01*
X41024Y382536D01*
X41002Y382474D01*
X40980Y382405D01*
X40936Y382260D01*
Y382263D01*
X40933Y382271D01*
X40929Y382282D01*
X40925Y382296D01*
X40914Y382336D01*
X40896Y382391D01*
X40878Y382453D01*
X40856Y382522D01*
X40831Y382595D01*
X40802Y382671D01*
X40117Y384502D01*
X41722D01*
X41067Y382671D01*
D02*
G37*
G36*
X51430Y384542D02*
X51398Y384538D01*
X51358Y384535D01*
X51318Y384531D01*
X51270Y384520D01*
X51172Y384498D01*
X51063Y384466D01*
X51008Y384444D01*
X50957Y384418D01*
X50906Y384385D01*
X50855Y384353D01*
X50852Y384349D01*
X50844Y384346D01*
X50830Y384334D01*
X50811Y384316D01*
X50793Y384298D01*
X50768Y384273D01*
X50742Y384243D01*
X50713Y384214D01*
X50684Y384178D01*
X50655Y384134D01*
X50622Y384091D01*
X50593Y384043D01*
X50568Y383989D01*
X50538Y383934D01*
X50517Y383876D01*
X50495Y383810D01*
X50822Y383734D01*
Y383738D01*
X50826Y383745D01*
X50833Y383759D01*
X50841Y383778D01*
X50848Y383800D01*
X50859Y383829D01*
X50888Y383887D01*
X50924Y383952D01*
X50968Y384018D01*
X51023Y384080D01*
X51081Y384134D01*
X51088Y384142D01*
X51110Y384156D01*
X51146Y384174D01*
X51194Y384200D01*
X51256Y384222D01*
X51325Y384243D01*
X51408Y384258D01*
X51499Y384262D01*
X51529D01*
X51547Y384258D01*
X51572D01*
X51601Y384255D01*
X51671Y384243D01*
X51747Y384229D01*
X51827Y384204D01*
X51911Y384167D01*
X51987Y384120D01*
X51991D01*
X51995Y384113D01*
X52020Y384094D01*
X52053Y384065D01*
X52093Y384021D01*
X52140Y383967D01*
X52184Y383905D01*
X52224Y383829D01*
X52260Y383745D01*
Y383741D01*
X52264Y383734D01*
X52267Y383723D01*
X52271Y383705D01*
X52278Y383683D01*
X52286Y383658D01*
X52297Y383596D01*
X52311Y383523D01*
X52326Y383443D01*
X52333Y383355D01*
X52337Y383261D01*
Y383257D01*
Y383246D01*
Y383228D01*
Y383206D01*
X52333Y383181D01*
Y383148D01*
X52329Y383112D01*
X52326Y383071D01*
X52315Y382984D01*
X52297Y382890D01*
X52275Y382795D01*
X52246Y382700D01*
Y382697D01*
X52242Y382689D01*
X52235Y382678D01*
X52227Y382660D01*
X52206Y382616D01*
X52173Y382565D01*
X52133Y382507D01*
X52082Y382445D01*
X52024Y382391D01*
X51955Y382340D01*
X51951D01*
X51944Y382336D01*
X51933Y382329D01*
X51918Y382322D01*
X51900Y382314D01*
X51878Y382303D01*
X51827Y382282D01*
X51762Y382260D01*
X51689Y382242D01*
X51609Y382227D01*
X51525Y382223D01*
X51499D01*
X51478Y382227D01*
X51452D01*
X51427Y382231D01*
X51361Y382245D01*
X51285Y382263D01*
X51208Y382293D01*
X51128Y382332D01*
X51088Y382354D01*
X51052Y382383D01*
X51048Y382387D01*
X51044Y382391D01*
X51034Y382402D01*
X51019Y382413D01*
X51004Y382431D01*
X50986Y382453D01*
X50964Y382474D01*
X50946Y382504D01*
X50924Y382536D01*
X50899Y382573D01*
X50877Y382609D01*
X50855Y382653D01*
X50837Y382700D01*
X50819Y382751D01*
X50801Y382806D01*
X50786Y382864D01*
X50451Y382780D01*
Y384546D01*
X51456D01*
X51430Y384542D01*
D02*
G37*
%LPC*%
G36*
X17571Y383550D02*
X17036D01*
X17163Y382924D01*
X17698D01*
X17571Y383550D01*
D02*
G37*
G36*
X26529Y384220D02*
X25735D01*
X25637Y384216D01*
X25553Y384202D01*
X25480Y384183D01*
X25426Y384161D01*
X25378Y384140D01*
X25349Y384121D01*
X25331Y384107D01*
X25324Y384103D01*
X25280Y384056D01*
X25247Y384009D01*
X25225Y383958D01*
X25207Y383914D01*
X25200Y383870D01*
X25196Y383838D01*
X25193Y383816D01*
Y383812D01*
Y383808D01*
X25196Y383765D01*
X25204Y383721D01*
X25214Y383685D01*
X25225Y383652D01*
X25240Y383623D01*
X25251Y383601D01*
X25258Y383586D01*
X25262Y383583D01*
X25287Y383546D01*
X25320Y383513D01*
X25353Y383488D01*
X25386Y383466D01*
X25415Y383452D01*
X25437Y383441D01*
X25451Y383434D01*
X25458Y383430D01*
X25509Y383415D01*
X25568Y383404D01*
X25626Y383397D01*
X25684Y383393D01*
X25735Y383390D01*
X25779Y383386D01*
X26529D01*
Y384220D01*
D02*
G37*
G36*
X22488Y384238D02*
X22463Y384154D01*
X22434Y384067D01*
X22404Y383980D01*
X22375Y383896D01*
X22361Y383859D01*
X22350Y383823D01*
X22339Y383790D01*
X22328Y383765D01*
X22321Y383743D01*
X22313Y383725D01*
X22310Y383714D01*
Y383710D01*
X22048Y383018D01*
X22899D01*
X22626Y383754D01*
X22594Y383845D01*
X22568Y383932D01*
X22543Y384012D01*
X22525Y384085D01*
X22510Y384147D01*
X22503Y384172D01*
X22499Y384198D01*
X22492Y384212D01*
Y384227D01*
X22488Y384234D01*
Y384238D01*
D02*
G37*
%LPD*%
D13*
X365220Y232443D02*
X366401D01*
X365220D02*
Y243466D01*
X366401D01*
X369551D02*
X370732D01*
Y232443D02*
Y243466D01*
X369551Y232443D02*
X370732D01*
X365220Y237954D02*
X370732D01*
X352229Y232443D02*
X353410D01*
X352229D02*
Y243466D01*
X353410D01*
X356560D02*
X357741D01*
Y232443D02*
Y243466D01*
X356560Y232443D02*
X357741D01*
X352229Y237954D02*
X357741D01*
X294691Y231820D02*
X295873D01*
X294691D02*
Y242844D01*
X295873D01*
X299022D02*
X300203D01*
Y231820D02*
Y242844D01*
X299022Y231820D02*
X300203D01*
X294691Y237332D02*
X300203D01*
X278865Y231434D02*
X280046D01*
X278865D02*
Y242458D01*
X280046D01*
X283196D02*
X284377D01*
Y231434D02*
Y242458D01*
X283196Y231434D02*
X284377D01*
X278865Y236946D02*
X284377D01*
X434172Y231256D02*
X435353D01*
X434172D02*
Y242280D01*
X435353D01*
X438503D02*
X439684D01*
Y231256D02*
Y242280D01*
X438503Y231256D02*
X439684D01*
X434172Y236768D02*
X439684D01*
X420504Y230573D02*
X421685D01*
X420504D02*
Y241596D01*
X421685D01*
X424835D02*
X426016D01*
Y230573D02*
Y241596D01*
X424835Y230573D02*
X426016D01*
X420504Y236084D02*
X426016D01*
X210842Y232304D02*
X212023D01*
X210842D02*
Y243328D01*
X212023D01*
X215173D02*
X216354D01*
Y232304D02*
Y243328D01*
X215173Y232304D02*
X216354D01*
X210842Y237816D02*
X216354D01*
X228073Y232264D02*
X229254D01*
X228073D02*
Y243287D01*
X229254D01*
X232403D02*
X233584D01*
Y232264D02*
Y243287D01*
X232403Y232264D02*
X233584D01*
X228073Y237776D02*
X233584D01*
D18*
X439167Y248139D02*
X439823Y248795D01*
X441135D01*
X441791Y248139D01*
Y245515D01*
X441135Y244859D01*
X439823D01*
X439167Y245515D01*
X437855Y244859D02*
X436543D01*
X437199D01*
Y248795D01*
X437855Y248139D01*
X434575Y245515D02*
X433919Y244859D01*
X432607D01*
X431951Y245515D01*
Y248139D01*
X432607Y248795D01*
X433919D01*
X434575Y248139D01*
Y247483D01*
X433919Y246827D01*
X431951D01*
X426019Y247312D02*
X426675Y247968D01*
X427987D01*
X428643Y247312D01*
Y244688D01*
X427987Y244032D01*
X426675D01*
X426019Y244688D01*
X424707Y244032D02*
X423395D01*
X424051D01*
Y247968D01*
X424707Y247312D01*
X421427D02*
X420772Y247968D01*
X419460D01*
X418804Y247312D01*
Y246656D01*
X419460Y246000D01*
X418804Y245344D01*
Y244688D01*
X419460Y244032D01*
X420772D01*
X421427Y244688D01*
Y245344D01*
X420772Y246000D01*
X421427Y246656D01*
Y247312D01*
X420772Y246000D02*
X419460D01*
X369718Y248139D02*
X370374Y248795D01*
X371686D01*
X372342Y248139D01*
Y245515D01*
X371686Y244859D01*
X370374D01*
X369718Y245515D01*
X368407Y244859D02*
X367095D01*
X367751D01*
Y248795D01*
X368407Y248139D01*
X365127Y248795D02*
X362503D01*
Y248139D01*
X365127Y245515D01*
Y244859D01*
X356930Y248239D02*
X357586Y248895D01*
X358898D01*
X359554Y248239D01*
Y245615D01*
X358898Y244959D01*
X357586D01*
X356930Y245615D01*
X355618Y244959D02*
X354306D01*
X354962D01*
Y248895D01*
X355618Y248239D01*
X349714Y248895D02*
X351026Y248239D01*
X352338Y246927D01*
Y245615D01*
X351682Y244959D01*
X350370D01*
X349714Y245615D01*
Y246271D01*
X350370Y246927D01*
X352338D01*
X300552Y248139D02*
X301208Y248795D01*
X302520D01*
X303176Y248139D01*
Y245515D01*
X302520Y244859D01*
X301208D01*
X300552Y245515D01*
X299240Y244859D02*
X297928D01*
X298584D01*
Y248795D01*
X299240Y248139D01*
X293336Y248795D02*
X295960D01*
Y246827D01*
X294648Y247483D01*
X293992D01*
X293336Y246827D01*
Y245515D01*
X293992Y244859D01*
X295304D01*
X295960Y245515D01*
X283768Y248139D02*
X284424Y248795D01*
X285736D01*
X286392Y248139D01*
Y245515D01*
X285736Y244859D01*
X284424D01*
X283768Y245515D01*
X282456Y244859D02*
X281144D01*
X281800D01*
Y248795D01*
X282456Y248139D01*
X277208Y244859D02*
Y248795D01*
X279176Y246827D01*
X276552D01*
X233255Y248139D02*
X233911Y248795D01*
X235223D01*
X235879Y248139D01*
Y245515D01*
X235223Y244859D01*
X233911D01*
X233255Y245515D01*
X231943Y244859D02*
X230631D01*
X231287D01*
Y248795D01*
X231943Y248139D01*
X228663D02*
X228007Y248795D01*
X226695D01*
X226039Y248139D01*
Y247483D01*
X226695Y246827D01*
X227351D01*
X226695D01*
X226039Y246171D01*
Y245515D01*
X226695Y244859D01*
X228007D01*
X228663Y245515D01*
X215726Y247986D02*
X216382Y248642D01*
X217694D01*
X218350Y247986D01*
Y245362D01*
X217694Y244707D01*
X216382D01*
X215726Y245362D01*
X214414Y244707D02*
X213103D01*
X213758D01*
Y248642D01*
X214414Y247986D01*
X208511Y244707D02*
X211135D01*
X208511Y247330D01*
Y247986D01*
X209167Y248642D01*
X210479D01*
X211135Y247986D01*
D22*
X36101Y369414D02*
X55786D01*
Y385457D01*
X36101D02*
X55786D01*
X36101Y369414D02*
Y385457D01*
X14207Y385457D02*
X33892D01*
X14207Y369414D02*
X33892D01*
Y385457D01*
X14207Y369414D02*
Y385457D01*
X46608Y376782D02*
X46037Y377068D01*
X45180Y377925D01*
Y371926D01*
D74*
X24000Y375221D02*
D03*
M02*
