G04*
G04 #@! TF.GenerationSoftware,Altium Limited,Altium Designer,22.11.1 (43)*
G04*
G04 Layer_Physical_Order=1*
G04 Layer_Color=255*
%FSLAX25Y25*%
%MOIN*%
G70*
G04*
G04 #@! TF.SameCoordinates,3125327F-633B-4DE6-8F98-D116A0B0FB6F*
G04*
G04*
G04 #@! TF.FilePolarity,Positive*
G04*
G01*
G75*
%ADD15C,0.00600*%
%ADD23R,0.06299X0.11024*%
%ADD24R,0.03543X0.03543*%
%ADD25R,0.05906X0.03543*%
%ADD26R,0.03543X0.05906*%
%ADD27R,0.03740X0.03347*%
G04:AMPARAMS|DCode=28|XSize=46.85mil|YSize=15.75mil|CornerRadius=3.94mil|HoleSize=0mil|Usage=FLASHONLY|Rotation=180.000|XOffset=0mil|YOffset=0mil|HoleType=Round|Shape=RoundedRectangle|*
%AMROUNDEDRECTD28*
21,1,0.04685,0.00787,0,0,180.0*
21,1,0.03898,0.01575,0,0,180.0*
1,1,0.00787,-0.01949,0.00394*
1,1,0.00787,0.01949,0.00394*
1,1,0.00787,0.01949,-0.00394*
1,1,0.00787,-0.01949,-0.00394*
%
%ADD28ROUNDEDRECTD28*%
%ADD29R,0.03937X0.03543*%
%ADD30R,0.03347X0.03740*%
%ADD31R,0.03150X0.03150*%
%ADD32R,0.03937X0.04724*%
%ADD33R,0.06000X0.02000*%
%ADD34R,0.06000X0.07000*%
%ADD35R,0.03937X0.12598*%
%ADD36R,0.03543X0.03150*%
%ADD37R,0.03150X0.03543*%
%ADD38R,0.07874X0.03937*%
%ADD39R,0.03937X0.01063*%
%ADD40R,0.03937X0.02047*%
%ADD41R,0.03898X0.01181*%
%ADD42R,0.03543X0.03937*%
G04:AMPARAMS|DCode=60|XSize=33.47mil|YSize=23.62mil|CornerRadius=11.81mil|HoleSize=0mil|Usage=FLASHONLY|Rotation=270.000|XOffset=0mil|YOffset=0mil|HoleType=Round|Shape=RoundedRectangle|*
%AMROUNDEDRECTD60*
21,1,0.03347,0.00000,0,0,270.0*
21,1,0.00984,0.02362,0,0,270.0*
1,1,0.02362,0.00000,-0.00492*
1,1,0.02362,0.00000,0.00492*
1,1,0.02362,0.00000,0.00492*
1,1,0.02362,0.00000,-0.00492*
%
%ADD60ROUNDEDRECTD60*%
%ADD61C,0.02362*%
G04:AMPARAMS|DCode=62|XSize=51.18mil|YSize=102.36mil|CornerRadius=25.59mil|HoleSize=0mil|Usage=FLASHONLY|Rotation=270.000|XOffset=0mil|YOffset=0mil|HoleType=Round|Shape=RoundedRectangle|*
%AMROUNDEDRECTD62*
21,1,0.05118,0.05118,0,0,270.0*
21,1,0.00000,0.10236,0,0,270.0*
1,1,0.05118,-0.02559,0.00000*
1,1,0.05118,-0.02559,0.00000*
1,1,0.05118,0.02559,0.00000*
1,1,0.05118,0.02559,0.00000*
%
%ADD62ROUNDEDRECTD62*%
G04:AMPARAMS|DCode=63|XSize=51.18mil|YSize=90.55mil|CornerRadius=25.59mil|HoleSize=0mil|Usage=FLASHONLY|Rotation=270.000|XOffset=0mil|YOffset=0mil|HoleType=Round|Shape=RoundedRectangle|*
%AMROUNDEDRECTD63*
21,1,0.05118,0.03937,0,0,270.0*
21,1,0.00000,0.09055,0,0,270.0*
1,1,0.05118,-0.01968,0.00000*
1,1,0.05118,-0.01968,0.00000*
1,1,0.05118,0.01968,0.00000*
1,1,0.05118,0.01968,0.00000*
%
%ADD63ROUNDEDRECTD63*%
%ADD64C,0.01968*%
%ADD65C,0.01181*%
%ADD66R,0.05504X0.05504*%
%ADD67C,0.05504*%
%ADD68C,0.12795*%
%ADD69C,0.01575*%
%ADD70C,0.24410*%
%ADD71C,0.05937*%
%ADD72R,0.05937X0.05937*%
%ADD73C,0.01968*%
G36*
X470507Y392575D02*
X472897Y391934D01*
X475184Y390987D01*
X477328Y389750D01*
X479292Y388243D01*
X481042Y386492D01*
X482549Y384529D01*
X483786Y382385D01*
X484733Y380098D01*
X485374Y377707D01*
X485697Y375253D01*
Y374016D01*
Y227185D01*
Y225947D01*
X485374Y223493D01*
X484733Y221102D01*
X483786Y218816D01*
X482549Y216672D01*
X481042Y214708D01*
X479292Y212958D01*
X477328Y211451D01*
X475184Y210214D01*
X472897Y209266D01*
X470507Y208626D01*
X468053Y208303D01*
X18447D01*
X15993Y208626D01*
X13602Y209266D01*
X11316Y210214D01*
X9172Y211451D01*
X7208Y212958D01*
X5458Y214708D01*
X3951Y216672D01*
X2714Y218816D01*
X1767Y221102D01*
X1126Y223493D01*
X803Y225947D01*
Y227185D01*
Y374016D01*
Y375253D01*
X1126Y377707D01*
X1767Y380098D01*
X2714Y382385D01*
X3951Y384529D01*
X5458Y386492D01*
X7208Y388243D01*
X9172Y389750D01*
X11316Y390987D01*
X13602Y391934D01*
X15993Y392575D01*
X18447Y392898D01*
X468053D01*
X470507Y392575D01*
D02*
G37*
%LPC*%
G36*
X141508Y389651D02*
X134602D01*
Y385151D01*
X134602Y385107D01*
Y384651D01*
X134602Y384607D01*
Y380151D01*
X134602Y380107D01*
Y379651D01*
X134602Y379607D01*
Y375151D01*
X134602Y375107D01*
Y374651D01*
X134602Y374607D01*
Y370151D01*
X134602Y370107D01*
Y369651D01*
X134602Y369607D01*
Y365151D01*
X134602Y365107D01*
Y364651D01*
X134602Y364607D01*
Y360151D01*
X134602Y360107D01*
Y359651D01*
X134602Y359607D01*
Y355151D01*
X134602Y355107D01*
Y354651D01*
X134602Y354607D01*
Y350151D01*
X134602Y350107D01*
Y349651D01*
X134602Y349607D01*
Y345151D01*
X134602Y345107D01*
Y344651D01*
X134602Y344607D01*
Y340151D01*
X134602Y340107D01*
Y339651D01*
X134602Y339607D01*
Y335151D01*
X134602Y335107D01*
Y334651D01*
X134602Y334607D01*
Y333297D01*
X133890D01*
X129020Y338167D01*
Y338767D01*
X128779Y339349D01*
X128333Y339794D01*
X127752Y340035D01*
X127122D01*
X126541Y339794D01*
X126095Y339349D01*
X125854Y338767D01*
Y338137D01*
X126095Y337556D01*
X126541Y337110D01*
X127122Y336869D01*
X127722D01*
X132861Y331730D01*
X133159Y331531D01*
X133510Y331461D01*
X134602D01*
Y330151D01*
X134602Y330107D01*
Y329651D01*
X134602Y329607D01*
Y325151D01*
X134602Y325107D01*
Y324651D01*
X134602Y324607D01*
Y320107D01*
X137138D01*
Y319707D01*
X137207Y319356D01*
X137406Y319058D01*
X142648Y313817D01*
X142946Y313618D01*
X143297Y313548D01*
X158939D01*
X159290Y313618D01*
X159588Y313817D01*
X166706Y320935D01*
X169800D01*
Y315053D01*
X174737D01*
Y318115D01*
X179161D01*
Y316859D01*
X183901D01*
Y321206D01*
X179161D01*
Y319950D01*
X174737D01*
Y328651D01*
X169800D01*
Y322770D01*
X166326D01*
X165975Y322700D01*
X165677Y322501D01*
X159451Y316275D01*
X158989Y316466D01*
Y328651D01*
X154052D01*
Y315383D01*
X143677D01*
X139453Y319607D01*
X139660Y320107D01*
X141508D01*
Y324607D01*
X141508Y324651D01*
Y325107D01*
X141508Y325151D01*
Y329607D01*
X141508Y329651D01*
Y330107D01*
X141508Y330151D01*
Y334607D01*
X141508Y334651D01*
Y335107D01*
X141508Y335151D01*
Y335601D01*
X141750Y335745D01*
X142008Y335841D01*
X142533Y335624D01*
X143163D01*
X143744Y335865D01*
X144190Y336310D01*
X144430Y336892D01*
Y337521D01*
X144190Y338103D01*
X143744Y338548D01*
X143163Y338789D01*
X142533D01*
X142008Y338572D01*
X141750Y338668D01*
X141508Y338812D01*
Y339607D01*
X141508Y339651D01*
Y340107D01*
X141508Y340151D01*
Y340586D01*
X142008Y340794D01*
X142049Y340752D01*
X142631Y340511D01*
X143261D01*
X143842Y340752D01*
X144288Y341197D01*
X144528Y341779D01*
Y342409D01*
X144288Y342990D01*
X143842Y343436D01*
X143261Y343677D01*
X142631D01*
X142049Y343436D01*
X142008Y343394D01*
X141508Y343601D01*
Y344607D01*
X141508Y344651D01*
Y345107D01*
X141508Y345151D01*
Y349607D01*
X141508Y349651D01*
Y350107D01*
X141508Y350151D01*
Y354607D01*
X141508Y354651D01*
Y355107D01*
X141508Y355151D01*
Y359607D01*
X141508Y359651D01*
Y360107D01*
X141508Y360151D01*
Y361461D01*
X156241D01*
X156592Y361531D01*
X156890Y361730D01*
X164746Y369587D01*
X167598D01*
Y373736D01*
X163449D01*
Y370884D01*
X155861Y363297D01*
X141508D01*
Y364607D01*
X141508Y364651D01*
Y365107D01*
X141508Y365151D01*
Y369607D01*
X141508Y369651D01*
Y370107D01*
X141508Y370151D01*
Y374607D01*
X141508Y374651D01*
Y375107D01*
X141508Y375151D01*
Y379607D01*
X141508Y379651D01*
Y380107D01*
X141508Y380151D01*
Y384607D01*
X141508Y384651D01*
Y385107D01*
X141508Y385151D01*
Y385926D01*
X142008Y386133D01*
X142104Y386037D01*
X142685Y385796D01*
X143315D01*
X143896Y386037D01*
X144342Y386483D01*
X144583Y387064D01*
Y387694D01*
X144342Y388276D01*
X143896Y388721D01*
X143315Y388962D01*
X142685D01*
X142104Y388721D01*
X142008Y388625D01*
X141508Y388832D01*
Y389651D01*
D02*
G37*
G36*
X180114Y385107D02*
X175768D01*
Y383655D01*
X173504D01*
Y384812D01*
X169354D01*
Y380662D01*
X173504D01*
Y381820D01*
X175768D01*
Y380367D01*
X180114D01*
Y385107D01*
D02*
G37*
G36*
X185232D02*
X180886D01*
Y380367D01*
X185232D01*
Y380976D01*
X185500Y381154D01*
X186130D01*
X186712Y381395D01*
X187157Y381841D01*
X187398Y382422D01*
Y383052D01*
X187157Y383634D01*
X186712Y384079D01*
X186130Y384320D01*
X185500D01*
X185232Y384499D01*
Y385107D01*
D02*
G37*
G36*
X180114Y374032D02*
X175768D01*
Y372579D01*
X173504D01*
Y373736D01*
X169354D01*
Y369587D01*
X173504D01*
Y370744D01*
X175768D01*
Y369291D01*
X180114D01*
Y374032D01*
D02*
G37*
G36*
X185232D02*
X180886D01*
Y369291D01*
X185232D01*
Y369900D01*
X185500Y370079D01*
X186130D01*
X186712Y370320D01*
X187157Y370765D01*
X187398Y371347D01*
Y371976D01*
X187157Y372558D01*
X186712Y373003D01*
X186130Y373244D01*
X185500D01*
X185232Y373423D01*
Y374032D01*
D02*
G37*
G36*
X34295Y385673D02*
X33666D01*
X33084Y385432D01*
X32639Y384987D01*
X32398Y384405D01*
Y383775D01*
X32639Y383194D01*
X32650Y383182D01*
X32443Y382682D01*
X31931D01*
Y369084D01*
X36868D01*
Y382682D01*
X35317D01*
Y383189D01*
X35322Y383194D01*
X35563Y383775D01*
Y384405D01*
X35322Y384987D01*
X34877Y385432D01*
X34295Y385673D01*
D02*
G37*
G36*
X469512Y390757D02*
X467496D01*
X465506Y390442D01*
X463589Y389819D01*
X461793Y388904D01*
X460162Y387720D01*
X458737Y386295D01*
X457552Y384664D01*
X456637Y382868D01*
X456014Y380951D01*
X455699Y378960D01*
Y376945D01*
X456014Y374954D01*
X456637Y373038D01*
X457552Y371242D01*
X458737Y369611D01*
X460162Y368186D01*
X461793Y367001D01*
X463589Y366086D01*
X465506Y365463D01*
X467496Y365148D01*
X469512D01*
X470926Y365372D01*
X471306Y365047D01*
Y361798D01*
X471376Y361447D01*
X471424Y361375D01*
Y358252D01*
X476164D01*
Y362598D01*
X473142D01*
Y365996D01*
X473419Y366086D01*
X475215Y367001D01*
X476846Y368186D01*
X478271Y369611D01*
X479456Y371242D01*
X480371Y373038D01*
X480993Y374954D01*
X481309Y376945D01*
Y378960D01*
X480993Y380951D01*
X480371Y382868D01*
X479456Y384664D01*
X478271Y386295D01*
X476846Y387720D01*
X475215Y388904D01*
X473419Y389819D01*
X471502Y390442D01*
X469512Y390757D01*
D02*
G37*
G36*
X476164Y357480D02*
X471424D01*
Y353133D01*
X472877D01*
Y351984D01*
X472452Y351560D01*
X472211Y350978D01*
Y350348D01*
X472452Y349767D01*
X472898Y349322D01*
X473479Y349081D01*
X474109D01*
X474691Y349322D01*
X475136Y349767D01*
X475377Y350348D01*
Y350978D01*
X475136Y351560D01*
X474712Y351984D01*
Y353133D01*
X476164D01*
Y357480D01*
D02*
G37*
G36*
X61638Y351873D02*
X56701D01*
Y347330D01*
X61638D01*
Y348101D01*
X62138Y348309D01*
X62186Y348260D01*
X62768Y348019D01*
X63398D01*
X63979Y348260D01*
X64425Y348705D01*
X64666Y349287D01*
Y349917D01*
X64425Y350498D01*
X63979Y350943D01*
X63398Y351185D01*
X62768D01*
X62186Y350943D01*
X62138Y350895D01*
X61638Y351102D01*
Y351873D01*
D02*
G37*
G36*
X49930D02*
X44993D01*
Y347330D01*
X49930D01*
Y348148D01*
X50430Y348355D01*
X50525Y348260D01*
X51107Y348019D01*
X51737D01*
X52318Y348260D01*
X52763Y348705D01*
X53004Y349287D01*
Y349917D01*
X52763Y350498D01*
X52318Y350943D01*
X51737Y351185D01*
X51107D01*
X50525Y350943D01*
X50430Y350848D01*
X49930Y351055D01*
Y351873D01*
D02*
G37*
G36*
X74591Y390544D02*
X64395D01*
X63936Y390354D01*
X63746Y389895D01*
Y386417D01*
X63936Y385958D01*
X65702Y384191D01*
X66161Y384001D01*
X72128D01*
X72151Y383946D01*
X72610Y383755D01*
X72974D01*
X76521Y377799D01*
X76587Y377749D01*
X76619Y377672D01*
X87999Y366292D01*
X87927Y366116D01*
Y348525D01*
X88117Y348065D01*
X88576Y347875D01*
X107125D01*
X107584Y348065D01*
X107774Y348525D01*
Y366375D01*
X107584Y366834D01*
X107125Y367024D01*
X95214D01*
X94226Y368012D01*
Y386647D01*
X94036Y387106D01*
X93576Y387297D01*
X78108D01*
X75050Y390354D01*
X74591Y390544D01*
D02*
G37*
G36*
X36868Y355910D02*
X31931D01*
Y342312D01*
X36868D01*
Y343512D01*
X37284Y343789D01*
X37349Y343763D01*
X37978D01*
X38560Y344004D01*
X39005Y344449D01*
X39246Y345030D01*
Y345660D01*
X39005Y346242D01*
X38560Y346687D01*
X37978Y346928D01*
X37349D01*
X37284Y346901D01*
X36868Y347179D01*
Y355910D01*
D02*
G37*
G36*
X174737Y355423D02*
X169800D01*
Y341825D01*
X174737D01*
Y355423D01*
D02*
G37*
G36*
X158989D02*
X154052D01*
Y341825D01*
X158989D01*
Y348357D01*
X159240Y348525D01*
X159870D01*
X160451Y348766D01*
X160897Y349211D01*
X161138Y349793D01*
Y350422D01*
X160897Y351004D01*
X160451Y351449D01*
X159870Y351690D01*
X159240D01*
X158989Y351858D01*
Y355423D01*
D02*
G37*
G36*
X42945Y333773D02*
X38402D01*
Y329623D01*
X42945D01*
Y330179D01*
X43445Y330386D01*
X43475Y330356D01*
X44056Y330115D01*
X44686D01*
X45268Y330356D01*
X45713Y330802D01*
X45954Y331383D01*
Y332013D01*
X45713Y332595D01*
X45268Y333040D01*
X44686Y333281D01*
X44056D01*
X43475Y333040D01*
X43445Y333010D01*
X42945Y333217D01*
Y333773D01*
D02*
G37*
G36*
X35477Y391998D02*
X27450D01*
X27099Y391928D01*
X26801Y391729D01*
X25565Y390493D01*
X22319D01*
Y388297D01*
X10117D01*
X9765Y388227D01*
X9468Y388028D01*
X4355Y382915D01*
X4156Y382617D01*
X4086Y382266D01*
Y371591D01*
X4156Y371240D01*
X4355Y370942D01*
X7161Y368136D01*
Y365088D01*
X11902D01*
Y369434D01*
X8493D01*
X8237Y369749D01*
X8435Y370206D01*
X11902D01*
Y373254D01*
X13612Y374965D01*
X16183D01*
Y369084D01*
X17734D01*
Y355910D01*
X16183D01*
Y342312D01*
X21120D01*
Y355910D01*
X19569D01*
Y369084D01*
X21120D01*
Y382682D01*
X16183D01*
Y376801D01*
X13232D01*
X12881Y376731D01*
X12583Y376532D01*
X10604Y374552D01*
X7161D01*
Y371385D01*
X6699Y371194D01*
X5922Y371972D01*
Y381886D01*
X10497Y386461D01*
X22319D01*
Y385556D01*
X26862D01*
Y389162D01*
X27177Y389417D01*
X27634Y389219D01*
Y385556D01*
X32177D01*
Y386178D01*
X32593Y386455D01*
X32685Y386417D01*
X33315D01*
X33896Y386658D01*
X34342Y387104D01*
X34583Y387685D01*
Y388315D01*
X34342Y388896D01*
X33896Y389342D01*
X33315Y389583D01*
X32914D01*
X32552Y389983D01*
X32532Y390045D01*
X32568Y390163D01*
X35097D01*
X48529Y376730D01*
X48827Y376531D01*
X49178Y376461D01*
X56171D01*
Y375206D01*
X60912D01*
Y376461D01*
X65705D01*
Y375151D01*
X65705Y375107D01*
Y374651D01*
X65705Y374607D01*
Y370151D01*
X65705Y370107D01*
Y369651D01*
X65705Y369607D01*
Y365151D01*
X65705Y365107D01*
Y364651D01*
X65705Y364607D01*
Y360151D01*
X65705Y360107D01*
Y359651D01*
X65705Y359607D01*
Y355151D01*
X65705Y355107D01*
Y354651D01*
X65705Y354607D01*
Y350151D01*
X65705Y350107D01*
Y349651D01*
X65705Y349607D01*
Y348172D01*
X65488Y348028D01*
X64995Y347535D01*
X64395D01*
X63814Y347294D01*
X63368Y346849D01*
X63127Y346267D01*
Y345637D01*
X63368Y345056D01*
X63814Y344610D01*
X64395Y344369D01*
X65025D01*
X65205Y344444D01*
X65705Y344110D01*
Y340151D01*
X65705Y340107D01*
X65705D01*
Y339651D01*
X65705D01*
Y338297D01*
X58364D01*
X58013Y338227D01*
X57715Y338028D01*
X54022Y334335D01*
X53422D01*
X52841Y334094D01*
X52395Y333648D01*
X52154Y333067D01*
Y332437D01*
X52395Y331856D01*
X52841Y331410D01*
X53422Y331169D01*
X54052D01*
X54633Y331410D01*
X55079Y331856D01*
X55320Y332437D01*
Y333037D01*
X58744Y336461D01*
X65705D01*
Y335107D01*
X65705D01*
Y334651D01*
X65705D01*
Y330107D01*
X65705D01*
Y329651D01*
X65705D01*
Y328259D01*
X34898D01*
Y329623D01*
X36252D01*
Y333773D01*
X31709D01*
Y329623D01*
X33063D01*
Y328598D01*
X32818Y328360D01*
X32563Y328251D01*
X32544Y328259D01*
X29819D01*
X29783Y328244D01*
X29746Y328255D01*
X29558Y328151D01*
X29360Y328069D01*
X28883Y328079D01*
X28751Y328211D01*
X28170Y328452D01*
X28104D01*
X27712Y328952D01*
X27777Y329445D01*
X27668Y330270D01*
X27350Y331038D01*
X26844Y331698D01*
X26184Y332204D01*
X25415Y332523D01*
X24590Y332631D01*
X20653D01*
X19829Y332523D01*
X19060Y332204D01*
X18400Y331698D01*
X17894Y331038D01*
X17614Y330363D01*
X13161D01*
X12881Y331038D01*
X12375Y331698D01*
X11715Y332204D01*
X10947Y332523D01*
X10122Y332631D01*
X5004D01*
X4179Y332523D01*
X3411Y332204D01*
X2751Y331698D01*
X2245Y331038D01*
X1926Y330270D01*
X1818Y329445D01*
X1926Y328620D01*
X2245Y327852D01*
X2751Y327192D01*
X3411Y326686D01*
X4179Y326367D01*
X5004Y326259D01*
X6645D01*
Y320417D01*
X3126D01*
Y315480D01*
X6645D01*
Y309394D01*
X3126D01*
Y304457D01*
X6645D01*
Y298616D01*
X5004D01*
X4179Y298507D01*
X3411Y298189D01*
X2751Y297682D01*
X2245Y297022D01*
X1926Y296254D01*
X1818Y295429D01*
X1926Y294604D01*
X2245Y293836D01*
X2751Y293176D01*
X3411Y292670D01*
X4179Y292351D01*
X5004Y292243D01*
X10122D01*
X10947Y292351D01*
X11715Y292670D01*
X12340Y293149D01*
X12590Y293103D01*
X12840Y293018D01*
X12840Y276084D01*
X12934Y275856D01*
X13028Y275627D01*
X13030Y275626D01*
X13030Y275625D01*
X13259Y275530D01*
X13487Y275435D01*
X37024Y275342D01*
Y275337D01*
X38278D01*
X59024Y275254D01*
X59144Y275303D01*
X59274Y275303D01*
X59365Y275394D01*
X59484Y275443D01*
X59996Y275588D01*
X91237Y244347D01*
X91534Y244148D01*
X91886Y244079D01*
X115463D01*
X116827Y242715D01*
X116635Y242253D01*
X113899D01*
Y237710D01*
X114760D01*
Y225889D01*
X114300Y225765D01*
X113487Y225296D01*
X112822Y224631D01*
X112353Y223818D01*
X112109Y222910D01*
Y221970D01*
X112353Y221063D01*
X112822Y220249D01*
X113487Y219585D01*
X114300Y219115D01*
X115208Y218872D01*
X116148D01*
X117055Y219115D01*
X117869Y219585D01*
X118533Y220249D01*
X119003Y221063D01*
X119246Y221970D01*
Y222910D01*
X119003Y223818D01*
X118533Y224631D01*
X117869Y225296D01*
X117055Y225765D01*
X116595Y225889D01*
Y237710D01*
X118049D01*
Y240840D01*
X118510Y241031D01*
X125253Y234289D01*
Y231633D01*
X125322Y231281D01*
X125522Y230984D01*
X132275Y224230D01*
X132037Y223818D01*
X131794Y222910D01*
Y221970D01*
X132037Y221063D01*
X132507Y220249D01*
X133172Y219585D01*
X133985Y219115D01*
X134893Y218872D01*
X135833D01*
X136740Y219115D01*
X137554Y219585D01*
X138218Y220249D01*
X138688Y221063D01*
X138931Y221970D01*
Y222910D01*
X138688Y223818D01*
X138218Y224631D01*
X137554Y225296D01*
X136740Y225765D01*
X135833Y226009D01*
X134893D01*
X133985Y225765D01*
X133573Y225528D01*
X127088Y232013D01*
Y234669D01*
X127018Y235020D01*
X126819Y235318D01*
X116492Y245645D01*
X116194Y245844D01*
X115843Y245914D01*
X92265D01*
X67133Y271047D01*
X67218Y271332D01*
X67358Y271528D01*
X69276D01*
X69856Y271643D01*
X72776D01*
Y274643D01*
X69856D01*
X69276Y274759D01*
X67945D01*
X67412Y275292D01*
X67603Y275754D01*
X104249D01*
Y267201D01*
X104439Y266742D01*
X104899Y266551D01*
X112740D01*
X112906Y266620D01*
X113083Y266649D01*
X113128Y266712D01*
X113199Y266742D01*
X113268Y266907D01*
X113373Y267053D01*
X113455Y267405D01*
X113442Y267481D01*
X113472Y267552D01*
Y268308D01*
Y284456D01*
X165313D01*
X197020Y252749D01*
X197480Y252559D01*
X211097D01*
X211191Y252598D01*
X211293Y252590D01*
X211412Y252690D01*
X211556Y252749D01*
X211595Y252844D01*
X211673Y252910D01*
X212989Y255450D01*
X213006Y255652D01*
X213054Y255848D01*
X213027Y255893D01*
X213032Y255945D01*
X212901Y256100D01*
X212796Y256273D01*
X212388Y256572D01*
X212240Y257044D01*
X212250Y257137D01*
X212312Y257245D01*
X212541Y258097D01*
Y258980D01*
X212312Y259832D01*
X211871Y260596D01*
X211247Y261221D01*
X210483Y261662D01*
X210367Y261693D01*
X210264Y261785D01*
X210072Y262253D01*
X210101Y262741D01*
X210231Y262980D01*
X210367Y263179D01*
X216468D01*
X216497Y263108D01*
X216617Y263059D01*
X216708Y262968D01*
X217170Y262776D01*
X217136Y262290D01*
X216687D01*
X215733Y262035D01*
X214877Y261541D01*
X214178Y260842D01*
X213685Y259987D01*
X213431Y259038D01*
X217181D01*
Y258538D01*
X217681D01*
Y254788D01*
X218629Y255042D01*
X219485Y255536D01*
X220183Y256235D01*
X220677Y257090D01*
X220933Y258044D01*
X221421D01*
X221677Y257090D01*
X222171Y256235D01*
X222869Y255536D01*
X223725Y255042D01*
X224673Y254788D01*
Y258538D01*
Y262289D01*
X223725Y262035D01*
X222869Y261541D01*
X222171Y260842D01*
X221677Y259987D01*
X221421Y259032D01*
X220933D01*
X220677Y259987D01*
X220183Y260842D01*
X219485Y261541D01*
X218629Y262035D01*
X217675Y262290D01*
X217679Y262789D01*
X217758Y262868D01*
X217878Y262917D01*
X218974Y264013D01*
X219139Y263848D01*
X219903Y263407D01*
X220755Y263179D01*
X221638D01*
X222490Y263407D01*
X223255Y263848D01*
X223879Y264472D01*
X224320Y265237D01*
X224549Y266089D01*
Y266972D01*
X224320Y267824D01*
X223879Y268589D01*
X223255Y269213D01*
X222490Y269654D01*
X221638Y269882D01*
X220755D01*
X219903Y269654D01*
X219597Y269478D01*
X219164Y269727D01*
Y275625D01*
X218974Y276084D01*
X218514Y276274D01*
X211823D01*
X192698Y295400D01*
X192239Y295590D01*
X90383D01*
X90212Y295519D01*
X79107Y306624D01*
X78648Y306815D01*
X70996Y306815D01*
Y320107D01*
X72610D01*
Y324251D01*
X73110Y324553D01*
X73438Y324417D01*
X74068D01*
X74491Y324593D01*
X74752Y324423D01*
X74910Y324279D01*
X74917Y324269D01*
Y323685D01*
X75158Y323103D01*
X75603Y322658D01*
X76185Y322417D01*
X76815D01*
X77397Y322658D01*
X77842Y323103D01*
X78083Y323685D01*
Y324315D01*
X77842Y324897D01*
X77418Y325321D01*
Y326812D01*
X77728Y327121D01*
X77926Y327419D01*
X77996Y327770D01*
Y367737D01*
X77926Y368089D01*
X77728Y368386D01*
X73086Y373028D01*
X72788Y373227D01*
X72610Y373262D01*
Y374607D01*
X72610Y374651D01*
Y375107D01*
X72610Y375151D01*
Y379651D01*
X65705D01*
Y378297D01*
X60912D01*
Y379552D01*
X56171D01*
Y378297D01*
X49558D01*
X36125Y391729D01*
X35828Y391928D01*
X35477Y391998D01*
D02*
G37*
G36*
X108378Y320911D02*
Y320911D01*
X108335Y320911D01*
X103835D01*
X103835Y320911D01*
X103378D01*
Y320911D01*
X103335Y320911D01*
X98835D01*
X98835Y320911D01*
X98378D01*
Y320911D01*
X98335Y320911D01*
X93835D01*
X93835Y320911D01*
X93378D01*
Y320911D01*
X93335Y320911D01*
X88835D01*
X88835Y320911D01*
X88378D01*
Y320911D01*
X88335Y320911D01*
X83835D01*
X83835Y320911D01*
X83378D01*
Y320911D01*
X83335Y320911D01*
X78835D01*
X78835Y320911D01*
X78378D01*
Y320911D01*
X78335Y320911D01*
X73835D01*
Y314005D01*
X77080D01*
X77435Y313650D01*
X77599Y313406D01*
X94363Y296641D01*
X94661Y296442D01*
X95012Y296372D01*
X211754D01*
X220856Y287269D01*
Y284221D01*
X224265D01*
X224521Y283906D01*
X224323Y283449D01*
X220856D01*
Y282193D01*
X218257D01*
Y283449D01*
X213517D01*
Y279102D01*
X218257D01*
Y280358D01*
X220856D01*
Y279102D01*
X222309D01*
Y272493D01*
X222379Y272141D01*
X222578Y271844D01*
X226260Y268162D01*
X226065Y267824D01*
X225837Y266972D01*
Y266089D01*
X226065Y265237D01*
X226507Y264472D01*
X227131Y263848D01*
X227895Y263407D01*
X228748Y263179D01*
X229630D01*
X230483Y263407D01*
X231247Y263848D01*
X231871Y264472D01*
X232312Y265237D01*
X232541Y266089D01*
Y266972D01*
X232312Y267824D01*
X231871Y268589D01*
X231247Y269213D01*
X230483Y269654D01*
X229630Y269882D01*
X228748D01*
X227895Y269654D01*
X227558Y269459D01*
X224144Y272873D01*
Y279102D01*
X225597D01*
Y279273D01*
X226097Y279480D01*
X229616Y275960D01*
X229914Y275761D01*
X230265Y275692D01*
X233475D01*
X233899Y275267D01*
X234481Y275026D01*
X235111D01*
X235693Y275267D01*
X236138Y275713D01*
X236379Y276294D01*
Y276924D01*
X236138Y277506D01*
X235693Y277951D01*
X235111Y278192D01*
X234481D01*
X233899Y277951D01*
X233475Y277527D01*
X230645D01*
X229418Y278755D01*
X229609Y279217D01*
X232936D01*
Y280472D01*
X235536D01*
Y279236D01*
X236988D01*
Y274195D01*
X237058Y273844D01*
X237257Y273547D01*
X240614Y270189D01*
Y268287D01*
X240114Y268153D01*
X239863Y268589D01*
X239239Y269213D01*
X238475Y269654D01*
X237622Y269882D01*
X236739D01*
X235887Y269654D01*
X235123Y269213D01*
X234499Y268589D01*
X234057Y267824D01*
X233829Y266972D01*
Y266089D01*
X234057Y265237D01*
X234499Y264472D01*
X235123Y263848D01*
X235887Y263407D01*
X236083Y263354D01*
X236172Y262813D01*
X236080Y262751D01*
X234796Y261467D01*
X234459Y261662D01*
X233606Y261890D01*
X232724D01*
X231871Y261662D01*
X231107Y261221D01*
X230483Y260596D01*
X230042Y259832D01*
X229813Y258980D01*
Y258097D01*
X230042Y257245D01*
X230483Y256480D01*
X231107Y255856D01*
X231871Y255415D01*
X232724Y255186D01*
X233606D01*
X234459Y255415D01*
X235223Y255856D01*
X235847Y256480D01*
X236288Y257245D01*
X236517Y258097D01*
Y258980D01*
X236288Y259832D01*
X236094Y260170D01*
X237109Y261185D01*
X238906D01*
X239257Y261255D01*
X239369Y261330D01*
X239555Y261454D01*
X242181Y264079D01*
X242380Y264377D01*
X242380Y264377D01*
X242450Y264728D01*
Y270569D01*
X242380Y270920D01*
X242181Y271218D01*
X238823Y274575D01*
Y279236D01*
X240276D01*
Y283583D01*
X235536D01*
Y282307D01*
X232936D01*
Y283563D01*
X228196D01*
Y280780D01*
X227720Y280571D01*
X227439Y280797D01*
Y283296D01*
X227369Y283647D01*
X227170Y283945D01*
X225597Y285518D01*
Y288567D01*
X222154D01*
X213711Y297010D01*
X213902Y297472D01*
X218107D01*
X228196Y287384D01*
Y284335D01*
X232936D01*
Y285590D01*
X233336D01*
X233511Y285625D01*
X233687Y285660D01*
X233687Y285660D01*
X233687Y285660D01*
X233823Y285751D01*
X233985Y285859D01*
X235110Y286984D01*
X235110Y286984D01*
X235110Y286984D01*
X235169Y287072D01*
X235309Y287281D01*
X235309Y287281D01*
X235309Y287281D01*
X235341Y287446D01*
X235378Y287632D01*
X235378Y287632D01*
X235378Y287633D01*
Y287784D01*
X238068Y290473D01*
X246231D01*
X246438Y289973D01*
X246194Y289728D01*
X245953Y289147D01*
Y288517D01*
X246194Y287935D01*
X246639Y287490D01*
X247220Y287249D01*
X247667D01*
X247715Y287222D01*
X248000Y286897D01*
X248046Y286789D01*
X248022Y286666D01*
Y286266D01*
X247311Y285555D01*
X247167D01*
X246585Y285314D01*
X246140Y284869D01*
X245899Y284287D01*
Y283658D01*
X246140Y283076D01*
X246585Y282631D01*
X247167Y282390D01*
X247797D01*
X248378Y282631D01*
X248823Y283076D01*
X249064Y283658D01*
Y284287D01*
X248940Y284588D01*
X249320Y284968D01*
X252831D01*
X253179Y285037D01*
X253475Y285235D01*
X253673Y285530D01*
X253742Y285879D01*
Y286666D01*
X253673Y287015D01*
X253475Y287311D01*
Y287794D01*
X253673Y288089D01*
X253742Y288438D01*
Y289226D01*
X253673Y289574D01*
X253475Y289870D01*
Y290353D01*
X253673Y290648D01*
X253742Y290997D01*
Y291785D01*
X253673Y292133D01*
X253475Y292429D01*
X253179Y292626D01*
X252831Y292696D01*
X248933D01*
X248584Y292626D01*
X248289Y292429D01*
X248208Y292308D01*
X237688D01*
X237337Y292238D01*
X237039Y292040D01*
X233812Y288812D01*
X233613Y288515D01*
X233587Y288384D01*
X233436Y288281D01*
X232941Y288542D01*
X232936Y288551D01*
Y288681D01*
X229494D01*
X220065Y298110D01*
X220256Y298572D01*
X278902D01*
X290205Y287269D01*
Y284220D01*
X293614D01*
X293869Y283906D01*
X293671Y283449D01*
X290205D01*
Y282193D01*
X288203D01*
Y283449D01*
X283463D01*
Y279102D01*
X288203D01*
Y280358D01*
X290205D01*
Y279102D01*
X293647D01*
X294427Y278322D01*
X294611Y278047D01*
X297780Y274879D01*
Y269416D01*
X297403Y269315D01*
X296639Y268874D01*
X296015Y268250D01*
X295574Y267485D01*
X295345Y266633D01*
Y265750D01*
X295574Y264898D01*
X296015Y264133D01*
X296639Y263509D01*
X297403Y263068D01*
X298256Y262840D01*
X299138D01*
X299991Y263068D01*
X300755Y263509D01*
X301379Y264133D01*
X301821Y264898D01*
X302049Y265750D01*
Y266633D01*
X301821Y267485D01*
X301379Y268250D01*
X300755Y268874D01*
X299991Y269315D01*
X299615Y269416D01*
Y275259D01*
X299545Y275610D01*
X299346Y275908D01*
X299111Y276142D01*
X299303Y276604D01*
X305459D01*
X305883Y276180D01*
X306465Y275939D01*
X307094D01*
X307676Y276180D01*
X308121Y276625D01*
X308362Y277207D01*
X308862Y277372D01*
X310123Y276112D01*
Y267948D01*
X309623Y267814D01*
X309371Y268250D01*
X308747Y268874D01*
X307983Y269315D01*
X307131Y269544D01*
X306248D01*
X305395Y269315D01*
X304631Y268874D01*
X304007Y268250D01*
X303566Y267485D01*
X303337Y266633D01*
Y265750D01*
X303566Y264898D01*
X304007Y264133D01*
X304631Y263509D01*
X305395Y263068D01*
X305591Y263016D01*
X305681Y262474D01*
X305589Y262412D01*
X304305Y261128D01*
X303967Y261323D01*
X303115Y261551D01*
X302232D01*
X301380Y261323D01*
X300616Y260882D01*
X299991Y260258D01*
X299550Y259493D01*
X299322Y258641D01*
Y257758D01*
X299550Y256906D01*
X299991Y256141D01*
X300616Y255517D01*
X301380Y255076D01*
X302232Y254848D01*
X303115D01*
X303967Y255076D01*
X304732Y255517D01*
X305356Y256141D01*
X305797Y256906D01*
X306026Y257758D01*
Y258641D01*
X305797Y259493D01*
X305602Y259831D01*
X306618Y260846D01*
X308415D01*
X308766Y260916D01*
X309064Y261115D01*
X311689Y263740D01*
X311888Y264038D01*
X311958Y264389D01*
Y276492D01*
X311888Y276843D01*
X311689Y277140D01*
X308430Y280400D01*
Y283449D01*
X303690D01*
Y282193D01*
X301688D01*
Y283449D01*
X297013D01*
X297009Y283454D01*
X296945Y283518D01*
X296945Y283722D01*
X297443Y284220D01*
X301688D01*
Y287269D01*
X304891Y290473D01*
X314030D01*
X314237Y289973D01*
X313992Y289728D01*
X313751Y289146D01*
Y288517D01*
X313992Y287935D01*
X314277Y287649D01*
X314237Y287431D01*
X314000Y287010D01*
X313371D01*
X312789Y286769D01*
X312344Y286323D01*
X312103Y285742D01*
Y285112D01*
X312344Y284530D01*
X312789Y284085D01*
X313371Y283844D01*
X314000D01*
X314582Y284085D01*
X315027Y284530D01*
X315268Y285112D01*
Y285355D01*
X316006D01*
X316087Y285234D01*
X316382Y285037D01*
X316731Y284968D01*
X320629D01*
X320977Y285037D01*
X321273Y285234D01*
X321470Y285530D01*
X321540Y285879D01*
Y286666D01*
X321470Y287015D01*
X321273Y287311D01*
Y287794D01*
X321470Y288089D01*
X321540Y288438D01*
Y289226D01*
X321470Y289574D01*
X321273Y289870D01*
Y290353D01*
X321470Y290648D01*
X321540Y290997D01*
Y291785D01*
X321470Y292133D01*
X321273Y292429D01*
X320977Y292626D01*
X320629Y292696D01*
X316731D01*
X316382Y292626D01*
X316087Y292429D01*
X316006Y292308D01*
X304511D01*
X304160Y292238D01*
X303863Y292040D01*
X300390Y288567D01*
X296947D01*
Y288567D01*
X296523Y288749D01*
X296370Y288977D01*
X285047Y300301D01*
X285238Y300763D01*
X346804D01*
X359577Y287989D01*
Y287228D01*
X359647Y286877D01*
X359846Y286579D01*
X360630Y285794D01*
X360928Y285596D01*
X361279Y285526D01*
X361679D01*
Y284270D01*
X365088D01*
X365344Y283956D01*
X365146Y283498D01*
X361679D01*
Y282193D01*
X359760D01*
Y283449D01*
X355020D01*
Y279102D01*
X359760D01*
Y280358D01*
X361679D01*
Y279152D01*
X365122D01*
X366029Y278245D01*
X366041Y278227D01*
X368897Y275371D01*
Y269416D01*
X368521Y269315D01*
X367757Y268874D01*
X367133Y268250D01*
X366691Y267485D01*
X366463Y266633D01*
Y265750D01*
X366691Y264898D01*
X367133Y264133D01*
X367757Y263509D01*
X368521Y263068D01*
X369373Y262840D01*
X370256D01*
X371109Y263068D01*
X371873Y263509D01*
X372497Y264133D01*
X372938Y264898D01*
X373167Y265750D01*
Y266633D01*
X372938Y267485D01*
X372497Y268250D01*
X371873Y268874D01*
X371109Y269315D01*
X370732Y269416D01*
Y275751D01*
X370692Y275954D01*
X370924Y276354D01*
X371028Y276454D01*
X371800D01*
X372224Y276030D01*
X372806Y275789D01*
X373436D01*
X374017Y276030D01*
X374463Y276476D01*
X374704Y277057D01*
Y277687D01*
X374463Y278269D01*
X374017Y278714D01*
X373475Y278938D01*
X373117Y279282D01*
Y280537D01*
X374962D01*
Y279395D01*
X376415D01*
Y274705D01*
X376485Y274354D01*
X376684Y274056D01*
X381240Y269499D01*
Y267948D01*
X380740Y267814D01*
X380489Y268250D01*
X379865Y268874D01*
X379101Y269315D01*
X378248Y269544D01*
X377365D01*
X376513Y269315D01*
X375749Y268874D01*
X375125Y268250D01*
X374683Y267485D01*
X374455Y266633D01*
Y265750D01*
X374683Y264898D01*
X375125Y264133D01*
X375749Y263509D01*
X376513Y263068D01*
X376709Y263016D01*
X376798Y262474D01*
X376706Y262412D01*
X375422Y261128D01*
X375085Y261323D01*
X374232Y261551D01*
X373350D01*
X372497Y261323D01*
X371733Y260882D01*
X371109Y260258D01*
X370668Y259493D01*
X370439Y258641D01*
Y257758D01*
X370668Y256906D01*
X371109Y256141D01*
X371733Y255517D01*
X372497Y255076D01*
X373350Y254848D01*
X374232D01*
X375085Y255076D01*
X375849Y255517D01*
X376473Y256141D01*
X376915Y256906D01*
X377143Y257758D01*
Y258641D01*
X376915Y259493D01*
X376720Y259831D01*
X377735Y260846D01*
X379532D01*
X379883Y260916D01*
X380181Y261115D01*
X382807Y263740D01*
X383006Y264038D01*
X383076Y264389D01*
Y269879D01*
X383006Y270230D01*
X382807Y270528D01*
X378250Y275085D01*
Y279395D01*
X379702D01*
Y283741D01*
X374962D01*
Y282373D01*
X373117D01*
Y283628D01*
X368377D01*
X368377Y283628D01*
Y283628D01*
X368035Y283953D01*
X366420Y285568D01*
Y288617D01*
X361679D01*
Y288617D01*
X361268Y288832D01*
X361144Y289018D01*
X348752Y301410D01*
X348943Y301872D01*
X354707D01*
X356638Y299941D01*
X356935Y299742D01*
X357287Y299672D01*
X358799D01*
X369263Y289208D01*
X369071Y288746D01*
X368377D01*
Y284400D01*
X373117D01*
Y287449D01*
X376059Y290390D01*
X384853D01*
X384952Y289890D01*
X384697Y289785D01*
X384252Y289340D01*
X384011Y288758D01*
Y288128D01*
X384252Y287547D01*
X384697Y287101D01*
X385279Y286860D01*
X385366D01*
X385700Y286360D01*
X385594Y286104D01*
Y285475D01*
X385835Y284893D01*
X386280Y284448D01*
X386862Y284207D01*
X387492D01*
X388073Y284448D01*
X388519Y284893D01*
X388520Y284896D01*
X388575Y284885D01*
X392472D01*
X392821Y284954D01*
X393117Y285152D01*
X393314Y285448D01*
X393384Y285796D01*
Y286584D01*
X393314Y286932D01*
X393117Y287228D01*
Y287711D01*
X393314Y288007D01*
X393384Y288355D01*
Y289143D01*
X393314Y289491D01*
X393117Y289787D01*
Y290270D01*
X393314Y290566D01*
X393384Y290914D01*
Y291702D01*
X393314Y292050D01*
X393117Y292346D01*
X392821Y292544D01*
X392472Y292613D01*
X388575D01*
X388226Y292544D01*
X387930Y292346D01*
X387850Y292226D01*
X375679D01*
X375328Y292156D01*
X375030Y291957D01*
X372146Y289073D01*
X371619Y289253D01*
X371595Y289373D01*
X371396Y289670D01*
X359828Y301239D01*
X359530Y301438D01*
X359179Y301507D01*
X357667D01*
X356664Y302510D01*
X356855Y302972D01*
X415580D01*
X431104Y287449D01*
Y284400D01*
X434512D01*
X434768Y284085D01*
X434569Y283628D01*
X431104D01*
Y282373D01*
X429391D01*
Y283628D01*
X424650D01*
Y279282D01*
X429391D01*
Y280537D01*
X431104D01*
Y279282D01*
X434547D01*
X434678Y279151D01*
Y278809D01*
X434748Y278458D01*
X434946Y278160D01*
X439178Y273928D01*
Y269351D01*
X438802Y269250D01*
X438038Y268809D01*
X437414Y268185D01*
X436973Y267421D01*
X436744Y266568D01*
Y265686D01*
X436973Y264833D01*
X437414Y264069D01*
X438038Y263445D01*
X438802Y263003D01*
X439655Y262775D01*
X440537D01*
X441390Y263003D01*
X442154Y263445D01*
X442778Y264069D01*
X443220Y264833D01*
X443448Y265686D01*
Y266568D01*
X443220Y267421D01*
X442778Y268185D01*
X442154Y268809D01*
X441390Y269250D01*
X441014Y269351D01*
Y274308D01*
X440944Y274659D01*
X440745Y274957D01*
X438951Y276751D01*
X439142Y277213D01*
X440027D01*
X440451Y276789D01*
X441033Y276548D01*
X441663D01*
X442244Y276789D01*
X442690Y277234D01*
X442931Y277816D01*
Y278445D01*
X442690Y279027D01*
X442244Y279472D01*
X442023Y279564D01*
Y280470D01*
X443445D01*
Y279282D01*
X444898D01*
Y275515D01*
X444967Y275164D01*
X445166Y274866D01*
X451522Y268511D01*
Y267884D01*
X451022Y267750D01*
X450770Y268185D01*
X450146Y268809D01*
X449382Y269250D01*
X448529Y269479D01*
X447647D01*
X446794Y269250D01*
X446030Y268809D01*
X445406Y268185D01*
X444965Y267421D01*
X444736Y266568D01*
Y265686D01*
X444965Y264833D01*
X445406Y264069D01*
X446030Y263445D01*
X446794Y263003D01*
X446990Y262951D01*
X447080Y262409D01*
X446988Y262348D01*
X445704Y261064D01*
X445366Y261259D01*
X444514Y261487D01*
X443631D01*
X442779Y261259D01*
X442014Y260817D01*
X441390Y260193D01*
X440949Y259429D01*
X440720Y258576D01*
Y257694D01*
X440949Y256841D01*
X441390Y256077D01*
X442014Y255453D01*
X442779Y255011D01*
X443631Y254783D01*
X444514D01*
X445366Y255011D01*
X446131Y255453D01*
X446755Y256077D01*
X447196Y256841D01*
X447424Y257694D01*
Y258576D01*
X447196Y259429D01*
X447001Y259766D01*
X448017Y260781D01*
X449814D01*
X450165Y260851D01*
X450462Y261050D01*
X453088Y263676D01*
X453287Y263973D01*
X453357Y264325D01*
Y268891D01*
X453287Y269242D01*
X453088Y269540D01*
X446733Y275895D01*
Y279282D01*
X448185D01*
Y283628D01*
X443445D01*
Y282306D01*
X442023D01*
Y283561D01*
X437933D01*
X437705Y283876D01*
X437700Y283897D01*
X438033Y284333D01*
X442023D01*
Y287382D01*
X445114Y290473D01*
X451833D01*
X452040Y289973D01*
X451795Y289728D01*
X451554Y289146D01*
Y288517D01*
X451795Y287935D01*
X452240Y287490D01*
X452822Y287249D01*
X453268D01*
X453317Y287222D01*
X453602Y286896D01*
X453648Y286789D01*
X453623Y286666D01*
Y286265D01*
X452696Y285338D01*
X452497Y285041D01*
X452486Y284982D01*
X452187Y284858D01*
X451742Y284413D01*
X451501Y283831D01*
Y283202D01*
X451742Y282620D01*
X452187Y282175D01*
X452768Y281934D01*
X453398D01*
X453980Y282175D01*
X454425Y282620D01*
X454666Y283202D01*
Y283831D01*
X454425Y284413D01*
X454396Y284442D01*
X454921Y284968D01*
X458432D01*
X458781Y285037D01*
X459076Y285234D01*
X459274Y285530D01*
X459343Y285879D01*
Y286666D01*
X459274Y287015D01*
X459076Y287311D01*
Y287794D01*
X459274Y288089D01*
X459343Y288438D01*
Y289225D01*
X459274Y289574D01*
X459076Y289870D01*
Y290353D01*
X459274Y290648D01*
X459343Y290997D01*
Y291784D01*
X459274Y292133D01*
X459076Y292429D01*
X458781Y292626D01*
X458432Y292695D01*
X454534D01*
X454186Y292626D01*
X453890Y292429D01*
X453810Y292308D01*
X444734D01*
X444383Y292238D01*
X444085Y292039D01*
X440725Y288679D01*
X438581D01*
X421611Y305649D01*
X421313Y305848D01*
X420962Y305918D01*
X127909D01*
X127810Y306418D01*
X128033Y306510D01*
X128479Y306956D01*
X128720Y307537D01*
Y308167D01*
X128479Y308749D01*
X128033Y309194D01*
X127452Y309435D01*
X126852D01*
X125880Y310407D01*
X126087Y310907D01*
X126429D01*
X127011Y311148D01*
X127456Y311593D01*
X127697Y312175D01*
Y312804D01*
X127456Y313386D01*
X127337Y313505D01*
X127544Y314005D01*
X128335D01*
X128378Y314005D01*
X128835D01*
X128878Y314005D01*
X129908D01*
X130147Y313537D01*
X129906Y312955D01*
Y312326D01*
X130147Y311744D01*
X130593Y311299D01*
X131174Y311058D01*
X131804D01*
X132386Y311299D01*
X132831Y311744D01*
X133072Y312326D01*
Y312955D01*
X132831Y313537D01*
X133070Y314005D01*
X133378D01*
Y320911D01*
X128878D01*
X128835Y320911D01*
X128378D01*
X128335Y320911D01*
X123878D01*
X123835Y320911D01*
X123378D01*
X123335Y320911D01*
X118878D01*
X118835Y320911D01*
Y320911D01*
X118378D01*
Y320911D01*
X113835D01*
Y320911D01*
X113378D01*
Y320911D01*
X113335Y320911D01*
X108835D01*
X108835Y320911D01*
X108378D01*
D02*
G37*
G36*
X262102Y290414D02*
X261472D01*
X260891Y290174D01*
X260766Y290049D01*
X260738Y290067D01*
X260390Y290137D01*
X256492D01*
X256143Y290067D01*
X255848Y289870D01*
X255650Y289574D01*
X255581Y289226D01*
Y288438D01*
X255650Y288089D01*
X255848Y287794D01*
X256143Y287596D01*
X256492Y287527D01*
X260390D01*
X260738Y287596D01*
X260766Y287615D01*
X260891Y287490D01*
X261472Y287249D01*
X262102D01*
X262684Y287490D01*
X263129Y287935D01*
X263370Y288517D01*
Y289147D01*
X263129Y289728D01*
X262684Y290174D01*
X262102Y290414D01*
D02*
G37*
G36*
X329900Y290414D02*
X329271D01*
X328689Y290173D01*
X328564Y290049D01*
X328536Y290067D01*
X328188Y290137D01*
X324290D01*
X323941Y290067D01*
X323646Y289870D01*
X323448Y289574D01*
X323379Y289226D01*
Y288438D01*
X323448Y288089D01*
X323646Y287794D01*
X323941Y287596D01*
X324290Y287527D01*
X328188D01*
X328536Y287596D01*
X328564Y287615D01*
X328689Y287490D01*
X329271Y287249D01*
X329900D01*
X330482Y287490D01*
X330927Y287935D01*
X331168Y288517D01*
Y289146D01*
X330927Y289728D01*
X330482Y290173D01*
X329900Y290414D01*
D02*
G37*
G36*
X467703Y290414D02*
X467074D01*
X466492Y290173D01*
X466367Y290049D01*
X466340Y290067D01*
X465991Y290137D01*
X462093D01*
X461745Y290067D01*
X461449Y289870D01*
X461251Y289574D01*
X461182Y289225D01*
Y288438D01*
X461251Y288089D01*
X461449Y287794D01*
X461745Y287596D01*
X462093Y287527D01*
X465991D01*
X466340Y287596D01*
X466367Y287614D01*
X466492Y287490D01*
X467074Y287249D01*
X467703D01*
X468285Y287490D01*
X468730Y287935D01*
X468971Y288517D01*
Y289146D01*
X468730Y289728D01*
X468285Y290173D01*
X467703Y290414D01*
D02*
G37*
G36*
X400864Y290332D02*
X400234D01*
X399652Y290091D01*
X399616Y290054D01*
X396134D01*
X395785Y289984D01*
X395490Y289787D01*
X395292Y289491D01*
X395223Y289143D01*
Y288355D01*
X395292Y288007D01*
X395490Y287711D01*
X395785Y287513D01*
X396134Y287444D01*
X399616D01*
X399652Y287407D01*
X400234Y287166D01*
X400864D01*
X401445Y287407D01*
X401891Y287852D01*
X402132Y288434D01*
Y289064D01*
X401891Y289646D01*
X401445Y290091D01*
X400864Y290332D01*
D02*
G37*
G36*
X409600Y289652D02*
X404663D01*
Y285109D01*
X405501D01*
X405548Y285038D01*
Y284408D01*
X405790Y283827D01*
X406235Y283381D01*
X406816Y283140D01*
X407446D01*
X408028Y283381D01*
X408473Y283827D01*
X408714Y284408D01*
Y285038D01*
X408761Y285109D01*
X409600D01*
Y289652D01*
D02*
G37*
G36*
X475366Y289569D02*
X470429D01*
Y285026D01*
X471268D01*
X471315Y284955D01*
Y284326D01*
X471556Y283744D01*
X472001Y283299D01*
X472583Y283058D01*
X473212D01*
X473794Y283299D01*
X474239Y283744D01*
X474480Y284326D01*
Y284955D01*
X474528Y285026D01*
X475366D01*
Y289569D01*
D02*
G37*
G36*
X269347Y289484D02*
X264410D01*
Y284941D01*
X265248D01*
X265296Y284870D01*
Y284240D01*
X265537Y283658D01*
X265982Y283213D01*
X266564Y282972D01*
X267193D01*
X267775Y283213D01*
X268220Y283658D01*
X268461Y284240D01*
Y284870D01*
X268509Y284941D01*
X269347D01*
Y289484D01*
D02*
G37*
G36*
X337051Y288591D02*
X332114D01*
Y284048D01*
X332952D01*
X332999Y283977D01*
Y283347D01*
X333241Y282766D01*
X333686Y282320D01*
X334267Y282080D01*
X334897D01*
X335479Y282320D01*
X335924Y282766D01*
X336165Y283347D01*
Y283977D01*
X336212Y284048D01*
X337051D01*
Y288591D01*
D02*
G37*
G36*
X362264Y269544D02*
X361381D01*
X360529Y269315D01*
X359764Y268874D01*
X359140Y268250D01*
X358699Y267485D01*
X358471Y266633D01*
Y265750D01*
X358699Y264898D01*
X359140Y264133D01*
X359764Y263509D01*
X360529Y263068D01*
X361381Y262840D01*
X362264D01*
X363116Y263068D01*
X363881Y263509D01*
X364505Y264133D01*
X364946Y264898D01*
X365175Y265750D01*
Y266633D01*
X364946Y267485D01*
X364505Y268250D01*
X363881Y268874D01*
X363116Y269315D01*
X362264Y269544D01*
D02*
G37*
G36*
X291146D02*
X290264D01*
X289411Y269315D01*
X288647Y268874D01*
X288023Y268250D01*
X287581Y267485D01*
X287353Y266633D01*
Y265750D01*
X287581Y264898D01*
X288023Y264133D01*
X288647Y263509D01*
X289411Y263068D01*
X290264Y262840D01*
X291146D01*
X291999Y263068D01*
X292763Y263509D01*
X293387Y264133D01*
X293829Y264898D01*
X294057Y265750D01*
Y266633D01*
X293829Y267485D01*
X293387Y268250D01*
X292763Y268874D01*
X291999Y269315D01*
X291146Y269544D01*
D02*
G37*
G36*
X432545Y269479D02*
X431663D01*
X430810Y269250D01*
X430046Y268809D01*
X429422Y268185D01*
X428980Y267421D01*
X428752Y266568D01*
Y265686D01*
X428980Y264833D01*
X429422Y264069D01*
X430046Y263445D01*
X430810Y263003D01*
X431663Y262775D01*
X432545D01*
X433398Y263003D01*
X434162Y263445D01*
X434786Y264069D01*
X435227Y264833D01*
X435456Y265686D01*
Y266568D01*
X435227Y267421D01*
X434786Y268185D01*
X434162Y268809D01*
X433398Y269250D01*
X432545Y269479D01*
D02*
G37*
G36*
X357182Y269544D02*
X350478D01*
Y262840D01*
X351517D01*
X351709Y262378D01*
X350750Y261419D01*
X350256Y261551D01*
X349374D01*
X348521Y261323D01*
X347757Y260882D01*
X347133Y260258D01*
X346691Y259493D01*
X346463Y258641D01*
Y257758D01*
X346691Y256906D01*
X347133Y256141D01*
X347757Y255517D01*
X348521Y255076D01*
X349374Y254848D01*
X350256D01*
X351109Y255076D01*
X351873Y255517D01*
X352497Y256141D01*
X352938Y256906D01*
X353167Y257758D01*
Y258641D01*
X353034Y259135D01*
X353987Y260087D01*
X354387Y259780D01*
X354310Y259648D01*
X354057Y258700D01*
X357307D01*
Y261950D01*
X356359Y261696D01*
X355743Y261340D01*
X355542Y261463D01*
X355340Y261685D01*
X355446Y262215D01*
Y262840D01*
X357182D01*
Y269544D01*
D02*
G37*
G36*
X286065D02*
X279361D01*
Y262840D01*
X280400D01*
X280591Y262378D01*
X279632Y261419D01*
X279138Y261551D01*
X278256D01*
X277403Y261323D01*
X276639Y260882D01*
X276015Y260258D01*
X275574Y259493D01*
X275345Y258641D01*
Y257758D01*
X275574Y256906D01*
X276015Y256141D01*
X276639Y255517D01*
X277403Y255076D01*
X278256Y254848D01*
X279138D01*
X279991Y255076D01*
X280755Y255517D01*
X281379Y256141D01*
X281821Y256906D01*
X282049Y257758D01*
Y258641D01*
X281917Y259135D01*
X282869Y260087D01*
X283270Y259780D01*
X283193Y259648D01*
X282939Y258700D01*
X286189D01*
Y261950D01*
X285241Y261696D01*
X284625Y261340D01*
X284425Y261463D01*
X284223Y261685D01*
X284328Y262215D01*
Y262840D01*
X286065D01*
Y269544D01*
D02*
G37*
G36*
X427464Y269479D02*
X420760D01*
Y262775D01*
X421798D01*
X421990Y262313D01*
X421031Y261355D01*
X420537Y261487D01*
X419655D01*
X418802Y261259D01*
X418038Y260817D01*
X417414Y260193D01*
X416972Y259429D01*
X416744Y258576D01*
Y257694D01*
X416972Y256841D01*
X417414Y256077D01*
X418038Y255453D01*
X418802Y255011D01*
X419655Y254783D01*
X420537D01*
X421390Y255011D01*
X422154Y255453D01*
X422778Y256077D01*
X423219Y256841D01*
X423448Y257694D01*
Y258576D01*
X423316Y259070D01*
X424268Y260023D01*
X424668Y259716D01*
X424592Y259583D01*
X424338Y258635D01*
X427588D01*
Y261885D01*
X426640Y261631D01*
X426024Y261276D01*
X425823Y261399D01*
X425622Y261621D01*
X425727Y262151D01*
Y262775D01*
X427464D01*
Y269479D01*
D02*
G37*
G36*
X176898Y267795D02*
X175958D01*
X175050Y267552D01*
X174237Y267082D01*
X173572Y266418D01*
X173102Y265604D01*
X172859Y264697D01*
Y263757D01*
X173102Y262849D01*
X173572Y262036D01*
X174237Y261371D01*
X175050Y260901D01*
X175958Y260658D01*
X176898D01*
X177805Y260901D01*
X178619Y261371D01*
X179283Y262036D01*
X179753Y262849D01*
X179996Y263757D01*
Y264697D01*
X179753Y265604D01*
X179283Y266418D01*
X178619Y267082D01*
X177805Y267552D01*
X176898Y267795D01*
D02*
G37*
G36*
X167055D02*
X166116D01*
X165208Y267552D01*
X164394Y267082D01*
X163730Y266418D01*
X163260Y265604D01*
X163017Y264697D01*
Y263757D01*
X163260Y262849D01*
X163730Y262036D01*
X164394Y261371D01*
X165208Y260901D01*
X166116Y260658D01*
X167055D01*
X167963Y260901D01*
X168777Y261371D01*
X169441Y262036D01*
X169911Y262849D01*
X170154Y263757D01*
Y264697D01*
X169911Y265604D01*
X169441Y266418D01*
X168777Y267082D01*
X167963Y267552D01*
X167055Y267795D01*
D02*
G37*
G36*
X157213D02*
X156273D01*
X155365Y267552D01*
X154552Y267082D01*
X153887Y266418D01*
X153418Y265604D01*
X153174Y264697D01*
Y263757D01*
X153418Y262849D01*
X153887Y262036D01*
X154552Y261371D01*
X155365Y260901D01*
X156273Y260658D01*
X157213D01*
X158120Y260901D01*
X158934Y261371D01*
X159598Y262036D01*
X160068Y262849D01*
X160311Y263757D01*
Y264697D01*
X160068Y265604D01*
X159598Y266418D01*
X158934Y267082D01*
X158120Y267552D01*
X157213Y267795D01*
D02*
G37*
G36*
X150469D02*
X143332D01*
Y260658D01*
X150469D01*
Y267795D01*
D02*
G37*
G36*
X225673Y262289D02*
Y259038D01*
X228923D01*
X228669Y259987D01*
X228175Y260842D01*
X227477Y261541D01*
X226621Y262035D01*
X225673Y262289D01*
D02*
G37*
G36*
X366299Y261950D02*
Y258700D01*
X369549D01*
X369295Y259648D01*
X368801Y260503D01*
X368103Y261202D01*
X367247Y261696D01*
X366299Y261950D01*
D02*
G37*
G36*
X295181D02*
Y258700D01*
X298432D01*
X298178Y259648D01*
X297684Y260503D01*
X296985Y261202D01*
X296130Y261696D01*
X295181Y261950D01*
D02*
G37*
G36*
X365299D02*
X364351Y261696D01*
X363495Y261202D01*
X362797Y260503D01*
X362303Y259648D01*
X362047Y258694D01*
X361559D01*
X361303Y259648D01*
X360809Y260503D01*
X360111Y261202D01*
X359255Y261696D01*
X358307Y261950D01*
Y258200D01*
Y254449D01*
X359255Y254703D01*
X360111Y255197D01*
X360809Y255896D01*
X361303Y256751D01*
X361559Y257706D01*
X362047D01*
X362303Y256751D01*
X362797Y255896D01*
X363495Y255197D01*
X364351Y254703D01*
X365299Y254449D01*
Y258200D01*
Y261950D01*
D02*
G37*
G36*
X294181D02*
X293233Y261696D01*
X292378Y261202D01*
X291679Y260503D01*
X291185Y259648D01*
X290929Y258694D01*
X290441D01*
X290185Y259648D01*
X289691Y260503D01*
X288993Y261202D01*
X288137Y261696D01*
X287189Y261950D01*
Y258200D01*
Y254449D01*
X288137Y254703D01*
X288993Y255197D01*
X289691Y255896D01*
X290185Y256751D01*
X290441Y257706D01*
X290929D01*
X291185Y256751D01*
X291679Y255896D01*
X292378Y255197D01*
X293233Y254703D01*
X294181Y254449D01*
Y258200D01*
Y261950D01*
D02*
G37*
G36*
X436580Y261885D02*
Y258635D01*
X439831D01*
X439576Y259583D01*
X439082Y260439D01*
X438384Y261137D01*
X437528Y261631D01*
X436580Y261885D01*
D02*
G37*
G36*
X435580D02*
X434632Y261631D01*
X433776Y261137D01*
X433078Y260439D01*
X432584Y259583D01*
X432328Y258629D01*
X431840D01*
X431584Y259583D01*
X431090Y260439D01*
X430392Y261137D01*
X429536Y261631D01*
X428588Y261885D01*
Y258135D01*
Y254385D01*
X429536Y254639D01*
X430392Y255133D01*
X431090Y255831D01*
X431584Y256687D01*
X431840Y257641D01*
X432328D01*
X432584Y256687D01*
X433078Y255831D01*
X433776Y255133D01*
X434632Y254639D01*
X435580Y254385D01*
Y258135D01*
Y261885D01*
D02*
G37*
G36*
X44323Y270431D02*
X37024D01*
Y258407D01*
X39090D01*
Y258098D01*
X39331Y257516D01*
X39777Y257071D01*
X40358Y256830D01*
X40988D01*
X41570Y257071D01*
X42015Y257516D01*
X42256Y258098D01*
Y258407D01*
X44323D01*
Y270431D01*
D02*
G37*
G36*
X228923Y258038D02*
X225673D01*
Y254788D01*
X226621Y255042D01*
X227477Y255536D01*
X228175Y256235D01*
X228669Y257090D01*
X228923Y258038D01*
D02*
G37*
G36*
X216681D02*
X213431D01*
X213685Y257090D01*
X214178Y256235D01*
X214877Y255536D01*
X215733Y255042D01*
X216681Y254788D01*
Y258038D01*
D02*
G37*
G36*
X369549Y257700D02*
X366299D01*
Y254449D01*
X367247Y254703D01*
X368103Y255197D01*
X368801Y255896D01*
X369295Y256751D01*
X369549Y257700D01*
D02*
G37*
G36*
X357307D02*
X354057D01*
X354310Y256751D01*
X354804Y255896D01*
X355503Y255197D01*
X356359Y254703D01*
X357307Y254449D01*
Y257700D01*
D02*
G37*
G36*
X298432D02*
X295181D01*
Y254449D01*
X296130Y254703D01*
X296985Y255197D01*
X297684Y255896D01*
X298178Y256751D01*
X298432Y257700D01*
D02*
G37*
G36*
X286189D02*
X282939D01*
X283193Y256751D01*
X283687Y255896D01*
X284385Y255197D01*
X285241Y254703D01*
X286189Y254449D01*
Y257700D01*
D02*
G37*
G36*
X439831Y257635D02*
X436580D01*
Y254385D01*
X437528Y254639D01*
X438384Y255133D01*
X439082Y255831D01*
X439576Y256687D01*
X439831Y257635D01*
D02*
G37*
G36*
X427588D02*
X424338D01*
X424592Y256687D01*
X425086Y255831D01*
X425784Y255133D01*
X426640Y254639D01*
X427588Y254385D01*
Y257635D01*
D02*
G37*
G36*
X119815Y270083D02*
X119185D01*
X118604Y269842D01*
X118158Y269396D01*
X117917Y268815D01*
Y268185D01*
X118158Y267603D01*
X118582Y267179D01*
Y250127D01*
X117639D01*
Y245584D01*
X121789D01*
Y247187D01*
X123744D01*
Y245931D01*
X128484D01*
Y250278D01*
X123744D01*
Y249022D01*
X121789D01*
Y250127D01*
X120418D01*
Y267179D01*
X120842Y267603D01*
X121083Y268185D01*
Y268815D01*
X120842Y269396D01*
X120396Y269842D01*
X119815Y270083D01*
D02*
G37*
G36*
X246374Y243016D02*
X244996D01*
X243644Y242747D01*
X242370Y242220D01*
X241224Y241454D01*
X240249Y240479D01*
X239484Y239333D01*
X238956Y238060D01*
X238687Y236708D01*
Y235329D01*
X238956Y233977D01*
X239484Y232704D01*
X240249Y231558D01*
X241224Y230583D01*
X242370Y229817D01*
X243644Y229290D01*
X244996Y229021D01*
X246374D01*
X247726Y229290D01*
X248999Y229817D01*
X250146Y230583D01*
X251120Y231558D01*
X251886Y232704D01*
X252414Y233977D01*
X252682Y235329D01*
Y236708D01*
X252414Y238060D01*
X251886Y239333D01*
X251120Y240479D01*
X250146Y241454D01*
X248999Y242220D01*
X247726Y242747D01*
X246374Y243016D01*
D02*
G37*
G36*
X201374D02*
X199996D01*
X198644Y242747D01*
X197370Y242220D01*
X196224Y241454D01*
X195249Y240479D01*
X194484Y239333D01*
X193956Y238060D01*
X193687Y236708D01*
Y235329D01*
X193956Y233977D01*
X194484Y232704D01*
X195249Y231558D01*
X196224Y230583D01*
X197370Y229817D01*
X198644Y229290D01*
X199996Y229021D01*
X201374D01*
X202726Y229290D01*
X203999Y229817D01*
X205146Y230583D01*
X206120Y231558D01*
X206886Y232704D01*
X207414Y233977D01*
X207682Y235329D01*
Y236708D01*
X207414Y238060D01*
X206886Y239333D01*
X206120Y240479D01*
X205146Y241454D01*
X203999Y242220D01*
X202726Y242747D01*
X201374Y243016D01*
D02*
G37*
G36*
X387000Y242677D02*
X385622D01*
X384270Y242408D01*
X382996Y241881D01*
X381850Y241115D01*
X380875Y240141D01*
X380110Y238994D01*
X379582Y237721D01*
X379313Y236369D01*
Y234991D01*
X379582Y233639D01*
X380110Y232365D01*
X380875Y231219D01*
X381850Y230244D01*
X382996Y229479D01*
X384270Y228951D01*
X385622Y228682D01*
X387000D01*
X388352Y228951D01*
X389625Y229479D01*
X390772Y230244D01*
X391746Y231219D01*
X392512Y232365D01*
X393039Y233639D01*
X393308Y234991D01*
Y236369D01*
X393039Y237721D01*
X392512Y238994D01*
X391746Y240141D01*
X390772Y241115D01*
X389625Y241881D01*
X388352Y242408D01*
X387000Y242677D01*
D02*
G37*
G36*
X342000D02*
X340622D01*
X339270Y242408D01*
X337996Y241881D01*
X336850Y241115D01*
X335875Y240141D01*
X335110Y238994D01*
X334582Y237721D01*
X334313Y236369D01*
Y234991D01*
X334582Y233639D01*
X335110Y232365D01*
X335875Y231219D01*
X336850Y230244D01*
X337996Y229479D01*
X339270Y228951D01*
X340622Y228682D01*
X342000D01*
X343352Y228951D01*
X344625Y229479D01*
X345772Y230244D01*
X346746Y231219D01*
X347512Y232365D01*
X348040Y233639D01*
X348308Y234991D01*
Y236369D01*
X348040Y237721D01*
X347512Y238994D01*
X346746Y240141D01*
X345772Y241115D01*
X344625Y241881D01*
X343352Y242408D01*
X342000Y242677D01*
D02*
G37*
G36*
X315882D02*
X314504D01*
X313152Y242408D01*
X311879Y241881D01*
X310733Y241115D01*
X309758Y240141D01*
X308992Y238994D01*
X308465Y237721D01*
X308196Y236369D01*
Y234991D01*
X308465Y233639D01*
X308992Y232365D01*
X309758Y231219D01*
X310733Y230244D01*
X311879Y229479D01*
X313152Y228951D01*
X314504Y228682D01*
X315882D01*
X317234Y228951D01*
X318508Y229479D01*
X319654Y230244D01*
X320629Y231219D01*
X321394Y232365D01*
X321922Y233639D01*
X322191Y234991D01*
Y236369D01*
X321922Y237721D01*
X321394Y238994D01*
X320629Y240141D01*
X319654Y241115D01*
X318508Y241881D01*
X317234Y242408D01*
X315882Y242677D01*
D02*
G37*
G36*
X270882D02*
X269504D01*
X268152Y242408D01*
X266879Y241881D01*
X265733Y241115D01*
X264758Y240141D01*
X263992Y238994D01*
X263464Y237721D01*
X263196Y236369D01*
Y234991D01*
X263464Y233639D01*
X263992Y232365D01*
X264758Y231219D01*
X265733Y230244D01*
X266879Y229479D01*
X268152Y228951D01*
X269504Y228682D01*
X270882D01*
X272234Y228951D01*
X273508Y229479D01*
X274654Y230244D01*
X275629Y231219D01*
X276394Y232365D01*
X276922Y233639D01*
X277191Y234991D01*
Y236369D01*
X276922Y237721D01*
X276394Y238994D01*
X275629Y240141D01*
X274654Y241115D01*
X273508Y241881D01*
X272234Y242408D01*
X270882Y242677D01*
D02*
G37*
G36*
X457281Y242613D02*
X455903D01*
X454551Y242344D01*
X453277Y241816D01*
X452131Y241051D01*
X451157Y240076D01*
X450391Y238930D01*
X449863Y237656D01*
X449594Y236304D01*
Y234926D01*
X449863Y233574D01*
X450391Y232300D01*
X451157Y231154D01*
X452131Y230180D01*
X453277Y229414D01*
X454551Y228886D01*
X455903Y228618D01*
X457281D01*
X458633Y228886D01*
X459907Y229414D01*
X461053Y230180D01*
X462027Y231154D01*
X462793Y232300D01*
X463321Y233574D01*
X463590Y234926D01*
Y236304D01*
X463321Y237656D01*
X462793Y238930D01*
X462027Y240076D01*
X461053Y241051D01*
X459907Y241816D01*
X458633Y242344D01*
X457281Y242613D01*
D02*
G37*
G36*
X412281D02*
X410903D01*
X409551Y242344D01*
X408277Y241816D01*
X407131Y241051D01*
X406157Y240076D01*
X405391Y238930D01*
X404863Y237656D01*
X404594Y236304D01*
Y234926D01*
X404863Y233574D01*
X405391Y232300D01*
X406157Y231154D01*
X407131Y230180D01*
X408277Y229414D01*
X409551Y228886D01*
X410903Y228618D01*
X412281D01*
X413633Y228886D01*
X414907Y229414D01*
X416053Y230180D01*
X417027Y231154D01*
X417793Y232300D01*
X418321Y233574D01*
X418590Y234926D01*
Y236304D01*
X418321Y237656D01*
X417793Y238930D01*
X417027Y240076D01*
X416053Y241051D01*
X414907Y241816D01*
X413633Y242344D01*
X412281Y242613D01*
D02*
G37*
G36*
X60591Y226409D02*
X57123D01*
Y222940D01*
X60591D01*
Y226409D01*
D02*
G37*
G36*
X56123D02*
X52654D01*
Y222940D01*
X56123D01*
Y226409D01*
D02*
G37*
G36*
X145675Y226009D02*
X144735D01*
X143828Y225765D01*
X143014Y225296D01*
X142350Y224631D01*
X141880Y223818D01*
X141637Y222910D01*
Y221970D01*
X141880Y221063D01*
X142350Y220249D01*
X143014Y219585D01*
X143828Y219115D01*
X144735Y218872D01*
X145675D01*
X146583Y219115D01*
X147396Y219585D01*
X148061Y220249D01*
X148530Y221063D01*
X148774Y221970D01*
Y222910D01*
X148530Y223818D01*
X148061Y224631D01*
X147396Y225296D01*
X146583Y225765D01*
X145675Y226009D01*
D02*
G37*
G36*
X125990D02*
X125050D01*
X124143Y225765D01*
X123329Y225296D01*
X122665Y224631D01*
X122195Y223818D01*
X121952Y222910D01*
Y221970D01*
X122195Y221063D01*
X122665Y220249D01*
X123329Y219585D01*
X124143Y219115D01*
X125050Y218872D01*
X125990D01*
X126898Y219115D01*
X127711Y219585D01*
X128376Y220249D01*
X128846Y221063D01*
X129089Y221970D01*
Y222910D01*
X128846Y223818D01*
X128376Y224631D01*
X127711Y225296D01*
X126898Y225765D01*
X125990Y226009D01*
D02*
G37*
G36*
X106305D02*
X105365D01*
X104458Y225765D01*
X103644Y225296D01*
X102980Y224631D01*
X102510Y223818D01*
X102267Y222910D01*
Y221970D01*
X102510Y221063D01*
X102980Y220249D01*
X103644Y219585D01*
X104458Y219115D01*
X105365Y218872D01*
X106305D01*
X107213Y219115D01*
X108026Y219585D01*
X108691Y220249D01*
X109160Y221063D01*
X109404Y221970D01*
Y222910D01*
X109160Y223818D01*
X108691Y224631D01*
X108026Y225296D01*
X107213Y225765D01*
X106305Y226009D01*
D02*
G37*
G36*
X96462D02*
X95523D01*
X94615Y225765D01*
X93801Y225296D01*
X93137Y224631D01*
X92667Y223818D01*
X92424Y222910D01*
Y221970D01*
X92667Y221063D01*
X93137Y220249D01*
X93801Y219585D01*
X94615Y219115D01*
X95523Y218872D01*
X96462D01*
X97370Y219115D01*
X98184Y219585D01*
X98848Y220249D01*
X99318Y221063D01*
X99561Y221970D01*
Y222910D01*
X99318Y223818D01*
X98848Y224631D01*
X98184Y225296D01*
X97370Y225765D01*
X96462Y226009D01*
D02*
G37*
G36*
X86620D02*
X85680D01*
X84773Y225765D01*
X83959Y225296D01*
X83295Y224631D01*
X82825Y223818D01*
X82582Y222910D01*
Y221970D01*
X82825Y221063D01*
X83295Y220249D01*
X83959Y219585D01*
X84773Y219115D01*
X85680Y218872D01*
X86620D01*
X87528Y219115D01*
X88341Y219585D01*
X89006Y220249D01*
X89476Y221063D01*
X89719Y221970D01*
Y222910D01*
X89476Y223818D01*
X89006Y224631D01*
X88341Y225296D01*
X87528Y225765D01*
X86620Y226009D01*
D02*
G37*
G36*
X76777D02*
X75838D01*
X74930Y225765D01*
X74116Y225296D01*
X73452Y224631D01*
X72982Y223818D01*
X72739Y222910D01*
Y221970D01*
X72982Y221063D01*
X73452Y220249D01*
X74116Y219585D01*
X74930Y219115D01*
X75838Y218872D01*
X76777D01*
X77685Y219115D01*
X78499Y219585D01*
X79163Y220249D01*
X79633Y221063D01*
X79876Y221970D01*
Y222910D01*
X79633Y223818D01*
X79163Y224631D01*
X78499Y225296D01*
X77685Y225765D01*
X76777Y226009D01*
D02*
G37*
G36*
X66935D02*
X65995D01*
X65088Y225765D01*
X64274Y225296D01*
X63610Y224631D01*
X63140Y223818D01*
X62897Y222910D01*
Y221970D01*
X63140Y221063D01*
X63610Y220249D01*
X64274Y219585D01*
X65088Y219115D01*
X65995Y218872D01*
X66935D01*
X67843Y219115D01*
X68656Y219585D01*
X69321Y220249D01*
X69791Y221063D01*
X70034Y221970D01*
Y222910D01*
X69791Y223818D01*
X69321Y224631D01*
X68656Y225296D01*
X67843Y225765D01*
X66935Y226009D01*
D02*
G37*
G36*
X60591Y221940D02*
X57123D01*
Y218472D01*
X60591D01*
Y221940D01*
D02*
G37*
G36*
X56123D02*
X52654D01*
Y218472D01*
X56123D01*
Y221940D01*
D02*
G37*
G36*
X39244Y216418D02*
X34898D01*
Y211678D01*
X39244D01*
Y212287D01*
X39512Y212466D01*
X40142D01*
X40723Y212707D01*
X41169Y213152D01*
X41410Y213734D01*
Y214363D01*
X41169Y214945D01*
X40723Y215390D01*
X40142Y215631D01*
X39512D01*
X39244Y215810D01*
Y216418D01*
D02*
G37*
G36*
X16756Y237214D02*
X14740D01*
X12750Y236899D01*
X10833Y236276D01*
X9037Y235361D01*
X7406Y234176D01*
X5981Y232751D01*
X4797Y231121D01*
X3881Y229325D01*
X3259Y227408D01*
X2943Y225417D01*
Y223402D01*
X3259Y221411D01*
X3881Y219494D01*
X4797Y217698D01*
X5981Y216068D01*
X7406Y214643D01*
X9037Y213458D01*
X10833Y212543D01*
X12750Y211920D01*
X14740Y211605D01*
X16756D01*
X18746Y211920D01*
X20663Y212543D01*
X22459Y213458D01*
X24090Y214643D01*
X24575Y215127D01*
X26303Y213400D01*
X26601Y213201D01*
X26952Y213131D01*
X29780D01*
Y211678D01*
X34126D01*
Y216418D01*
X29780D01*
Y214966D01*
X27332D01*
X25816Y216482D01*
X26700Y217698D01*
X27615Y219494D01*
X28238Y221411D01*
X28553Y223402D01*
Y225417D01*
X28238Y227408D01*
X27615Y229325D01*
X26700Y231121D01*
X25515Y232751D01*
X24090Y234176D01*
X22459Y235361D01*
X20663Y236276D01*
X18746Y236899D01*
X16756Y237214D01*
D02*
G37*
%LPD*%
G36*
X77839Y386647D02*
X93576D01*
Y367743D01*
X94945Y366375D01*
X107125D01*
Y348525D01*
X88576D01*
Y366116D01*
X88835Y366375D01*
X77079Y378131D01*
X73343Y384405D01*
X72610D01*
Y384651D01*
X66161D01*
X64395Y386417D01*
Y389895D01*
X74591D01*
X77839Y386647D01*
D02*
G37*
%LPC*%
G36*
X100733Y363884D02*
X100181D01*
X99671Y363673D01*
X99280Y363283D01*
X99069Y362773D01*
Y362221D01*
X99280Y361711D01*
X99671Y361321D01*
X100181Y361110D01*
X100733D01*
X101242Y361321D01*
X101633Y361711D01*
X101844Y362221D01*
Y362773D01*
X101633Y363283D01*
X101242Y363673D01*
X100733Y363884D01*
D02*
G37*
G36*
X95221D02*
X94669D01*
X94159Y363673D01*
X93769Y363283D01*
X93557Y362773D01*
Y362221D01*
X93769Y361711D01*
X94159Y361321D01*
X94669Y361110D01*
X95221D01*
X95731Y361321D01*
X96121Y361711D01*
X96332Y362221D01*
Y362773D01*
X96121Y363283D01*
X95731Y363673D01*
X95221Y363884D01*
D02*
G37*
G36*
X103489Y361129D02*
X102937D01*
X102427Y360917D01*
X102036Y360527D01*
X101825Y360017D01*
Y359465D01*
X102036Y358955D01*
X102427Y358565D01*
X102937Y358354D01*
X103489D01*
X103998Y358565D01*
X104389Y358955D01*
X104600Y359465D01*
Y360017D01*
X104389Y360527D01*
X103998Y360917D01*
X103489Y361129D01*
D02*
G37*
G36*
X97977D02*
X97425D01*
X96915Y360917D01*
X96525Y360527D01*
X96313Y360017D01*
Y359465D01*
X96525Y358955D01*
X96915Y358565D01*
X97425Y358354D01*
X97977D01*
X98487Y358565D01*
X98877Y358955D01*
X99088Y359465D01*
Y360017D01*
X98877Y360527D01*
X98487Y360917D01*
X97977Y361129D01*
D02*
G37*
G36*
X92465D02*
X91913D01*
X91403Y360917D01*
X91013Y360527D01*
X90802Y360017D01*
Y359465D01*
X91013Y358955D01*
X91403Y358565D01*
X91913Y358354D01*
X92465D01*
X92975Y358565D01*
X93365Y358955D01*
X93576Y359465D01*
Y360017D01*
X93365Y360527D01*
X92975Y360917D01*
X92465Y361129D01*
D02*
G37*
G36*
X100733Y358373D02*
X100181D01*
X99671Y358161D01*
X99280Y357771D01*
X99069Y357261D01*
Y356709D01*
X99280Y356199D01*
X99671Y355809D01*
X100181Y355598D01*
X100733D01*
X101242Y355809D01*
X101633Y356199D01*
X101844Y356709D01*
Y357261D01*
X101633Y357771D01*
X101242Y358161D01*
X100733Y358373D01*
D02*
G37*
G36*
X95221D02*
X94669D01*
X94159Y358161D01*
X93769Y357771D01*
X93557Y357261D01*
Y356709D01*
X93769Y356199D01*
X94159Y355809D01*
X94669Y355598D01*
X95221D01*
X95731Y355809D01*
X96121Y356199D01*
X96332Y356709D01*
Y357261D01*
X96121Y357771D01*
X95731Y358161D01*
X95221Y358373D01*
D02*
G37*
G36*
X103489Y355617D02*
X102937D01*
X102427Y355405D01*
X102036Y355015D01*
X101825Y354505D01*
Y353953D01*
X102036Y353444D01*
X102427Y353053D01*
X102937Y352842D01*
X103489D01*
X103998Y353053D01*
X104389Y353444D01*
X104600Y353953D01*
Y354505D01*
X104389Y355015D01*
X103998Y355405D01*
X103489Y355617D01*
D02*
G37*
G36*
X97977D02*
X97425D01*
X96915Y355405D01*
X96525Y355015D01*
X96313Y354505D01*
Y353953D01*
X96525Y353444D01*
X96915Y353053D01*
X97425Y352842D01*
X97977D01*
X98487Y353053D01*
X98877Y353444D01*
X99088Y353953D01*
Y354505D01*
X98877Y355015D01*
X98487Y355405D01*
X97977Y355617D01*
D02*
G37*
G36*
X92465D02*
X91913D01*
X91403Y355405D01*
X91013Y355015D01*
X90802Y354505D01*
Y353953D01*
X91013Y353444D01*
X91403Y353053D01*
X91913Y352842D01*
X92465D01*
X92975Y353053D01*
X93365Y353444D01*
X93576Y353953D01*
Y354505D01*
X93365Y355015D01*
X92975Y355405D01*
X92465Y355617D01*
D02*
G37*
G36*
X100733Y352861D02*
X100181D01*
X99671Y352649D01*
X99280Y352259D01*
X99069Y351749D01*
Y351197D01*
X99280Y350688D01*
X99671Y350297D01*
X100181Y350086D01*
X100733D01*
X101242Y350297D01*
X101633Y350688D01*
X101844Y351197D01*
Y351749D01*
X101633Y352259D01*
X101242Y352649D01*
X100733Y352861D01*
D02*
G37*
G36*
X95221D02*
X94669D01*
X94159Y352649D01*
X93769Y352259D01*
X93557Y351749D01*
Y351197D01*
X93769Y350688D01*
X94159Y350297D01*
X94669Y350086D01*
X95221D01*
X95731Y350297D01*
X96121Y350688D01*
X96332Y351197D01*
Y351749D01*
X96121Y352259D01*
X95731Y352649D01*
X95221Y352861D01*
D02*
G37*
%LPD*%
G36*
X65705Y326330D02*
X65657Y326258D01*
X65632Y326131D01*
X65403Y326086D01*
X65105Y325887D01*
X64469Y325250D01*
X64270Y324952D01*
X64200Y324601D01*
Y322421D01*
X62795Y321016D01*
X55914D01*
X55563Y320946D01*
X55265Y320747D01*
X54535Y320017D01*
X54336Y319719D01*
X54276Y319418D01*
X50655D01*
X50584Y319465D01*
X50233Y319535D01*
X49497D01*
X49464Y319557D01*
X49112Y319627D01*
X45958D01*
X45607Y319557D01*
X45309Y319358D01*
X45195Y319245D01*
X42059D01*
Y320666D01*
X37713D01*
Y315925D01*
X42059D01*
Y317409D01*
X45575D01*
X45926Y317479D01*
X46128Y317614D01*
X46446Y317583D01*
X46595Y317372D01*
X46679Y317048D01*
X46676Y317043D01*
X46553Y316425D01*
X46676Y315808D01*
X47025Y315284D01*
X47549Y314934D01*
X48166Y314812D01*
X48528Y314883D01*
X49035Y314600D01*
X49085Y314534D01*
X49109Y314373D01*
X49107Y314371D01*
X49015Y314353D01*
X48717Y314154D01*
X46631Y312067D01*
X42059D01*
Y313520D01*
X37713D01*
Y308780D01*
X42059D01*
Y310232D01*
X47011D01*
X47362Y310302D01*
X47660Y310501D01*
X49798Y312639D01*
X49890Y312657D01*
X50188Y312856D01*
X50513Y313182D01*
X51591D01*
X51942Y313252D01*
X52014Y313299D01*
X54330D01*
Y314166D01*
X54830Y314373D01*
X55172Y314032D01*
X55470Y313833D01*
X55771Y313773D01*
Y313299D01*
X60669D01*
Y315480D01*
X58352D01*
X58281Y315528D01*
X57929Y315598D01*
X56201D01*
X56101Y315698D01*
Y317236D01*
X60669D01*
Y317409D01*
X63924D01*
X64276Y317479D01*
X64573Y317678D01*
X67002Y320107D01*
X70346D01*
Y306165D01*
X78648Y306165D01*
X90383Y294430D01*
Y294941D01*
X192239D01*
X211554Y275625D01*
X218514D01*
Y268589D01*
X218073Y267824D01*
X217845Y266972D01*
Y266089D01*
X218073Y265237D01*
X218514Y264472D01*
X217418Y263376D01*
X216956Y263568D01*
Y266031D01*
X209452D01*
Y262790D01*
X209452Y262779D01*
X209424Y262290D01*
X208695D01*
X207741Y262035D01*
X206885Y261541D01*
X206187Y260842D01*
X205693Y259987D01*
X205438Y259038D01*
X209189D01*
Y258538D01*
X209689D01*
Y254788D01*
X210637Y255042D01*
X211493Y255536D01*
X212004Y256048D01*
X212413Y255749D01*
X211097Y253208D01*
X197480D01*
X165582Y285106D01*
X111413D01*
X111304Y285561D01*
X111304Y285606D01*
Y291285D01*
X106367D01*
Y285606D01*
X106367Y285561D01*
X106258Y285106D01*
X90383D01*
Y285159D01*
X90193Y285238D01*
X90164Y285267D01*
X90035Y285267D01*
X89915Y285317D01*
X64274D01*
X63815Y285126D01*
X63625Y284667D01*
Y278422D01*
X63650Y278360D01*
X63637Y278295D01*
X63742Y278137D01*
X63815Y277962D01*
X63836Y277954D01*
X63840Y277946D01*
X65407Y276378D01*
X65199Y275879D01*
X62289Y275891D01*
X60255Y277925D01*
Y287862D01*
X60478Y288011D01*
X60828Y288534D01*
X60951Y289152D01*
X60828Y289770D01*
X60478Y290293D01*
X59955Y290643D01*
X59337Y290766D01*
X58719Y290643D01*
X58196Y290293D01*
X57846Y289770D01*
X57723Y289152D01*
X57846Y288534D01*
X58196Y288011D01*
X58419Y287862D01*
Y277545D01*
X58489Y277194D01*
X58688Y276896D01*
X59219Y276365D01*
X59027Y275904D01*
X13489Y276084D01*
X13489Y294512D01*
X17614D01*
X17867Y293901D01*
X17579Y293612D01*
X17380Y293314D01*
X17310Y292963D01*
Y289793D01*
X14681D01*
Y285053D01*
X19028D01*
Y288374D01*
X19075Y288445D01*
X19145Y288796D01*
Y292093D01*
X19645Y292427D01*
X19829Y292351D01*
X20653Y292243D01*
X24590D01*
X25415Y292351D01*
X26184Y292670D01*
X26844Y293176D01*
X27350Y293836D01*
X27668Y294604D01*
X27777Y295429D01*
X27668Y296254D01*
X27350Y297022D01*
X26844Y297682D01*
X26427Y298002D01*
X26425Y298602D01*
X26567Y298709D01*
X27031Y298622D01*
X27543Y298520D01*
X28161Y298643D01*
X28684Y298993D01*
X29034Y299517D01*
X29157Y300134D01*
X29034Y300752D01*
X28684Y301275D01*
X28161Y301625D01*
X27543Y301748D01*
X27067Y301653D01*
X26567Y301756D01*
Y301756D01*
X26567Y301756D01*
X21928D01*
X21585Y301797D01*
X21265Y302083D01*
X21052Y302402D01*
X20463Y302796D01*
X19768Y302934D01*
X19073Y302796D01*
X18484Y302402D01*
X18090Y301813D01*
X17952Y301118D01*
Y300134D01*
X18090Y299439D01*
X18484Y298850D01*
X18834Y298616D01*
X18845Y298596D01*
X18853Y298029D01*
X18400Y297682D01*
X17894Y297022D01*
X17614Y296347D01*
X13489D01*
Y298643D01*
X13489Y327610D01*
X18080D01*
X18400Y327192D01*
X19060Y326686D01*
X19472Y326515D01*
X19421Y325995D01*
X19073Y325926D01*
X18484Y325532D01*
X18090Y324943D01*
X17952Y324248D01*
X18090Y323553D01*
X18484Y322964D01*
X19073Y322570D01*
X19768Y322432D01*
X20463Y322570D01*
X21052Y322964D01*
X21139Y323095D01*
X21630Y323118D01*
X21756Y323118D01*
X26567D01*
Y324671D01*
X26955Y324949D01*
X27141Y325027D01*
X27525Y325321D01*
X27855Y325255D01*
X28472Y325378D01*
X28996Y325728D01*
X29346Y326252D01*
X29469Y326869D01*
X29421Y327110D01*
X29819Y327610D01*
X32544D01*
X32751Y327110D01*
X26118Y320476D01*
X24330D01*
X23979Y320406D01*
X23907Y320358D01*
X21630D01*
Y316043D01*
X21446Y316006D01*
X21446Y316006D01*
X21446Y316006D01*
X21297Y315906D01*
X21149Y315807D01*
X21149Y315807D01*
X21149Y315807D01*
X20394Y315052D01*
X20273Y314871D01*
X20195Y314754D01*
X20195Y314754D01*
X20195Y314754D01*
X20157Y314564D01*
X20125Y314403D01*
Y310471D01*
X20157Y310310D01*
X20195Y310120D01*
X20195Y310120D01*
X20195Y310120D01*
X20273Y310003D01*
X20394Y309822D01*
X21149Y309067D01*
X21149Y309067D01*
X21149Y309067D01*
X21297Y308968D01*
X21446Y308868D01*
X21446Y308868D01*
X21446Y308868D01*
X21630Y308832D01*
Y304516D01*
X26567D01*
Y305166D01*
X27029Y305357D01*
X31205Y301181D01*
Y299464D01*
X31236Y299311D01*
X31275Y299113D01*
X31275Y299112D01*
Y299112D01*
X31323Y299041D01*
Y296114D01*
X35866D01*
Y300263D01*
X33040D01*
Y301561D01*
X32971Y301912D01*
X32772Y302210D01*
X27048Y307933D01*
X26848Y308067D01*
X26933Y308567D01*
X33299D01*
X33490Y308605D01*
X33650Y308637D01*
X33650Y308637D01*
X33650Y308637D01*
X33759Y308709D01*
X33865Y308780D01*
X36941D01*
Y313520D01*
X32595D01*
Y310402D01*
X26567D01*
Y312504D01*
X30091D01*
X30442Y312574D01*
X30740Y312772D01*
X33892Y315925D01*
X36941D01*
Y320666D01*
X32595D01*
Y317223D01*
X29711Y314339D01*
X26567D01*
Y318654D01*
X26849Y318711D01*
X27147Y318910D01*
X34629Y326392D01*
X34828Y326690D01*
X34898Y327041D01*
Y327610D01*
X65705D01*
Y326330D01*
D02*
G37*
G36*
X110655Y285606D02*
X110655Y285606D01*
X110655Y285606D01*
X110655Y285561D01*
X110685Y285488D01*
X110672Y285410D01*
X110781Y284955D01*
X110886Y284811D01*
X110953Y284647D01*
X111026Y284617D01*
X111073Y284553D01*
X111248Y284525D01*
X111413Y284456D01*
X112822D01*
Y268308D01*
Y267552D01*
X112740Y267201D01*
X104899D01*
Y276403D01*
X66300D01*
X64299Y278405D01*
X64274Y278422D01*
Y284667D01*
X89915D01*
X89924Y284647D01*
X90383Y284456D01*
X106258D01*
X106423Y284525D01*
X106598Y284553D01*
X106645Y284617D01*
X106718Y284647D01*
X106786Y284811D01*
X106890Y284955D01*
X106999Y285410D01*
X106986Y285488D01*
X107017Y285561D01*
X107017Y285606D01*
X107017Y285606D01*
X107017Y285606D01*
Y290636D01*
X110655D01*
Y285606D01*
D02*
G37*
%LPC*%
G36*
X42559Y300263D02*
X38016D01*
Y296114D01*
X42559D01*
Y296696D01*
X42566Y296698D01*
X43090Y297047D01*
X43439Y297571D01*
X43562Y298189D01*
X43439Y298806D01*
X43090Y299330D01*
X42566Y299679D01*
X42559Y299681D01*
Y300263D01*
D02*
G37*
G36*
X52148Y300917D02*
X47211D01*
Y296374D01*
X48231D01*
X48288Y296304D01*
X48452Y295874D01*
X48189Y295479D01*
X48066Y294862D01*
X48189Y294244D01*
X48539Y293721D01*
X49062Y293371D01*
X49680Y293248D01*
X50297Y293371D01*
X50821Y293721D01*
X51170Y294244D01*
X51293Y294862D01*
X51170Y295479D01*
X50907Y295874D01*
X51071Y296304D01*
X51129Y296374D01*
X52148D01*
Y300917D01*
D02*
G37*
G36*
X72776Y289683D02*
X65776D01*
Y286683D01*
X72776D01*
Y289683D01*
D02*
G37*
G36*
X24146Y289793D02*
X19799D01*
Y285053D01*
X24146D01*
Y285531D01*
X24532Y285848D01*
X24728Y285809D01*
X25346Y285932D01*
X25870Y286282D01*
X26219Y286806D01*
X26342Y287423D01*
X26219Y288041D01*
X25870Y288564D01*
X25346Y288914D01*
X24728Y289037D01*
X24532Y288998D01*
X24146Y289315D01*
Y289793D01*
D02*
G37*
G36*
X216956Y270283D02*
X213704D01*
Y267031D01*
X216956D01*
Y270283D01*
D02*
G37*
G36*
X212704D02*
X209452D01*
Y267031D01*
X212704D01*
Y270283D01*
D02*
G37*
G36*
X208689Y258038D02*
X205438D01*
X205693Y257090D01*
X206187Y256235D01*
X206885Y255536D01*
X207741Y255042D01*
X208689Y254788D01*
Y258038D01*
D02*
G37*
%LPD*%
D15*
X26526Y325765D02*
G03*
X27855Y326869I-1936J3680D01*
G01*
X76500Y324000D02*
Y327192D01*
X77079Y327770D01*
Y367737D01*
X72437Y372379D02*
X77079Y367737D01*
X73753Y326000D02*
X75979Y328226D01*
Y348837D01*
X119500Y248069D02*
Y268500D01*
Y248069D02*
X119714Y247855D01*
X121106Y313883D02*
X127137Y307852D01*
X59337Y288837D02*
X59500Y289000D01*
X59337Y277545D02*
Y288837D01*
Y277545D02*
X91886Y244996D01*
X115843D01*
X126170Y234669D01*
Y231633D02*
Y234669D01*
Y231633D02*
X135363Y222440D01*
X31000Y388000D02*
X33000D01*
X385594Y288443D02*
X385747Y288596D01*
X390371D02*
X390524Y288749D01*
X385747Y288596D02*
X390371D01*
X387377Y285990D02*
X390323D01*
X387177Y285789D02*
X387377Y285990D01*
X390323D02*
X390524Y286190D01*
X40673Y258412D02*
Y264419D01*
X247482Y283972D02*
Y284428D01*
X249327Y286273D01*
X250882D01*
X40673Y331698D02*
X44371D01*
X40673Y331698D02*
X40673Y331698D01*
X183059Y382737D02*
X185815D01*
X185815Y371662D02*
X185815Y371662D01*
X183059Y371662D02*
X185815D01*
X158004Y350107D02*
X159555D01*
X156520Y348624D02*
X158004Y350107D01*
X25767Y325365D02*
X26526Y325765D01*
X24098Y324642D02*
X25767Y325365D01*
X45575Y318327D02*
X45958Y318710D01*
X49205Y318618D02*
X50233D01*
X48200Y316392D02*
X51848D01*
X51881Y316358D01*
X50233Y318618D02*
X50523Y318327D01*
X48166Y316425D02*
X48200Y316392D01*
X45958Y318710D02*
X49112D01*
X49205Y318618D01*
X39917Y318327D02*
X45575D01*
X50523D02*
X51881D01*
X27445Y300232D02*
X27543Y300134D01*
X24098Y300232D02*
X27445D01*
X51591Y314099D02*
X51881Y314390D01*
X49539Y313505D02*
X50133Y314099D01*
X39886Y311150D02*
X47011D01*
X49366Y313505D01*
X49539D01*
X50133Y314099D02*
X51591D01*
X39886Y318295D02*
X39917Y318327D01*
X63924D02*
X67976Y322379D01*
X58220Y318327D02*
X63924D01*
X63175Y320099D02*
X65117Y322041D01*
X55914Y320099D02*
X63175D01*
X55184Y319368D02*
X55914Y320099D01*
X55184Y315317D02*
Y319368D01*
Y315317D02*
X55821Y314680D01*
X57929D01*
X58220Y314390D01*
X473794Y350663D02*
Y355307D01*
X472224Y361798D02*
X473597Y360425D01*
X468504Y377953D02*
X472224Y374233D01*
X473597Y360425D02*
X473794D01*
X472224Y361798D02*
Y374233D01*
X472898Y284640D02*
Y287298D01*
X464042Y288832D02*
X467389D01*
X453137D02*
X456483D01*
X456089Y289225D02*
X456483Y288832D01*
X407131Y284723D02*
Y287381D01*
X398083Y288749D02*
X400549D01*
X334582Y283662D02*
Y286320D01*
X329585Y288832D02*
X329585Y288832D01*
X326239Y288832D02*
X329585D01*
X315333Y288832D02*
X315334Y288832D01*
X318680D01*
X313686Y285427D02*
X314531Y286273D01*
X318680D01*
X266878Y284555D02*
X266879Y284555D01*
X266878Y284555D02*
Y287212D01*
X247535Y288832D02*
X250882D01*
X258441D02*
X261787D01*
X40287Y298189D02*
X41949D01*
X18652Y349111D02*
Y375883D01*
X17290Y347749D02*
X18652Y349111D01*
X138055Y362379D02*
X156241D01*
X165524Y371662D01*
X69157Y372379D02*
X72437D01*
X27450Y391080D02*
X35477D01*
X24591Y388025D02*
Y388221D01*
X49178Y377379D02*
X58541D01*
X35477Y391080D02*
X49178Y377379D01*
X24591Y388221D02*
X27450Y391080D01*
X58541Y377379D02*
X69157D01*
X10117Y387379D02*
X23945D01*
X24591Y388025D01*
X5004Y382266D02*
X10117Y387379D01*
X5004Y371591D02*
Y382266D01*
X9216Y367379D02*
X9413D01*
X5004Y371591D02*
X9216Y367379D01*
X9413D02*
X9531Y367261D01*
Y372379D02*
X9728D01*
X13232Y375883D01*
X18652D01*
X29906Y387828D02*
Y388025D01*
X33643Y384090D02*
X33980D01*
X34400Y383671D01*
Y375883D02*
Y383671D01*
X36068Y345345D02*
X37663D01*
X34400Y347014D02*
X36068Y345345D01*
X34400Y347014D02*
Y349111D01*
X21972Y287423D02*
X24728D01*
X37071Y214048D02*
X39827D01*
X70338Y342379D02*
X72479Y340238D01*
X72561D02*
X73198Y339601D01*
X69157Y342379D02*
X70338D01*
X72479Y340238D02*
X72561D01*
X73198Y334337D02*
Y339601D01*
Y334337D02*
X73694Y333840D01*
Y333470D02*
Y333840D01*
X72437Y352379D02*
X75979Y348837D01*
X69157Y352379D02*
X72437D01*
X357390Y281275D02*
X364049D01*
X364196D01*
X172268Y320701D02*
X173937Y319032D01*
X181531D01*
X172268Y320701D02*
Y321852D01*
X66137Y347379D02*
X69157D01*
X64710Y345952D02*
X66137Y347379D01*
X127437Y338452D02*
X133510Y332379D01*
X138055D01*
X126106Y317458D02*
X126114Y317450D01*
Y312489D02*
Y317450D01*
X118337Y313452D02*
X118837Y312952D01*
X116106Y313452D02*
X118337D01*
X116106D02*
Y317458D01*
X58364Y337379D02*
X69157D01*
X53737Y332752D02*
X58364Y337379D01*
X121106Y313883D02*
Y317458D01*
X49680Y294862D02*
Y298645D01*
X47461Y349602D02*
X51422D01*
X97701Y356985D02*
X98070Y357355D01*
X59169Y349602D02*
X63083D01*
X138055Y387379D02*
X143000D01*
X7563Y295429D02*
Y306925D01*
Y317949D01*
Y329445D01*
X22622D01*
X20694Y295429D02*
X22622D01*
X18228Y292963D02*
X20694Y295429D01*
X18228Y288796D02*
Y292963D01*
X16854Y287423D02*
X18228Y288796D01*
X7563Y295429D02*
X20694D01*
X24098Y319327D02*
X24330Y319558D01*
X26498D01*
X33980Y327041D01*
Y331698D01*
X24098Y311453D02*
Y313421D01*
X30091D01*
X34768Y318099D01*
Y318295D01*
X23867Y309716D02*
X24098Y309484D01*
X21798Y309716D02*
X23867D01*
X21043Y310471D02*
X21798Y309716D01*
X21043Y310471D02*
Y314403D01*
X21798Y315158D01*
X23867D01*
X24098Y315390D01*
Y309484D02*
X33299D01*
X34768Y310953D01*
Y311150D01*
X24098Y307516D02*
X24330Y307284D01*
X26399D01*
X32123Y301561D01*
Y299464D02*
Y301561D01*
Y299464D02*
X33398Y298189D01*
X33594D01*
X16000Y225000D02*
X26952Y214048D01*
X31953D01*
X65117Y322041D02*
Y324601D01*
X65754Y325238D01*
X66153D01*
X66505Y325590D01*
Y325907D01*
X67976Y327379D01*
X69157D01*
X67976Y322379D02*
X69157D01*
X223030Y286394D02*
X223227D01*
X212134Y297290D02*
X223030Y286394D01*
X95012Y297290D02*
X212134D01*
X78247Y314055D02*
X95012Y297290D01*
X78247Y314055D02*
Y314136D01*
X76106Y316277D02*
X78247Y314136D01*
X76106Y316277D02*
Y317458D01*
X223227Y286394D02*
X223423D01*
X226521Y283296D01*
Y280354D02*
Y283296D01*
Y280354D02*
X230265Y276609D01*
X234796D01*
X292378Y286394D02*
X292575D01*
X279282Y299490D02*
X292378Y286394D01*
X102812Y299490D02*
X279282D01*
X88247Y314055D02*
X102812Y299490D01*
X88247Y314055D02*
Y314136D01*
X86106Y316277D02*
X88247Y314136D01*
X86106Y316277D02*
Y317458D01*
X292575Y286394D02*
X292772D01*
X296360Y282806D01*
Y279152D02*
Y282806D01*
Y279152D02*
X297990Y277522D01*
X306780D01*
X318537Y286130D02*
X318680Y286273D01*
X361279Y286443D02*
X364049D01*
X360495Y287228D02*
X361279Y286443D01*
X360495Y287228D02*
Y288370D01*
X347184Y301680D02*
X360495Y288370D01*
X283925Y301680D02*
X347184D01*
X283916Y301690D02*
X283925Y301680D01*
X110612Y301690D02*
X283916D01*
X97578Y314724D02*
X110612Y301690D01*
X97578Y314724D02*
Y315986D01*
X96106Y317458D02*
X97578Y315986D01*
X364049Y286443D02*
X364246D01*
X367790Y282900D01*
Y279331D02*
Y282900D01*
Y279331D02*
X369749Y277372D01*
X373121D01*
X433277Y286573D02*
X433474D01*
X415960Y303890D02*
X433277Y286573D01*
X118412Y303890D02*
X415960D01*
X108247Y314055D02*
X118412Y303890D01*
X108247Y314055D02*
Y314136D01*
X106106Y316277D02*
X108247Y314136D01*
X106106Y316277D02*
Y317458D01*
X433474Y286573D02*
X433671D01*
X436695Y283549D01*
Y279264D02*
Y283549D01*
Y279264D02*
X437829Y278131D01*
X441348D01*
X453083Y283517D02*
X453345Y283778D01*
Y284690D01*
X454928Y286273D01*
X456483D01*
X230369Y286508D02*
X230566D01*
X218487Y298390D02*
X230369Y286508D01*
X98912Y298390D02*
X218487D01*
X82578Y314724D02*
X98912Y298390D01*
X82578Y314724D02*
Y315986D01*
X81106Y317458D02*
X82578Y315986D01*
X230566Y286508D02*
X233336D01*
X234461Y287633D01*
Y288164D01*
X237688Y291391D01*
X250882D01*
X91106Y317458D02*
X92578Y315986D01*
Y314724D02*
Y315986D01*
Y314724D02*
X106712Y300590D01*
X283460D01*
X295721Y288328D01*
Y287220D02*
Y288328D01*
Y287220D02*
X296547Y286394D01*
X299317D01*
X299514D01*
X304511Y291391D01*
X318680D01*
X101106Y316277D02*
Y317458D01*
Y316277D02*
X103247Y314136D01*
Y314055D02*
Y314136D01*
Y314055D02*
X114512Y302790D01*
X355087D01*
X357287Y300590D01*
X359179D01*
X370747Y289022D01*
Y286573D02*
Y289022D01*
Y286573D02*
X370944D01*
X375679Y291308D01*
X390524D01*
X111106Y316277D02*
Y317458D01*
Y316277D02*
X113247Y314136D01*
Y314055D02*
Y314136D01*
Y314055D02*
X122302Y305000D01*
X420962D01*
X439456Y286506D01*
X439653D01*
X439850D01*
X444734Y291391D01*
X456483D01*
X138055Y319707D02*
Y322379D01*
Y319707D02*
X143297Y314466D01*
X158939D01*
X166326Y321852D01*
X172268D01*
X215887Y281276D02*
X223227D01*
Y272493D02*
Y281276D01*
Y272493D02*
X229189Y266531D01*
X233165Y258538D02*
X236729Y262103D01*
X238906D01*
X241532Y264728D01*
Y270569D01*
X237906Y274195D02*
X241532Y270569D01*
X237906Y274195D02*
Y281409D01*
X237886Y281390D02*
X237906Y281409D01*
X230566Y281390D02*
X237886D01*
X285833Y281275D02*
X292575D01*
X292772D01*
X295260Y278787D01*
Y278696D02*
Y278787D01*
Y278696D02*
X298697Y275259D01*
Y266192D02*
Y275259D01*
X302674Y258200D02*
X306238Y261764D01*
X308415D01*
X311040Y264389D01*
Y276492D01*
X306257Y281275D02*
X311040Y276492D01*
X306060Y281275D02*
X306257D01*
X299317D02*
X306060D01*
X366690Y278876D02*
Y278882D01*
Y278876D02*
X369815Y275751D01*
Y266192D02*
Y275751D01*
X364196Y281275D02*
X364246Y281325D01*
X366690Y278882D01*
X373791Y258200D02*
X377355Y261764D01*
X379532D01*
X382158Y264389D01*
Y269879D01*
X377332Y274705D02*
X382158Y269879D01*
X377332Y274705D02*
Y281568D01*
X377219Y281455D02*
X377332Y281568D01*
X370747Y281455D02*
X377219D01*
X427021D02*
X433474D01*
X433671D01*
X435595Y279531D01*
Y278809D02*
Y279531D01*
Y278809D02*
X440096Y274308D01*
Y266127D02*
Y274308D01*
X444072Y258135D02*
X447636Y261699D01*
X449814D01*
X452439Y264325D01*
Y268891D01*
X445815Y275515D02*
X452439Y268891D01*
X445815Y275515D02*
Y281455D01*
X445748Y281388D02*
X445815Y281455D01*
X439653Y281388D02*
X445748D01*
X138055Y342379D02*
X138340Y342094D01*
X142946D01*
X138228Y337207D02*
X142848D01*
X138055Y337379D02*
X138228Y337207D01*
X131106Y317458D02*
X131489Y317075D01*
Y312641D02*
Y317075D01*
X119714Y247855D02*
X119963Y248105D01*
X126114D01*
X115678Y222440D02*
Y239685D01*
X115974Y239981D01*
X171429Y382737D02*
X177941D01*
X171429Y371662D02*
X177941D01*
D23*
X40673Y264419D02*
D03*
Y281348D02*
D03*
D24*
X97701Y356985D02*
D03*
X92189D02*
D03*
X103213D02*
D03*
X92189Y351473D02*
D03*
X97701D02*
D03*
X103213D02*
D03*
X92189Y362497D02*
D03*
X97701D02*
D03*
X103213D02*
D03*
D25*
X69157Y387379D02*
D03*
Y382379D02*
D03*
Y377379D02*
D03*
Y372379D02*
D03*
Y367379D02*
D03*
Y362379D02*
D03*
Y357379D02*
D03*
Y352379D02*
D03*
Y347379D02*
D03*
Y342379D02*
D03*
Y337379D02*
D03*
Y332379D02*
D03*
Y327379D02*
D03*
Y322379D02*
D03*
X138055D02*
D03*
Y327379D02*
D03*
Y332379D02*
D03*
Y337379D02*
D03*
Y342379D02*
D03*
Y347379D02*
D03*
Y352379D02*
D03*
Y357379D02*
D03*
Y362379D02*
D03*
Y367379D02*
D03*
Y372379D02*
D03*
Y377379D02*
D03*
Y382379D02*
D03*
Y387379D02*
D03*
D26*
X76106Y317458D02*
D03*
X81106D02*
D03*
X86106D02*
D03*
X91106D02*
D03*
X96106D02*
D03*
X101106D02*
D03*
X106106D02*
D03*
X111106D02*
D03*
X116106D02*
D03*
X121106D02*
D03*
X126106D02*
D03*
X131106D02*
D03*
D27*
X473794Y355307D02*
D03*
Y360425D02*
D03*
X181531Y313914D02*
D03*
Y319032D02*
D03*
X58541Y382497D02*
D03*
Y377379D02*
D03*
X433474Y281455D02*
D03*
Y286573D02*
D03*
X439653Y281388D02*
D03*
Y286506D02*
D03*
X126114Y248105D02*
D03*
Y242986D02*
D03*
X364049Y281325D02*
D03*
Y286443D02*
D03*
X370747Y281455D02*
D03*
Y286573D02*
D03*
X292575Y281275D02*
D03*
Y286394D02*
D03*
X299317Y281275D02*
D03*
Y286394D02*
D03*
X223227Y281276D02*
D03*
Y286394D02*
D03*
X230566Y281390D02*
D03*
Y286508D02*
D03*
X427021Y281455D02*
D03*
Y286573D02*
D03*
X445815Y281455D02*
D03*
Y286573D02*
D03*
X357390Y281275D02*
D03*
Y286393D02*
D03*
X377332Y281568D02*
D03*
Y286686D02*
D03*
X285833Y281275D02*
D03*
Y286394D02*
D03*
X306060Y281275D02*
D03*
Y286394D02*
D03*
X9531Y367261D02*
D03*
Y372379D02*
D03*
X215887Y281276D02*
D03*
Y286394D02*
D03*
X237906Y281409D02*
D03*
Y286528D02*
D03*
D28*
X258441Y286273D02*
D03*
Y288832D02*
D03*
Y291391D02*
D03*
X250882D02*
D03*
Y288832D02*
D03*
Y286273D02*
D03*
X326239Y286273D02*
D03*
Y288832D02*
D03*
Y291391D02*
D03*
X318680D02*
D03*
Y288832D02*
D03*
Y286273D02*
D03*
X398083Y286190D02*
D03*
Y288749D02*
D03*
Y291308D02*
D03*
X390524D02*
D03*
Y288749D02*
D03*
Y286190D02*
D03*
X464042Y286273D02*
D03*
Y288832D02*
D03*
Y291391D02*
D03*
X456483D02*
D03*
Y288832D02*
D03*
Y286273D02*
D03*
D29*
X266878Y287212D02*
D03*
Y292527D02*
D03*
X334582Y286320D02*
D03*
Y291635D02*
D03*
X407131Y292696D02*
D03*
Y287381D02*
D03*
X59169Y349602D02*
D03*
Y354917D02*
D03*
X472898Y287298D02*
D03*
Y292613D02*
D03*
X47461Y349602D02*
D03*
Y354917D02*
D03*
X49680Y298645D02*
D03*
Y303960D02*
D03*
D30*
X183059Y371662D02*
D03*
X177941D02*
D03*
X183059Y382737D02*
D03*
X177941D02*
D03*
X31953Y214048D02*
D03*
X37071D02*
D03*
X16854Y287423D02*
D03*
X21972D02*
D03*
X34768Y311150D02*
D03*
X39886D02*
D03*
X34768Y318295D02*
D03*
X39886D02*
D03*
D31*
X171429Y371662D02*
D03*
X165524D02*
D03*
Y382737D02*
D03*
X171429D02*
D03*
D32*
X100961Y272384D02*
D03*
X108835D02*
D03*
X108836Y288423D02*
D03*
X100962D02*
D03*
D33*
X69276Y273143D02*
D03*
Y288183D02*
D03*
X90476D02*
D03*
Y273143D02*
D03*
D34*
X69276Y280663D02*
D03*
X90476D02*
D03*
D35*
X156520Y321852D02*
D03*
Y348624D02*
D03*
X172268D02*
D03*
Y321852D02*
D03*
X34400Y375883D02*
D03*
Y349111D02*
D03*
X18652D02*
D03*
Y375883D02*
D03*
D36*
X40287Y298189D02*
D03*
X33594D02*
D03*
X40673Y331698D02*
D03*
X33980D02*
D03*
D37*
X115974Y239981D02*
D03*
X112234Y247855D02*
D03*
X119714D02*
D03*
D38*
X7563Y306925D02*
D03*
Y317949D02*
D03*
D39*
X24098Y305547D02*
D03*
Y307516D02*
D03*
Y309484D02*
D03*
Y311453D02*
D03*
Y313421D02*
D03*
Y315390D02*
D03*
Y317358D02*
D03*
Y319327D02*
D03*
D40*
Y303185D02*
D03*
Y300232D02*
D03*
Y321689D02*
D03*
Y324642D02*
D03*
D41*
X58220Y318327D02*
D03*
Y316358D02*
D03*
Y314390D02*
D03*
X51881D02*
D03*
Y316358D02*
D03*
Y318327D02*
D03*
D42*
X24591Y388025D02*
D03*
X29906D02*
D03*
D60*
X19768Y300626D02*
D03*
D61*
Y324248D02*
D03*
D62*
X7563Y295429D02*
D03*
Y329445D02*
D03*
D63*
X22622Y295429D02*
D03*
Y329445D02*
D03*
D64*
X67276Y273143D02*
X69276D01*
X63157Y277263D02*
X67276Y273143D01*
X278697Y258200D02*
X282713Y262215D01*
Y266192D01*
X349815Y258200D02*
X353830Y262215D01*
Y266192D01*
X420096Y258135D02*
X424112Y262151D01*
Y266127D01*
D65*
X90383Y272884D02*
X100461D01*
X90383D02*
X90476Y273143D01*
X100461Y272884D02*
X100961Y272384D01*
D66*
X353830Y266192D02*
D03*
X282713D02*
D03*
X424112Y266127D02*
D03*
X213204Y266531D02*
D03*
D67*
X349815Y258200D02*
D03*
X357807D02*
D03*
X365799D02*
D03*
X361823Y266192D02*
D03*
X369815D02*
D03*
X377807D02*
D03*
X373791Y258200D02*
D03*
X278697D02*
D03*
X286689D02*
D03*
X294681D02*
D03*
X290705Y266192D02*
D03*
X298697D02*
D03*
X306689D02*
D03*
X302674Y258200D02*
D03*
X420096Y258135D02*
D03*
X428088D02*
D03*
X436080D02*
D03*
X432104Y266127D02*
D03*
X440096D02*
D03*
X448088D02*
D03*
X444072Y258135D02*
D03*
X209189Y258538D02*
D03*
X217181D02*
D03*
X225173D02*
D03*
X221197Y266531D02*
D03*
X229189D02*
D03*
X237181D02*
D03*
X233165Y258538D02*
D03*
D68*
X341311Y235680D02*
D03*
X386311D02*
D03*
X270193D02*
D03*
X315193D02*
D03*
X411592Y235615D02*
D03*
X456592D02*
D03*
X200685Y236019D02*
D03*
X245685D02*
D03*
D69*
X97701Y359741D02*
D03*
X92189D02*
D03*
X103213D02*
D03*
X92189Y354229D02*
D03*
X97701D02*
D03*
X103213D02*
D03*
X94945Y362497D02*
D03*
X100457D02*
D03*
X94945Y356985D02*
D03*
X100457D02*
D03*
X94945Y351473D02*
D03*
X100457D02*
D03*
D70*
X468504Y377953D02*
D03*
X15748Y224410D02*
D03*
D71*
X166585Y264227D02*
D03*
X176428D02*
D03*
X156743D02*
D03*
X76308Y222440D02*
D03*
X86150D02*
D03*
X66465D02*
D03*
X95993D02*
D03*
X105835D02*
D03*
X115678D02*
D03*
X125520D02*
D03*
X135363D02*
D03*
X145205D02*
D03*
D72*
X146900Y264227D02*
D03*
X56623Y222440D02*
D03*
D73*
X110273Y278127D02*
D03*
X108304Y282064D02*
D03*
X106336Y278127D02*
D03*
X104367Y282064D02*
D03*
X102399Y278127D02*
D03*
X100430Y282064D02*
D03*
X98462Y278127D02*
D03*
X96493Y282064D02*
D03*
X92556Y384426D02*
D03*
X90588Y380489D02*
D03*
X92556Y376552D02*
D03*
X90588Y372615D02*
D03*
X92556Y368678D02*
D03*
X88619Y384426D02*
D03*
X86651Y380489D02*
D03*
X88619Y376552D02*
D03*
X86651Y372615D02*
D03*
X88619Y368678D02*
D03*
X84682Y384426D02*
D03*
X82714Y380489D02*
D03*
X84682Y376552D02*
D03*
Y282064D02*
D03*
X82714Y278127D02*
D03*
X80745Y384426D02*
D03*
X78777Y380489D02*
D03*
X80745Y376552D02*
D03*
Y282064D02*
D03*
X76808Y384426D02*
D03*
X76500Y324000D02*
D03*
X73753Y326000D02*
D03*
X119500Y268500D02*
D03*
X127137Y307852D02*
D03*
X33000Y388000D02*
D03*
X385594Y288443D02*
D03*
X387177Y285789D02*
D03*
X40673Y258412D02*
D03*
X247482Y283972D02*
D03*
X44371Y331698D02*
D03*
X185815Y382737D02*
D03*
Y371662D02*
D03*
X159555Y350107D02*
D03*
X27855Y326869D02*
D03*
X48166Y316425D02*
D03*
X27543Y300134D02*
D03*
X473794Y350663D02*
D03*
X472898Y284640D02*
D03*
X467389Y288832D02*
D03*
X453137D02*
D03*
X407131Y284723D02*
D03*
X400549Y288749D02*
D03*
X334582Y283662D02*
D03*
X329585Y288832D02*
D03*
X315333D02*
D03*
X313686Y285427D02*
D03*
X266879Y284555D02*
D03*
X247535Y288832D02*
D03*
X261787D02*
D03*
X41949Y298189D02*
D03*
X33980Y384090D02*
D03*
X37663Y345345D02*
D03*
X24728Y287423D02*
D03*
X39827Y214048D02*
D03*
X73694Y333470D02*
D03*
X215786Y273404D02*
D03*
X212637D02*
D03*
X209487D02*
D03*
X207912Y276554D02*
D03*
X206337Y273404D02*
D03*
X207912Y270254D02*
D03*
X206337Y267105D02*
D03*
X207912Y263955D02*
D03*
X206337Y254506D02*
D03*
X203188Y279703D02*
D03*
X204763Y276554D02*
D03*
X203188Y273404D02*
D03*
X204763Y270254D02*
D03*
X203188Y267105D02*
D03*
X204763Y263955D02*
D03*
X203188Y260806D02*
D03*
Y254506D02*
D03*
X201613Y282853D02*
D03*
X200038Y279703D02*
D03*
X201613Y276554D02*
D03*
X200038Y273404D02*
D03*
X201613Y270254D02*
D03*
X200038Y267105D02*
D03*
X201613Y263955D02*
D03*
X200038Y260806D02*
D03*
X201613Y257656D02*
D03*
X200038Y254506D02*
D03*
X196889Y286002D02*
D03*
X198463Y282853D02*
D03*
X196889Y279703D02*
D03*
X198463Y276554D02*
D03*
X196889Y273404D02*
D03*
X198463Y270254D02*
D03*
X196889Y267105D02*
D03*
X198463Y263955D02*
D03*
X196889Y260806D02*
D03*
X198463Y257656D02*
D03*
X195314Y289152D02*
D03*
X193739Y286002D02*
D03*
X195314Y282853D02*
D03*
X193739Y279703D02*
D03*
X195314Y276554D02*
D03*
X193739Y273404D02*
D03*
X195314Y270254D02*
D03*
X193739Y267105D02*
D03*
X195314Y263955D02*
D03*
X193739Y260806D02*
D03*
X195314Y257656D02*
D03*
X192164Y289152D02*
D03*
X190589Y286002D02*
D03*
X192164Y282853D02*
D03*
X190589Y279703D02*
D03*
X192164Y276554D02*
D03*
X190589Y273404D02*
D03*
X192164Y270254D02*
D03*
X190589Y267105D02*
D03*
X192164Y263955D02*
D03*
X189015Y289152D02*
D03*
X187440Y286002D02*
D03*
X189015Y282853D02*
D03*
X187440Y279703D02*
D03*
X189015Y276554D02*
D03*
X187440Y273404D02*
D03*
X189015Y270254D02*
D03*
X187440Y267105D02*
D03*
X189015Y263955D02*
D03*
X64710Y345952D02*
D03*
X59337Y289152D02*
D03*
X127437Y338452D02*
D03*
X126114Y312489D02*
D03*
X118837Y312952D02*
D03*
X53737Y332752D02*
D03*
X49680Y294862D02*
D03*
X51422Y349602D02*
D03*
X63083D02*
D03*
X143000Y387379D02*
D03*
X234796Y276609D02*
D03*
X306780Y277522D02*
D03*
X373121Y277372D02*
D03*
X441348Y278131D02*
D03*
X453083Y283517D02*
D03*
X142946Y342094D02*
D03*
X142848Y337207D02*
D03*
X131489Y312641D02*
D03*
M02*
