G04*
G04 #@! TF.GenerationSoftware,Altium Limited,Altium Designer,22.11.1 (43)*
G04*
G04 Layer_Color=128*
%FSLAX25Y25*%
%MOIN*%
G70*
G04*
G04 #@! TF.SameCoordinates,3125327F-633B-4DE6-8F98-D116A0B0FB6F*
G04*
G04*
G04 #@! TF.FilePolarity,Positive*
G04*
G01*
G75*
%ADD75C,0.00200*%
D75*
X352078Y266192D02*
X355582D01*
X353830Y264440D02*
Y267944D01*
X348063Y258200D02*
X351567D01*
X349815Y256448D02*
Y259951D01*
X356055Y258200D02*
X359559D01*
X357807Y256448D02*
Y259951D01*
X364047Y258200D02*
X367551D01*
X365799Y256448D02*
Y259951D01*
X360071Y266192D02*
X363575D01*
X361823Y264440D02*
Y267944D01*
X368063Y266192D02*
X371567D01*
X369815Y264440D02*
Y267944D01*
X376055Y266192D02*
X379559D01*
X377807Y264440D02*
Y267944D01*
X372039Y258200D02*
X375543D01*
X373791Y256448D02*
Y259951D01*
X334913Y235680D02*
X347708D01*
X341311Y229282D02*
Y242077D01*
X379913Y235680D02*
X392708D01*
X386311Y229282D02*
Y242077D01*
X97307Y359741D02*
X98094D01*
X97701Y359348D02*
Y360135D01*
X91795Y359741D02*
X92583D01*
X92189Y359348D02*
Y360135D01*
X102819Y359741D02*
X103606D01*
X103213Y359348D02*
Y360135D01*
X91795Y354229D02*
X92583D01*
X92189Y353836D02*
Y354623D01*
X97307Y354229D02*
X98094D01*
X97701Y353836D02*
Y354623D01*
X102819Y354229D02*
X103606D01*
X103213Y353836D02*
Y354623D01*
X94551Y362497D02*
X95338D01*
X94945Y362103D02*
Y362891D01*
X100063Y362497D02*
X100850D01*
X100457Y362103D02*
Y362891D01*
X94551Y356985D02*
X95338D01*
X94945Y356592D02*
Y357379D01*
X100063Y356985D02*
X100850D01*
X100457Y356592D02*
Y357379D01*
X94551Y351473D02*
X95338D01*
X94945Y351080D02*
Y351867D01*
X100063Y351473D02*
X100850D01*
X100457Y351080D02*
Y351867D01*
X462008Y377953D02*
X475000D01*
X468504Y371457D02*
Y384449D01*
X280961Y266192D02*
X284465D01*
X282713Y264440D02*
Y267944D01*
X276945Y258200D02*
X280449D01*
X278697Y256448D02*
Y259951D01*
X284937Y258200D02*
X288441D01*
X286689Y256448D02*
Y259951D01*
X292929Y258200D02*
X296433D01*
X294681Y256448D02*
Y259951D01*
X288953Y266192D02*
X292457D01*
X290705Y264440D02*
Y267944D01*
X296945Y266192D02*
X300449D01*
X298697Y264440D02*
Y267944D01*
X304937Y266192D02*
X308441D01*
X306689Y264440D02*
Y267944D01*
X300922Y258200D02*
X304426D01*
X302674Y256448D02*
Y259951D01*
X263796Y235680D02*
X276591D01*
X270193Y229282D02*
Y242077D01*
X308796Y235680D02*
X321591D01*
X315193Y229282D02*
Y242077D01*
X422360Y266127D02*
X425864D01*
X424112Y264375D02*
Y267879D01*
X418344Y258135D02*
X421848D01*
X420096Y256383D02*
Y259887D01*
X426336Y258135D02*
X429840D01*
X428088Y256383D02*
Y259887D01*
X434328Y258135D02*
X437832D01*
X436080Y256383D02*
Y259887D01*
X430352Y266127D02*
X433856D01*
X432104Y264375D02*
Y267879D01*
X438344Y266127D02*
X441848D01*
X440096Y264375D02*
Y267879D01*
X446336Y266127D02*
X449840D01*
X448088Y264375D02*
Y267879D01*
X442320Y258135D02*
X445824D01*
X444072Y256383D02*
Y259887D01*
X405194Y235615D02*
X417990D01*
X411592Y229218D02*
Y242013D01*
X450194Y235615D02*
X462990D01*
X456592Y229218D02*
Y242013D01*
X9252Y224410D02*
X22244D01*
X15748Y217913D02*
Y230906D01*
X164617Y264227D02*
X168554D01*
X166585Y262258D02*
Y266195D01*
X174459Y264227D02*
X178396D01*
X176428Y262258D02*
Y266195D01*
X154774Y264227D02*
X158711D01*
X156743Y262258D02*
Y266195D01*
X144932Y264227D02*
X148869D01*
X146900Y262258D02*
Y266195D01*
X74339Y222440D02*
X78276D01*
X76308Y220472D02*
Y224409D01*
X84182Y222440D02*
X88119D01*
X86150Y220472D02*
Y224409D01*
X64497Y222440D02*
X68434D01*
X66465Y220472D02*
Y224409D01*
X54654Y222440D02*
X58591D01*
X56623Y220472D02*
Y224409D01*
X94024Y222440D02*
X97961D01*
X95993Y220472D02*
Y224409D01*
X103867Y222440D02*
X107804D01*
X105835Y220472D02*
Y224409D01*
X113709Y222440D02*
X117646D01*
X115678Y220472D02*
Y224409D01*
X123552Y222440D02*
X127489D01*
X125520Y220472D02*
Y224409D01*
X133394Y222440D02*
X137331D01*
X135363Y220472D02*
Y224409D01*
X143237Y222440D02*
X147174D01*
X145205Y220472D02*
Y224409D01*
X211452Y266531D02*
X214956D01*
X213204Y264779D02*
Y268283D01*
X207437Y258538D02*
X210941D01*
X209189Y256786D02*
Y260290D01*
X215429Y258538D02*
X218933D01*
X217181Y256786D02*
Y260290D01*
X223421Y258538D02*
X226925D01*
X225173Y256786D02*
Y260290D01*
X219445Y266531D02*
X222949D01*
X221197Y264779D02*
Y268283D01*
X227437Y266531D02*
X230941D01*
X229189Y264779D02*
Y268283D01*
X235429Y266531D02*
X238933D01*
X237181Y264779D02*
Y268283D01*
X231413Y258538D02*
X234917D01*
X233165Y256786D02*
Y260290D01*
X194287Y236019D02*
X207083D01*
X200685Y229621D02*
Y242416D01*
X239287Y236019D02*
X252082D01*
X245685Y229621D02*
Y242416D01*
X18587Y300626D02*
X20949D01*
X19768Y299445D02*
Y301807D01*
X18587Y324248D02*
X20949D01*
X19768Y323067D02*
Y325429D01*
X3823Y295429D02*
X11303D01*
X7563Y291689D02*
Y299169D01*
X3823Y329445D02*
X11303D01*
X7563Y325705D02*
Y333185D01*
X19472Y295429D02*
X25772D01*
X22622Y292280D02*
Y298579D01*
X19472Y329445D02*
X25772D01*
X22622Y326295D02*
Y332595D01*
X109682Y278127D02*
X110863D01*
X110273Y277537D02*
Y278718D01*
X107714Y282064D02*
X108895D01*
X108304Y281473D02*
Y282655D01*
X105745Y278127D02*
X106926D01*
X106336Y277537D02*
Y278718D01*
X103777Y282064D02*
X104958D01*
X104367Y281473D02*
Y282655D01*
X101808Y278127D02*
X102989D01*
X102399Y277537D02*
Y278718D01*
X99840Y282064D02*
X101021D01*
X100430Y281473D02*
Y282655D01*
X97871Y278127D02*
X99052D01*
X98462Y277537D02*
Y278718D01*
X95903Y282064D02*
X97084D01*
X96493Y281473D02*
Y282655D01*
X91966Y384426D02*
X93147D01*
X92556Y383836D02*
Y385017D01*
X89997Y380489D02*
X91178D01*
X90588Y379899D02*
Y381080D01*
X91966Y376552D02*
X93147D01*
X92556Y375962D02*
Y377143D01*
X89997Y372615D02*
X91178D01*
X90588Y372025D02*
Y373206D01*
X91966Y368678D02*
X93147D01*
X92556Y368088D02*
Y369269D01*
X88029Y384426D02*
X89210D01*
X88619Y383836D02*
Y385017D01*
X86060Y380489D02*
X87241D01*
X86651Y379899D02*
Y381080D01*
X88029Y376552D02*
X89210D01*
X88619Y375962D02*
Y377143D01*
X86060Y372615D02*
X87241D01*
X86651Y372025D02*
Y373206D01*
X88029Y368678D02*
X89210D01*
X88619Y368088D02*
Y369269D01*
X84092Y384426D02*
X85273D01*
X84682Y383836D02*
Y385017D01*
X82123Y380489D02*
X83304D01*
X82714Y379899D02*
Y381080D01*
X84092Y376552D02*
X85273D01*
X84682Y375962D02*
Y377143D01*
X84092Y282064D02*
X85273D01*
X84682Y281473D02*
Y282655D01*
X82123Y278127D02*
X83304D01*
X82714Y277537D02*
Y278718D01*
X80155Y384426D02*
X81336D01*
X80745Y383836D02*
Y385017D01*
X78186Y380489D02*
X79367D01*
X78777Y379899D02*
Y381080D01*
X80155Y376552D02*
X81336D01*
X80745Y375962D02*
Y377143D01*
X80155Y282064D02*
X81336D01*
X80745Y281473D02*
Y282655D01*
X76218Y384426D02*
X77399D01*
X76808Y383836D02*
Y385017D01*
X75910Y324000D02*
X77091D01*
X76500Y323410D02*
Y324590D01*
X73162Y326000D02*
X74343D01*
X73753Y325410D02*
Y326590D01*
X118909Y268500D02*
X120091D01*
X119500Y267910D02*
Y269091D01*
X126547Y307852D02*
X127728D01*
X127137Y307261D02*
Y308442D01*
X32409Y388000D02*
X33591D01*
X33000Y387409D02*
Y388591D01*
X385003Y288443D02*
X386184D01*
X385594Y287853D02*
Y289034D01*
X386586Y285789D02*
X387768D01*
X387177Y285199D02*
Y286380D01*
X40083Y258412D02*
X41264D01*
X40673Y257822D02*
Y259003D01*
X246891Y283972D02*
X248072D01*
X247482Y283382D02*
Y284563D01*
X43780Y331698D02*
X44962D01*
X44371Y331107D02*
Y332289D01*
X185224Y382737D02*
X186406D01*
X185815Y382147D02*
Y383328D01*
X185224Y371662D02*
X186406D01*
X185815Y371071D02*
Y372252D01*
X158965Y350107D02*
X160146D01*
X159555Y349517D02*
Y350698D01*
X27264Y326869D02*
X28446D01*
X27855Y326279D02*
Y327460D01*
X47576Y316425D02*
X48757D01*
X48166Y315835D02*
Y317016D01*
X26953Y300134D02*
X28134D01*
X27543Y299543D02*
Y300725D01*
X473204Y350663D02*
X474385D01*
X473794Y350073D02*
Y351254D01*
X472307Y284640D02*
X473488D01*
X472898Y284050D02*
Y285231D01*
X466798Y288832D02*
X467979D01*
X467389Y288241D02*
Y289422D01*
X452546Y288832D02*
X453727D01*
X453137Y288241D02*
Y289422D01*
X406541Y284723D02*
X407722D01*
X407131Y284133D02*
Y285314D01*
X399958Y288749D02*
X401139D01*
X400549Y288158D02*
Y289339D01*
X333992Y283662D02*
X335173D01*
X334582Y283072D02*
Y284253D01*
X328995Y288832D02*
X330176D01*
X329585Y288241D02*
Y289422D01*
X314743Y288832D02*
X315924D01*
X315333Y288241D02*
Y289422D01*
X313095Y285427D02*
X314276D01*
X313686Y284836D02*
Y286017D01*
X266288Y284555D02*
X267469D01*
X266879Y283964D02*
Y285145D01*
X246945Y288832D02*
X248126D01*
X247535Y288241D02*
Y289422D01*
X261197Y288832D02*
X262378D01*
X261787Y288241D02*
Y289422D01*
X41358Y298189D02*
X42539D01*
X41949Y297598D02*
Y298779D01*
X33390Y384090D02*
X34571D01*
X33980Y383500D02*
Y384681D01*
X37073Y345345D02*
X38254D01*
X37663Y344755D02*
Y345936D01*
X24138Y287423D02*
X25319D01*
X24728Y286833D02*
Y288014D01*
X39236Y214048D02*
X40418D01*
X39827Y213458D02*
Y214639D01*
X73104Y333470D02*
X74285D01*
X73694Y332879D02*
Y334060D01*
X215196Y273404D02*
X216377D01*
X215786Y272813D02*
Y273994D01*
X212046Y273404D02*
X213227D01*
X212637Y272813D02*
Y273994D01*
X208896Y273404D02*
X210078D01*
X209487Y272813D02*
Y273994D01*
X207322Y276554D02*
X208503D01*
X207912Y275963D02*
Y277144D01*
X205747Y273404D02*
X206928D01*
X206337Y272813D02*
Y273994D01*
X207322Y270254D02*
X208503D01*
X207912Y269664D02*
Y270845D01*
X205747Y267105D02*
X206928D01*
X206337Y266514D02*
Y267695D01*
X207322Y263955D02*
X208503D01*
X207912Y263365D02*
Y264546D01*
X205747Y254506D02*
X206928D01*
X206337Y253916D02*
Y255097D01*
X202597Y279703D02*
X203778D01*
X203188Y279113D02*
Y280294D01*
X204172Y276554D02*
X205353D01*
X204763Y275963D02*
Y277144D01*
X202597Y273404D02*
X203778D01*
X203188Y272813D02*
Y273994D01*
X204172Y270254D02*
X205353D01*
X204763Y269664D02*
Y270845D01*
X202597Y267105D02*
X203778D01*
X203188Y266514D02*
Y267695D01*
X204172Y263955D02*
X205353D01*
X204763Y263365D02*
Y264546D01*
X202597Y260806D02*
X203778D01*
X203188Y260215D02*
Y261396D01*
X202597Y254506D02*
X203778D01*
X203188Y253916D02*
Y255097D01*
X201023Y282853D02*
X202204D01*
X201613Y282262D02*
Y283443D01*
X199448Y279703D02*
X200629D01*
X200038Y279113D02*
Y280294D01*
X201023Y276554D02*
X202204D01*
X201613Y275963D02*
Y277144D01*
X199448Y273404D02*
X200629D01*
X200038Y272813D02*
Y273994D01*
X201023Y270254D02*
X202204D01*
X201613Y269664D02*
Y270845D01*
X199448Y267105D02*
X200629D01*
X200038Y266514D02*
Y267695D01*
X201023Y263955D02*
X202204D01*
X201613Y263365D02*
Y264546D01*
X199448Y260806D02*
X200629D01*
X200038Y260215D02*
Y261396D01*
X201023Y257656D02*
X202204D01*
X201613Y257065D02*
Y258246D01*
X199448Y254506D02*
X200629D01*
X200038Y253916D02*
Y255097D01*
X196298Y286002D02*
X197479D01*
X196889Y285412D02*
Y286593D01*
X197873Y282853D02*
X199054D01*
X198463Y282262D02*
Y283443D01*
X196298Y279703D02*
X197479D01*
X196889Y279113D02*
Y280294D01*
X197873Y276554D02*
X199054D01*
X198463Y275963D02*
Y277144D01*
X196298Y273404D02*
X197479D01*
X196889Y272813D02*
Y273994D01*
X197873Y270254D02*
X199054D01*
X198463Y269664D02*
Y270845D01*
X196298Y267105D02*
X197479D01*
X196889Y266514D02*
Y267695D01*
X197873Y263955D02*
X199054D01*
X198463Y263365D02*
Y264546D01*
X196298Y260806D02*
X197479D01*
X196889Y260215D02*
Y261396D01*
X197873Y257656D02*
X199054D01*
X198463Y257065D02*
Y258246D01*
X194723Y289152D02*
X195904D01*
X195314Y288561D02*
Y289742D01*
X193149Y286002D02*
X194330D01*
X193739Y285412D02*
Y286593D01*
X194723Y282853D02*
X195904D01*
X195314Y282262D02*
Y283443D01*
X193149Y279703D02*
X194330D01*
X193739Y279113D02*
Y280294D01*
X194723Y276554D02*
X195904D01*
X195314Y275963D02*
Y277144D01*
X193149Y273404D02*
X194330D01*
X193739Y272813D02*
Y273994D01*
X194723Y270254D02*
X195904D01*
X195314Y269664D02*
Y270845D01*
X193149Y267105D02*
X194330D01*
X193739Y266514D02*
Y267695D01*
X194723Y263955D02*
X195904D01*
X195314Y263365D02*
Y264546D01*
X193149Y260806D02*
X194330D01*
X193739Y260215D02*
Y261396D01*
X194723Y257656D02*
X195904D01*
X195314Y257065D02*
Y258246D01*
X191574Y289152D02*
X192755D01*
X192164Y288561D02*
Y289742D01*
X189999Y286002D02*
X191180D01*
X190589Y285412D02*
Y286593D01*
X191574Y282853D02*
X192755D01*
X192164Y282262D02*
Y283443D01*
X189999Y279703D02*
X191180D01*
X190589Y279113D02*
Y280294D01*
X191574Y276554D02*
X192755D01*
X192164Y275963D02*
Y277144D01*
X189999Y273404D02*
X191180D01*
X190589Y272813D02*
Y273994D01*
X191574Y270254D02*
X192755D01*
X192164Y269664D02*
Y270845D01*
X189999Y267105D02*
X191180D01*
X190589Y266514D02*
Y267695D01*
X191574Y263955D02*
X192755D01*
X192164Y263365D02*
Y264546D01*
X188424Y289152D02*
X189605D01*
X189015Y288561D02*
Y289742D01*
X186849Y286002D02*
X188030D01*
X187440Y285412D02*
Y286593D01*
X188424Y282853D02*
X189605D01*
X189015Y282262D02*
Y283443D01*
X186849Y279703D02*
X188030D01*
X187440Y279113D02*
Y280294D01*
X188424Y276554D02*
X189605D01*
X189015Y275963D02*
Y277144D01*
X186849Y273404D02*
X188030D01*
X187440Y272813D02*
Y273994D01*
X188424Y270254D02*
X189605D01*
X189015Y269664D02*
Y270845D01*
X186849Y267105D02*
X188030D01*
X187440Y266514D02*
Y267695D01*
X188424Y263955D02*
X189605D01*
X189015Y263365D02*
Y264546D01*
X64119Y345952D02*
X65301D01*
X64710Y345361D02*
Y346543D01*
X58746Y289152D02*
X59928D01*
X59337Y288561D02*
Y289742D01*
X126847Y338452D02*
X128028D01*
X127437Y337861D02*
Y339042D01*
X125524Y312489D02*
X126705D01*
X126114Y311899D02*
Y313080D01*
X118246Y312952D02*
X119428D01*
X118837Y312361D02*
Y313543D01*
X53146Y332752D02*
X54328D01*
X53737Y332161D02*
Y333343D01*
X49089Y294862D02*
X50270D01*
X49680Y294271D02*
Y295452D01*
X50831Y349602D02*
X52012D01*
X51422Y349011D02*
Y350192D01*
X62492Y349602D02*
X63673D01*
X63083Y349011D02*
Y350192D01*
X142410Y387379D02*
X143591D01*
X143000Y386788D02*
Y387969D01*
X234206Y276609D02*
X235387D01*
X234796Y276019D02*
Y277200D01*
X306189Y277522D02*
X307370D01*
X306780Y276931D02*
Y278113D01*
X372530Y277372D02*
X373711D01*
X373121Y276781D02*
Y277962D01*
X440758Y278131D02*
X441939D01*
X441348Y277540D02*
Y278721D01*
X452493Y283517D02*
X453674D01*
X453083Y282926D02*
Y284107D01*
X142355Y342094D02*
X143536D01*
X142946Y341503D02*
Y342685D01*
X142257Y337207D02*
X143438D01*
X142848Y336616D02*
Y337797D01*
X130898Y312641D02*
X132080D01*
X131489Y312050D02*
Y313231D01*
M02*
