G04*
G04 #@! TF.GenerationSoftware,Altium Limited,Altium Designer,22.11.1 (43)*
G04*
G04 Layer_Color=65535*
%FSLAX25Y25*%
%MOIN*%
G70*
G04*
G04 #@! TF.SameCoordinates,86DA71BE-ED10-4D6F-9541-DF3680A4200E*
G04*
G04*
G04 #@! TF.FilePolarity,Positive*
G04*
G01*
G75*
%ADD10C,0.00984*%
%ADD11C,0.00787*%
%ADD12C,0.00591*%
%ADD13C,0.00600*%
%ADD14C,0.00500*%
%ADD15C,0.01000*%
%ADD16C,0.00300*%
%ADD17C,0.00602*%
D10*
X143260Y55575D02*
G03*
X143260Y55575I-492J0D01*
G01*
D11*
X201690Y123031D02*
G03*
X201690Y123031I-394J0D01*
G01*
X147190Y103863D02*
G03*
X147190Y103863I-394J0D01*
G01*
X75468Y49480D02*
G03*
X75468Y49480I-394J0D01*
G01*
Y142976D02*
G03*
X75468Y142976I-394J0D01*
G01*
X201690Y29520D02*
G03*
X201690Y29520I-394J0D01*
G01*
X73208Y92492D02*
X81869D01*
X73208Y70839D02*
Y92492D01*
Y70839D02*
X77539Y66508D01*
X81869D01*
X90531Y92492D02*
X99192D01*
Y70839D02*
Y92492D01*
X94861Y66508D02*
X99192Y70839D01*
X90531Y66508D02*
X94861D01*
X173056Y168744D02*
X181717D01*
X173056Y147091D02*
Y168744D01*
Y147091D02*
X177387Y142760D01*
X181717D01*
X190379Y168744D02*
X199040D01*
Y147091D02*
Y168744D01*
X194710Y142760D02*
X199040Y147091D01*
X190379Y142760D02*
X194710D01*
X175908Y54535D02*
X184569D01*
X175908Y32881D02*
Y54535D01*
Y32881D02*
X180239Y28550D01*
X184569D01*
X193231Y54535D02*
X201892D01*
Y32881D02*
Y54535D01*
X197561Y28550D02*
X201892Y32881D01*
X193231Y28550D02*
X197561D01*
X103108Y72308D02*
Y80969D01*
Y72308D02*
X124761D01*
X129092Y76639D01*
Y80969D01*
X103108Y89631D02*
Y98292D01*
X124761D01*
X129092Y93961D01*
Y89631D02*
Y93961D01*
X77008Y153440D02*
X85669D01*
X77008Y131787D02*
Y153440D01*
Y131787D02*
X81339Y127456D01*
X85669D01*
X94331Y153440D02*
X102992D01*
Y131787D02*
Y153440D01*
X98661Y127456D02*
X102992Y131787D01*
X94331Y127456D02*
X98661D01*
X86854Y51813D02*
X99453D01*
X86854Y25829D02*
Y51813D01*
Y25829D02*
X99453D01*
Y51813D01*
X113960D02*
X126558D01*
X113960Y25829D02*
Y51813D01*
Y25829D02*
X126558D01*
Y51813D01*
X152512Y25949D02*
X166488D01*
X152512Y57051D02*
X166488D01*
D12*
X151808Y14114D02*
Y15295D01*
X140785D02*
X151808D01*
X140785Y14114D02*
Y15295D01*
Y9783D02*
Y10964D01*
Y9783D02*
X151808D01*
Y10964D01*
X146297Y9783D02*
Y15295D01*
X159289Y9783D02*
Y10964D01*
Y9783D02*
X170313D01*
Y10964D01*
Y14114D02*
Y15295D01*
X159289D02*
X170313D01*
X159289Y14114D02*
Y15295D01*
X164801Y9783D02*
Y15295D01*
X120500Y59744D02*
Y65256D01*
X125500Y59744D02*
Y60500D01*
X115500Y59744D02*
X125500D01*
X115500D02*
Y60500D01*
Y64500D02*
Y65256D01*
X125500D01*
Y64500D02*
Y65256D01*
X120980Y135247D02*
X119930D01*
X120455D01*
Y132623D01*
X119930Y132098D01*
X119405D01*
X118881Y132623D01*
X122029Y135247D02*
Y132098D01*
X124128D01*
X127277Y134722D02*
X126752Y135247D01*
X125703D01*
X125178Y134722D01*
Y132623D01*
X125703Y132098D01*
X126752D01*
X127277Y132623D01*
X130426Y135247D02*
X129376D01*
X129901D01*
Y132623D01*
X129376Y132098D01*
X128851D01*
X128326Y132623D01*
X131475Y135247D02*
Y132098D01*
X133574D01*
X136723Y134722D02*
X136198Y135247D01*
X135149D01*
X134624Y134722D01*
Y132623D01*
X135149Y132098D01*
X136198D01*
X136723Y132623D01*
X139871Y135247D02*
X138822D01*
X139347D01*
Y132623D01*
X138822Y132098D01*
X138297D01*
X137772Y132623D01*
X140921Y135247D02*
Y132098D01*
X143020D01*
X146168Y134722D02*
X145644Y135247D01*
X144594D01*
X144070Y134722D01*
Y132623D01*
X144594Y132098D01*
X145644D01*
X146168Y132623D01*
X149317Y135247D02*
X148268D01*
X148792D01*
Y132623D01*
X148268Y132098D01*
X147743D01*
X147218Y132623D01*
X150367Y135247D02*
Y132098D01*
X152466D01*
X155614Y134722D02*
X155089Y135247D01*
X154040D01*
X153515Y134722D01*
Y132623D01*
X154040Y132098D01*
X155089D01*
X155614Y132623D01*
D13*
X141015Y72969D02*
Y73940D01*
Y94569D02*
X157415D01*
X141015Y93599D02*
Y94569D01*
Y72969D02*
X157415D01*
Y73940D01*
Y93599D02*
Y94569D01*
D14*
X203265Y102520D02*
Y163504D01*
X267674D01*
Y102520D02*
Y163504D01*
X203265Y102520D02*
X267674D01*
X106324Y105832D02*
X167308D01*
X106324D02*
Y170241D01*
X167308D01*
Y105832D02*
Y170241D01*
X73106Y9008D02*
Y69992D01*
X8697Y9008D02*
X73106D01*
X8697D02*
Y69992D01*
X73106D01*
Y102504D02*
Y163488D01*
X8697Y102504D02*
X73106D01*
X8697D02*
Y163488D01*
X73106D01*
X203265Y9008D02*
Y69992D01*
X267674D01*
Y9008D02*
Y69992D01*
X203265Y9008D02*
X267674D01*
D15*
X40176Y170195D02*
X38602D01*
X37815Y169408D01*
Y166260D01*
X38602Y165472D01*
X40176D01*
X40963Y166260D01*
Y169408D01*
X40176Y170195D01*
X42538D02*
Y166260D01*
X43325Y165472D01*
X44899D01*
X45686Y166260D01*
Y170195D01*
X47260D02*
X50409D01*
X48835D01*
Y165472D01*
X56706Y169408D02*
X57493Y170195D01*
X59068D01*
X59855Y169408D01*
Y168621D01*
X59068Y167834D01*
X58280D01*
X59068D01*
X59855Y167047D01*
Y166260D01*
X59068Y165472D01*
X57493D01*
X56706Y166260D01*
X41322Y76699D02*
X39748D01*
X38961Y75912D01*
Y72764D01*
X39748Y71976D01*
X41322D01*
X42109Y72764D01*
Y75912D01*
X41322Y76699D01*
X43684D02*
Y72764D01*
X44471Y71976D01*
X46045D01*
X46832Y72764D01*
Y76699D01*
X48406D02*
X51555D01*
X49981D01*
Y71976D01*
X61001D02*
X57852D01*
X61001Y75125D01*
Y75912D01*
X60214Y76699D01*
X58639D01*
X57852Y75912D01*
X221663Y170195D02*
X220089D01*
X219302Y169408D01*
Y166260D01*
X220089Y165472D01*
X221663D01*
X222450Y166260D01*
Y169408D01*
X221663Y170195D01*
X224025D02*
Y166260D01*
X224812Y165472D01*
X226386D01*
X227173Y166260D01*
Y170195D01*
X228747D02*
X231896D01*
X230322D01*
Y165472D01*
X238193D02*
X239767D01*
X238980D01*
Y170195D01*
X238193Y169408D01*
X223861Y77123D02*
X222287D01*
X221500Y76336D01*
Y73187D01*
X222287Y72400D01*
X223861D01*
X224649Y73187D01*
Y76336D01*
X223861Y77123D01*
X226223D02*
Y73187D01*
X227010Y72400D01*
X228584D01*
X229372Y73187D01*
Y77123D01*
X230946D02*
X234094D01*
X232520D01*
Y72400D01*
X240391Y76336D02*
X241179Y77123D01*
X242753D01*
X243540Y76336D01*
Y73187D01*
X242753Y72400D01*
X241179D01*
X240391Y73187D01*
Y76336D01*
X96500Y117423D02*
X98074D01*
X97287D01*
Y112700D01*
X96500D01*
X98074D01*
X100436D02*
Y117423D01*
X103584Y112700D01*
Y117423D01*
D16*
X162065Y70584D02*
X158733Y73917D01*
X162065D02*
X158733Y70584D01*
X162065Y72251D02*
X158733D01*
X160399Y73917D02*
Y70584D01*
D17*
X144501Y20353D02*
X143845Y21009D01*
X142533D01*
X141877Y20353D01*
Y17729D01*
X142533Y17073D01*
X143845D01*
X144501Y17729D01*
X145813Y17073D02*
X147125D01*
X146468D01*
Y21009D01*
X145813Y20353D01*
X149092D02*
X149748Y21009D01*
X151060D01*
X151716Y20353D01*
Y17729D01*
X151060Y17073D01*
X149748D01*
X149092Y17729D01*
Y20353D01*
X164144Y20612D02*
X163488Y21268D01*
X162176D01*
X161520Y20612D01*
Y17988D01*
X162176Y17332D01*
X163488D01*
X164144Y17988D01*
X165456D02*
X166112Y17332D01*
X167424D01*
X168080Y17988D01*
Y20612D01*
X167424Y21268D01*
X166112D01*
X165456Y20612D01*
Y19956D01*
X166112Y19300D01*
X168080D01*
X117520Y66432D02*
Y70368D01*
X119488D01*
X120144Y69712D01*
Y68400D01*
X119488Y67744D01*
X117520D01*
X118832D02*
X120144Y66432D01*
X121456Y69712D02*
X122112Y70368D01*
X123424D01*
X124080Y69712D01*
Y69056D01*
X123424Y68400D01*
X122768D01*
X123424D01*
X124080Y67744D01*
Y67088D01*
X123424Y66432D01*
X122112D01*
X121456Y67088D01*
X134708Y100120D02*
Y96840D01*
X135364Y96184D01*
X136676D01*
X137332Y96840D01*
Y100120D01*
X141268Y96184D02*
X138644D01*
X141268Y98808D01*
Y99464D01*
X140612Y100120D01*
X139300D01*
X138644Y99464D01*
X79388Y120544D02*
X78732Y119888D01*
Y118576D01*
X79388Y117920D01*
X82012D01*
X82668Y118576D01*
Y119888D01*
X82012Y120544D01*
X79388Y121856D02*
X78732Y122512D01*
Y123824D01*
X79388Y124480D01*
X80044D01*
X80700Y123824D01*
X81356Y124480D01*
X82012D01*
X82668Y123824D01*
Y122512D01*
X82012Y121856D01*
X81356D01*
X80700Y122512D01*
X80044Y121856D01*
X79388D01*
X80700Y122512D02*
Y123824D01*
X89874Y56335D02*
Y60270D01*
X91842D01*
X92498Y59614D01*
Y58302D01*
X91842Y57646D01*
X89874D01*
X91186D02*
X92498Y56335D01*
X96433D02*
X93810D01*
X96433Y58958D01*
Y59614D01*
X95777Y60270D01*
X94466D01*
X93810Y59614D01*
X117635Y54652D02*
Y58587D01*
X119603D01*
X120259Y57931D01*
Y56620D01*
X119603Y55963D01*
X117635D01*
X118947D02*
X120259Y54652D01*
X121571D02*
X122883D01*
X122227D01*
Y58587D01*
X121571Y57931D01*
X75988Y58944D02*
X75332Y58288D01*
Y56976D01*
X75988Y56320D01*
X78612D01*
X79268Y56976D01*
Y58288D01*
X78612Y58944D01*
X79268Y62224D02*
X75332D01*
X77300Y60256D01*
Y62880D01*
X106044Y103612D02*
X105388Y104268D01*
X104076D01*
X103420Y103612D01*
Y100988D01*
X104076Y100332D01*
X105388D01*
X106044Y100988D01*
X107356Y103612D02*
X108012Y104268D01*
X109324D01*
X109980Y103612D01*
Y102956D01*
X109324Y102300D01*
X108668D01*
X109324D01*
X109980Y101644D01*
Y100988D01*
X109324Y100332D01*
X108012D01*
X107356Y100988D01*
X174588Y137444D02*
X173932Y136788D01*
Y135476D01*
X174588Y134820D01*
X177212D01*
X177868Y135476D01*
Y136788D01*
X177212Y137444D01*
X177868Y141380D02*
Y138756D01*
X175244Y141380D01*
X174588D01*
X173932Y140724D01*
Y139412D01*
X174588Y138756D01*
X179312Y23755D02*
X178656Y23099D01*
Y21787D01*
X179312Y21131D01*
X181935D01*
X182591Y21787D01*
Y23099D01*
X181935Y23755D01*
X182591Y25067D02*
Y26379D01*
Y25723D01*
X178656D01*
X179312Y25067D01*
X205195Y169337D02*
X203883D01*
X204539D01*
Y166057D01*
X203883Y165401D01*
X203227D01*
X202571Y166057D01*
X209131Y165401D02*
X206507D01*
X209131Y168025D01*
Y168681D01*
X208475Y169337D01*
X207163D01*
X206507Y168681D01*
X99544Y110368D02*
X98232D01*
X98888D01*
Y107088D01*
X98232Y106432D01*
X97576D01*
X96920Y107088D01*
X100856Y109712D02*
X101512Y110368D01*
X102824D01*
X103480Y109712D01*
Y109056D01*
X102824Y108400D01*
X102168D01*
X102824D01*
X103480Y107744D01*
Y107088D01*
X102824Y106432D01*
X101512D01*
X100856Y107088D01*
X67781Y75825D02*
X66469D01*
X67125D01*
Y72545D01*
X66469Y71889D01*
X65813D01*
X65157Y72545D01*
X71061Y71889D02*
Y75825D01*
X69093Y73857D01*
X71717D01*
X67781Y169010D02*
X66469D01*
X67125D01*
Y165731D01*
X66469Y165075D01*
X65813D01*
X65157Y165731D01*
X71717Y169010D02*
X69093D01*
Y167043D01*
X70405Y167699D01*
X71061D01*
X71717Y167043D01*
Y165731D01*
X71061Y165075D01*
X69749D01*
X69093Y165731D01*
X207400Y76368D02*
X206088D01*
X206744D01*
Y73088D01*
X206088Y72432D01*
X205432D01*
X204776Y73088D01*
X208712Y72432D02*
X210024D01*
X209368D01*
Y76368D01*
X208712Y75712D01*
X145125Y66417D02*
Y63137D01*
X145781Y62481D01*
X147092D01*
X147748Y63137D01*
Y66417D01*
X149060Y62481D02*
X150372D01*
X149716D01*
Y66417D01*
X149060Y65761D01*
M02*
