G04*
G04 #@! TF.GenerationSoftware,Altium Limited,Altium Designer,22.11.1 (43)*
G04*
G04 Layer_Color=2752767*
%FSLAX25Y25*%
%MOIN*%
G70*
G04*
G04 #@! TF.SameCoordinates,86DA71BE-ED10-4D6F-9541-DF3680A4200E*
G04*
G04*
G04 #@! TF.FilePolarity,Positive*
G04*
G01*
G75*
%ADD45C,0.00200*%
%ADD46C,0.00267*%
D45*
X211559Y122232D02*
Y123832D01*
X213159D01*
Y122232D01*
X211559D01*
X219551Y118216D02*
Y119816D01*
X221151D01*
Y118216D01*
X219551D01*
Y126208D02*
Y127808D01*
X221151D01*
Y126208D01*
X219551D01*
Y134200D02*
Y135800D01*
X221151D01*
Y134200D01*
X219551D01*
X211559Y130224D02*
Y131824D01*
X213159D01*
Y130224D01*
X211559D01*
Y138216D02*
Y139816D01*
X213159D01*
Y138216D01*
X211559D01*
Y146208D02*
Y147808D01*
X213159D01*
Y146208D01*
X211559D01*
X219551Y142192D02*
Y143792D01*
X221151D01*
Y142192D01*
X219551D01*
X145996Y114126D02*
Y115726D01*
X147597D01*
Y114126D01*
X145996D01*
X150012Y122118D02*
Y123718D01*
X151612D01*
Y122118D01*
X150012D01*
X142020D02*
Y123718D01*
X143620D01*
Y122118D01*
X142020D01*
X134028D02*
Y123718D01*
X135628D01*
Y122118D01*
X134028D01*
X138004Y114126D02*
Y115726D01*
X139604D01*
Y114126D01*
X138004D01*
X130012D02*
Y115726D01*
X131612D01*
Y114126D01*
X130012D01*
X122020D02*
Y115726D01*
X123620D01*
Y114126D01*
X122020D01*
X126036Y122118D02*
Y123718D01*
X127636D01*
Y122118D01*
X126036D01*
X63212Y48680D02*
Y50280D01*
X64812D01*
Y48680D01*
X63212D01*
X55220Y52696D02*
Y54296D01*
X56820D01*
Y52696D01*
X55220D01*
Y44704D02*
Y46304D01*
X56820D01*
Y44704D01*
X55220D01*
Y36712D02*
Y38312D01*
X56820D01*
Y36712D01*
X55220D01*
X63212Y40688D02*
Y42288D01*
X64812D01*
Y40688D01*
X63212D01*
Y32696D02*
Y34296D01*
X64812D01*
Y32696D01*
X63212D01*
Y24704D02*
Y26304D01*
X64812D01*
Y24704D01*
X63212D01*
X55220Y28720D02*
Y30320D01*
X56820D01*
Y28720D01*
X55220D01*
X63212Y142176D02*
Y143776D01*
X64812D01*
Y142176D01*
X63212D01*
X55220Y146192D02*
Y147792D01*
X56820D01*
Y146192D01*
X55220D01*
Y138200D02*
Y139800D01*
X56820D01*
Y138200D01*
X55220D01*
Y130208D02*
Y131808D01*
X56820D01*
Y130208D01*
X55220D01*
X63212Y134184D02*
Y135784D01*
X64812D01*
Y134184D01*
X63212D01*
Y126192D02*
Y127792D01*
X64812D01*
Y126192D01*
X63212D01*
Y118200D02*
Y119800D01*
X64812D01*
Y118200D01*
X63212D01*
X55220Y122216D02*
Y123816D01*
X56820D01*
Y122216D01*
X55220D01*
X211559Y28720D02*
Y30320D01*
X213159D01*
Y28720D01*
X211559D01*
X219551Y24704D02*
Y26304D01*
X221151D01*
Y24704D01*
X219551D01*
Y32696D02*
Y34296D01*
X221151D01*
Y32696D01*
X219551D01*
Y40688D02*
Y42288D01*
X221151D01*
Y40688D01*
X219551D01*
X211559Y36712D02*
Y38312D01*
X213159D01*
Y36712D01*
X211559D01*
Y44704D02*
Y46304D01*
X213159D01*
Y44704D01*
X211559D01*
Y52696D02*
Y54296D01*
X213159D01*
Y52696D01*
X211559D01*
X219551Y48680D02*
Y50280D01*
X221151D01*
Y48680D01*
X219551D01*
X109584Y48400D02*
X108784Y50000D01*
X110384D01*
X109584Y48400D01*
X112300Y45500D02*
X111500Y47100D01*
X113100D01*
X112300Y45500D01*
X162600Y78200D02*
X161800Y79800D01*
X163400D01*
X162600Y78200D01*
X137100Y66300D02*
X136300Y67900D01*
X137900D01*
X137100Y66300D01*
X132628Y66181D02*
X131828Y67781D01*
X133428D01*
X132628Y66181D01*
X147460Y24884D02*
X146660Y26484D01*
X148260D01*
X147460Y24884D01*
X149113Y14495D02*
X148313Y16095D01*
X149913D01*
X149113Y14495D01*
X148974Y8983D02*
X148174Y10583D01*
X149774D01*
X148974Y8983D01*
X151611Y11739D02*
X150812Y13339D01*
X152411D01*
X151611Y11739D01*
X162037Y14495D02*
X161237Y16095D01*
X162837D01*
X162037Y14495D01*
X159486Y11739D02*
X158686Y13339D01*
X160286D01*
X159486Y11739D01*
X162144Y8956D02*
X161344Y10556D01*
X162944D01*
X162144Y8956D01*
X195100Y52300D02*
X194300Y53900D01*
X195900D01*
X195100Y52300D01*
X194600Y49000D02*
X193800Y50600D01*
X195400D01*
X194600Y49000D01*
X194000Y45100D02*
X193200Y46700D01*
X194800D01*
X194000Y45100D01*
X143101Y79500D02*
X142301Y81100D01*
X143901D01*
X143101Y79500D01*
Y82900D02*
X142301Y84500D01*
X143901D01*
X143101Y82900D01*
Y86296D02*
X142301Y87897D01*
X143901D01*
X143101Y86296D01*
X139200Y53500D02*
X138400Y55100D01*
X140000D01*
X139200Y53500D01*
X158620Y94327D02*
X157820Y95927D01*
X159420D01*
X158620Y94327D01*
X164998Y82700D02*
X164198Y84300D01*
X165798D01*
X164998Y82700D01*
X181020Y90527D02*
X180220Y92127D01*
X181820D01*
X181020Y90527D01*
X164998Y86097D02*
X164198Y87696D01*
X165798D01*
X164998Y86097D01*
X123600Y56400D02*
X122800Y58000D01*
X124400D01*
X123600Y56400D01*
X167175Y47340D02*
X166375Y48940D01*
X167975D01*
X167175Y47340D01*
X151732Y52052D02*
X150932Y53652D01*
X152532D01*
X151732Y52052D01*
X148332Y54952D02*
X147532Y56552D01*
X149132D01*
X148332Y54952D01*
X217520Y90727D02*
X216720Y92327D01*
X218320D01*
X217520Y90727D01*
X199220Y90527D02*
X198420Y92127D01*
X200020D01*
X199220Y90527D01*
X153115Y74220D02*
X152315Y75820D01*
X153915D01*
X153115Y74220D01*
X105990Y89279D02*
X105190Y90879D01*
X106790D01*
X105990Y89279D01*
X109386D02*
X108586Y90879D01*
X110186D01*
X109386Y89279D01*
X102590D02*
X101790Y90879D01*
X103390D01*
X102590Y89279D01*
X81000Y90200D02*
X80200Y91800D01*
X81800D01*
X81000Y90200D01*
Y86804D02*
X80200Y88403D01*
X81800D01*
X81000Y86804D01*
Y93600D02*
X80200Y95200D01*
X81800D01*
X81000Y93600D01*
X84880Y148161D02*
X84080Y149761D01*
X85680D01*
X84880Y148161D01*
Y151381D02*
X84080Y152981D01*
X85680D01*
X84880Y151381D01*
Y154751D02*
X84080Y156351D01*
X85680D01*
X84880Y154751D01*
X190607Y161138D02*
X189807Y162739D01*
X191407D01*
X190607Y161138D01*
Y167935D02*
X189807Y169535D01*
X191407D01*
X190607Y167935D01*
Y164539D02*
X189807Y166139D01*
X191407D01*
X190607Y164539D01*
X107937Y30152D02*
X107137Y31752D01*
X108737D01*
X107937Y30152D01*
X111437Y39595D02*
X110637Y41195D01*
X112237D01*
X111437Y39595D01*
X100087Y36102D02*
X99287Y37702D01*
X100887D01*
X100087Y36102D01*
D46*
X243671Y110512D02*
G03*
X243671Y110512I-800J0D01*
G01*
Y155512D02*
G03*
X243671Y155512I-800J0D01*
G01*
X160116Y145438D02*
G03*
X160116Y145438I-800J0D01*
G01*
X115116D02*
G03*
X115116Y145438I-800J0D01*
G01*
X34300Y62000D02*
G03*
X34300Y62000I-800J0D01*
G01*
Y17000D02*
G03*
X34300Y17000I-800J0D01*
G01*
Y155496D02*
G03*
X34300Y155496I-800J0D01*
G01*
Y110496D02*
G03*
X34300Y110496I-800J0D01*
G01*
X243671Y17000D02*
G03*
X243671Y17000I-800J0D01*
G01*
Y62000D02*
G03*
X243671Y62000I-800J0D01*
G01*
M02*
