M48
;Layer_Color=9474304
;FILE_FORMAT=2:5
INCH,LZ
;TYPE=PLATED
T1F00S00C0.01181
T2F00S00C0.03504
;TYPE=NON_PLATED
T3F00S00C0.12795
%
T01
X0148974Y0009783
X0151611Y0012539
X0149113Y0015295
X014746Y0025684
X0162037Y0015295
X0159486Y0012539
X0162144Y0009756
X0167175Y004814
X0151732Y0052852
X0148332Y0055752
X01392Y00543
X01371Y00671
X0132628Y0066981
X0143101Y00803
Y00837
Y0087097
X0153115Y007502
X01626Y0079
X0164998Y00835
Y0086897
X015862Y0095127
X018102Y0091327
X019922
X021752Y0091527
X01951Y00531
X01946Y00498
X0194Y00459
X01236Y00572
X0109584Y00492
X01123Y00463
X0111437Y0040395
X0107937Y0030952
X0100087Y0036902
X010259Y0090079
X010599
X0109386
X0081Y0091
Y0087603
Y00944
X008488Y0148961
Y0152181
Y0155551
X0190607Y0161939
Y0165339
Y0168735
T02
X0212359Y002952
Y0037512
Y0045504
Y0053496
X0220351Y004948
Y0041488
Y0033496
Y0025504
X0220351Y0119016
Y0127008
Y0135
Y0142992
X0212359Y0139016
Y0131024
Y0123032
X0150812Y0122918
X014282
X0134828
X0138804Y0114926
X0146797
X0130812
X012282
X0126836Y0122918
X0064012Y0119
Y0126992
Y0134984
Y0142976
X005602Y0139
Y0131008
Y0123016
Y0053496
Y0045504
Y0037512
Y002952
X0064012Y0033496
Y0025504
Y0041488
Y004948
X005602Y0146992
X0212359Y0147008
T03
X0242871Y0017
Y0062
X0242871Y0110512
X00335Y0110496
Y0062
Y0017
Y0155496
X0114316Y0145438
X0159316
X0242871Y0155512
M30
