G04*
G04 #@! TF.GenerationSoftware,Altium Limited,Altium Designer,22.11.1 (43)*
G04*
G04 Layer_Color=8388736*
%FSLAX25Y25*%
%MOIN*%
G70*
G04*
G04 #@! TF.SameCoordinates,3125327F-633B-4DE6-8F98-D116A0B0FB6F*
G04*
G04*
G04 #@! TF.FilePolarity,Negative*
G04*
G01*
G75*
%ADD33R,0.06000X0.02000*%
%ADD34R,0.06000X0.07000*%
%ADD35R,0.03937X0.12598*%
%ADD36R,0.03543X0.03150*%
%ADD37R,0.03150X0.03543*%
%ADD38R,0.07874X0.03937*%
%ADD39R,0.03937X0.01063*%
%ADD40R,0.03937X0.02047*%
%ADD41R,0.03898X0.01181*%
%ADD43R,0.06699X0.11424*%
%ADD44R,0.03943X0.03943*%
%ADD45R,0.06306X0.03943*%
%ADD46R,0.03943X0.06306*%
%ADD47R,0.04140X0.03747*%
G04:AMPARAMS|DCode=48|XSize=50.85mil|YSize=19.75mil|CornerRadius=5.94mil|HoleSize=0mil|Usage=FLASHONLY|Rotation=180.000|XOffset=0mil|YOffset=0mil|HoleType=Round|Shape=RoundedRectangle|*
%AMROUNDEDRECTD48*
21,1,0.05085,0.00787,0,0,180.0*
21,1,0.03898,0.01975,0,0,180.0*
1,1,0.01187,-0.01949,0.00394*
1,1,0.01187,0.01949,0.00394*
1,1,0.01187,0.01949,-0.00394*
1,1,0.01187,-0.01949,-0.00394*
%
%ADD48ROUNDEDRECTD48*%
%ADD49R,0.04337X0.03943*%
%ADD50R,0.03747X0.04140*%
%ADD51R,0.03550X0.03550*%
%ADD52R,0.04337X0.05124*%
%ADD53R,0.03943X0.04337*%
%ADD54R,0.05904X0.05904*%
%ADD55C,0.05904*%
%ADD56C,0.13195*%
%ADD57C,0.24961*%
%ADD58C,0.06337*%
%ADD59R,0.06337X0.06337*%
G04:AMPARAMS|DCode=60|XSize=33.47mil|YSize=23.62mil|CornerRadius=11.81mil|HoleSize=0mil|Usage=FLASHONLY|Rotation=270.000|XOffset=0mil|YOffset=0mil|HoleType=Round|Shape=RoundedRectangle|*
%AMROUNDEDRECTD60*
21,1,0.03347,0.00000,0,0,270.0*
21,1,0.00984,0.02362,0,0,270.0*
1,1,0.02362,0.00000,-0.00492*
1,1,0.02362,0.00000,0.00492*
1,1,0.02362,0.00000,0.00492*
1,1,0.02362,0.00000,-0.00492*
%
%ADD60ROUNDEDRECTD60*%
%ADD61C,0.02362*%
G04:AMPARAMS|DCode=62|XSize=51.18mil|YSize=102.36mil|CornerRadius=25.59mil|HoleSize=0mil|Usage=FLASHONLY|Rotation=270.000|XOffset=0mil|YOffset=0mil|HoleType=Round|Shape=RoundedRectangle|*
%AMROUNDEDRECTD62*
21,1,0.05118,0.05118,0,0,270.0*
21,1,0.00000,0.10236,0,0,270.0*
1,1,0.05118,-0.02559,0.00000*
1,1,0.05118,-0.02559,0.00000*
1,1,0.05118,0.02559,0.00000*
1,1,0.05118,0.02559,0.00000*
%
%ADD62ROUNDEDRECTD62*%
G04:AMPARAMS|DCode=63|XSize=51.18mil|YSize=90.55mil|CornerRadius=25.59mil|HoleSize=0mil|Usage=FLASHONLY|Rotation=270.000|XOffset=0mil|YOffset=0mil|HoleType=Round|Shape=RoundedRectangle|*
%AMROUNDEDRECTD63*
21,1,0.05118,0.03937,0,0,270.0*
21,1,0.00000,0.09055,0,0,270.0*
1,1,0.05118,-0.01968,0.00000*
1,1,0.05118,-0.01968,0.00000*
1,1,0.05118,0.01968,0.00000*
1,1,0.05118,0.01968,0.00000*
%
%ADD63ROUNDEDRECTD63*%
G36*
X402412Y388378D02*
X403810Y388333D01*
X403946Y388288D01*
X404532Y388243D01*
X404667Y388197D01*
X405321Y388130D01*
X405818Y388085D01*
X406945Y387995D01*
X407486Y387904D01*
X407712Y387859D01*
X408253Y387724D01*
X408478Y387679D01*
X409561Y387498D01*
X410012Y387318D01*
X410260Y387250D01*
X410440Y387205D01*
X410779Y387138D01*
X411140Y387002D01*
X411433Y386844D01*
X411749Y386754D01*
X411929Y386709D01*
X412245Y386529D01*
X412651Y386348D01*
X412831Y386303D01*
X413057Y386213D01*
X413372Y385987D01*
X413598Y385897D01*
X413778Y385852D01*
X414094Y385627D01*
X414500Y385446D01*
X414793Y385333D01*
X414996Y385131D01*
X415424Y384973D01*
X415672Y384815D01*
X415763Y384725D01*
X416078Y384589D01*
X416169Y384544D01*
X416417Y384341D01*
X416529Y384228D01*
X416935Y384003D01*
X417161Y383777D01*
X417477Y383597D01*
X417589Y383529D01*
X417634Y383439D01*
X418018Y383191D01*
X418266Y382988D01*
X418334Y382920D01*
X418649Y382740D01*
X418965Y382424D01*
X419191Y382289D01*
X419506Y381973D01*
X419596Y381928D01*
X419957Y381567D01*
X420048Y381522D01*
X420453Y381116D01*
X420544Y381071D01*
X420904Y380710D01*
X420995Y380665D01*
X421152Y380507D01*
X421198Y380417D01*
X421265Y380350D01*
X421355Y380305D01*
X421513Y380147D01*
X421558Y380056D01*
X422010Y379605D01*
X422055Y379515D01*
X422122Y379448D01*
X422212Y379402D01*
X422325Y379290D01*
X422370Y379199D01*
X422573Y378951D01*
X422686Y378884D01*
X422731Y378794D01*
X422979Y378455D01*
X423069Y378410D01*
X423137Y378343D01*
X423317Y378027D01*
X423588Y377756D01*
X423814Y377350D01*
X424084Y377080D01*
X424220Y376854D01*
X424445Y376629D01*
X424671Y376223D01*
X424851Y376042D01*
X425122Y375546D01*
X425347Y375321D01*
X425415Y375073D01*
X425573Y374824D01*
X425708Y374689D01*
X425753Y374599D01*
X425843Y374373D01*
X426024Y374058D01*
X426159Y373922D01*
X426294Y373471D01*
X426475Y373156D01*
X426565Y373065D01*
X426655Y372840D01*
X426700Y372659D01*
X426790Y372434D01*
X427016Y372118D01*
X427106Y371802D01*
X427219Y371509D01*
X427399Y371239D01*
X427512Y370991D01*
X427625Y370517D01*
X427715Y370292D01*
X427918Y369953D01*
X427963Y369638D01*
X428053Y369277D01*
X428279Y368690D01*
X428369Y368375D01*
X428459Y367743D01*
X428572Y367225D01*
X428617Y367044D01*
X428730Y366661D01*
X428775Y366345D01*
X428820Y366165D01*
X428933Y364744D01*
X429023Y364158D01*
X429091Y363549D01*
X429136Y363098D01*
X429181Y362511D01*
X429226Y361519D01*
X429181Y358046D01*
X429136Y357911D01*
X429068Y357437D01*
X429023Y357167D01*
X428955Y356558D01*
X428910Y356377D01*
X428797Y355272D01*
X428707Y354821D01*
X428617Y354596D01*
X428504Y354303D01*
X428459Y354122D01*
X428301Y353423D01*
X428098Y353040D01*
X428008Y352724D01*
X427895Y352250D01*
X427602Y351687D01*
X427512Y351326D01*
X427286Y350920D01*
X427151Y350604D01*
X426993Y350176D01*
X426835Y350018D01*
X426745Y349792D01*
X426587Y349364D01*
X426475Y349251D01*
X426430Y349161D01*
X426339Y349071D01*
X426182Y348642D01*
X426069Y348484D01*
X425979Y348394D01*
X425933Y348304D01*
X425663Y347808D01*
X425527Y347672D01*
X425482Y347582D01*
X425212Y347086D01*
X425031Y346906D01*
X424806Y346500D01*
X424580Y346274D01*
X424355Y345868D01*
X424265Y345823D01*
X424220Y345733D01*
X424129Y345643D01*
X423949Y345327D01*
X423723Y345101D01*
X423678Y345011D01*
X423453Y344696D01*
X423227Y344470D01*
X423182Y344380D01*
X422866Y344064D01*
X422821Y343974D01*
X422731Y343884D01*
X422686Y343794D01*
X422528Y343681D01*
X422461Y343613D01*
X422415Y343523D01*
X422325Y343433D01*
X422280Y343342D01*
X421874Y342936D01*
X421829Y342846D01*
X421085Y342102D01*
X420995Y342057D01*
X420589Y341651D01*
X420499Y341606D01*
X420138Y341245D01*
X420048Y341200D01*
X419687Y340839D01*
X419596Y340794D01*
X419348Y340591D01*
X419303Y340501D01*
X419033Y340321D01*
X418785Y340072D01*
X418694Y340027D01*
X418379Y339802D01*
X418198Y339621D01*
X418108Y339576D01*
X417792Y339396D01*
X417522Y339125D01*
X417206Y338945D01*
X416981Y338719D01*
X416755Y338629D01*
X416529Y338494D01*
X416214Y338268D01*
X415966Y338201D01*
X415808Y338133D01*
X415560Y337930D01*
X415312Y337817D01*
X415019Y337705D01*
X414816Y337502D01*
X414500Y337366D01*
X414319Y337321D01*
X414004Y337141D01*
X413913Y337051D01*
X413688Y336960D01*
X413395Y336893D01*
X413169Y336803D01*
X413057Y336690D01*
X412966Y336645D01*
X412741Y336555D01*
X412560Y336509D01*
X412267Y336442D01*
X412087Y336397D01*
X411703Y336194D01*
X411478Y336103D01*
X411095Y336036D01*
X410914Y335991D01*
X410689Y335900D01*
X410395Y335743D01*
X410080Y335652D01*
X409696Y335585D01*
X409516Y335540D01*
X409155Y335404D01*
X408930Y335314D01*
X408749Y335269D01*
X408478Y335224D01*
X408118Y335179D01*
X407892Y335134D01*
X407531Y335044D01*
X407148Y334931D01*
X406787Y334840D01*
X406020Y334750D01*
X405840Y334705D01*
X405569Y334660D01*
X405344Y334570D01*
X405028Y334525D01*
X404848Y334480D01*
X404013Y334412D01*
X403247Y334367D01*
X401330Y334344D01*
X401194Y334389D01*
X399932Y334435D01*
X399796Y334480D01*
X399255Y334525D01*
X399120Y334570D01*
X398804Y334660D01*
X398623Y334705D01*
X398308Y334750D01*
X397857Y334795D01*
X397676Y334840D01*
X397338Y334908D01*
X396819Y335066D01*
X396639Y335111D01*
X396098Y335201D01*
X395714Y335269D01*
X395534Y335314D01*
X395151Y335472D01*
X394925Y335562D01*
X394542Y335630D01*
X394271Y335675D01*
X394045Y335765D01*
X393527Y336013D01*
X392828Y336171D01*
X392354Y336419D01*
X392174Y336464D01*
X391881Y336532D01*
X391700Y336577D01*
X391542Y336645D01*
X391272Y336825D01*
X390956Y336915D01*
X390595Y337051D01*
X390279Y337276D01*
X390099Y337321D01*
X389738Y337456D01*
X389490Y337660D01*
X389422Y337727D01*
X389174Y337795D01*
X388949Y337885D01*
X388881Y337953D01*
X388791Y337998D01*
X388656Y338133D01*
X388430Y338223D01*
X388137Y338336D01*
X387979Y338494D01*
X387889Y338539D01*
X387303Y338855D01*
X387122Y339035D01*
X387032Y339080D01*
X386716Y339306D01*
X386581Y339441D01*
X386175Y339667D01*
X385995Y339847D01*
X385904Y339892D01*
X385566Y340095D01*
X385521Y340185D01*
X385453Y340253D01*
X385363Y340298D01*
X384957Y340614D01*
X384822Y340749D01*
X384732Y340794D01*
X384642Y340884D01*
X384551Y340930D01*
X384191Y341290D01*
X384100Y341335D01*
X383785Y341651D01*
X383694Y341696D01*
X383604Y341786D01*
X383514Y341831D01*
X383401Y341944D01*
X383356Y342035D01*
X383085Y342215D01*
X382950Y342350D01*
X382905Y342440D01*
X382792Y342553D01*
X382702Y342598D01*
X382544Y342756D01*
X382499Y342846D01*
X382093Y343252D01*
X382048Y343342D01*
X381642Y343748D01*
X381597Y343839D01*
X381191Y344245D01*
X381146Y344335D01*
X380830Y344651D01*
X380785Y344741D01*
X380560Y345056D01*
X380379Y345237D01*
X380199Y345552D01*
X379973Y345778D01*
X379793Y346094D01*
X379590Y346342D01*
X379522Y346410D01*
X379319Y346793D01*
X379229Y346838D01*
X379116Y346951D01*
X378981Y347266D01*
X378936Y347357D01*
X378733Y347605D01*
X378665Y347672D01*
X378553Y347966D01*
X378395Y348214D01*
X378259Y348349D01*
X378169Y348574D01*
X377944Y348980D01*
X377808Y349116D01*
X377651Y349544D01*
X377538Y349702D01*
X377357Y349973D01*
X377290Y350266D01*
X377245Y350446D01*
X377019Y350807D01*
X376906Y351055D01*
X376839Y351303D01*
X376726Y351596D01*
X376500Y351912D01*
X376433Y352205D01*
X376388Y352431D01*
X376252Y352792D01*
X376049Y353265D01*
X375892Y353964D01*
X375643Y354528D01*
X375598Y354709D01*
X375531Y355137D01*
X375486Y355363D01*
X375441Y355543D01*
X375238Y356197D01*
X375147Y356738D01*
X375080Y357257D01*
X374899Y358339D01*
X374854Y358565D01*
X374809Y358835D01*
X374764Y359196D01*
X374719Y360414D01*
X374696Y361248D01*
Y361294D01*
X374764Y363075D01*
X374832Y364045D01*
X374877Y364180D01*
X374944Y364428D01*
X374990Y364609D01*
X375080Y365060D01*
X375125Y365420D01*
X375170Y365962D01*
X375215Y366232D01*
X375260Y366413D01*
X375441Y366864D01*
X375508Y367112D01*
X375553Y367427D01*
X375598Y367608D01*
X375666Y367901D01*
X375801Y368262D01*
X375892Y368488D01*
X375959Y368736D01*
X376027Y369029D01*
X376072Y369209D01*
X376162Y369435D01*
X376320Y369728D01*
X376410Y370043D01*
X376478Y370337D01*
X376591Y370630D01*
X376861Y371216D01*
X376929Y371464D01*
X377019Y371690D01*
X377132Y371802D01*
X377177Y371893D01*
X377267Y372118D01*
X377312Y372299D01*
X377425Y372592D01*
X377538Y372705D01*
X377583Y372795D01*
X377718Y373111D01*
X377786Y373359D01*
X377853Y373516D01*
X377944Y373607D01*
X377989Y373697D01*
X378079Y373787D01*
X378147Y374035D01*
X378282Y374396D01*
X378440Y374554D01*
X378485Y374644D01*
X378620Y374960D01*
X378801Y375275D01*
X378936Y375411D01*
X379071Y375727D01*
X379116Y375817D01*
X379297Y375997D01*
X379342Y376087D01*
X379522Y376403D01*
X379725Y376651D01*
X379838Y376764D01*
X380018Y377080D01*
X380244Y377305D01*
X380289Y377395D01*
X380605Y377801D01*
X380740Y377937D01*
X380875Y378162D01*
X381101Y378388D01*
X381146Y378478D01*
X381281Y378613D01*
X381327Y378703D01*
X381732Y379109D01*
X381778Y379199D01*
X381890Y379312D01*
X381980Y379357D01*
X382093Y379470D01*
X382138Y379560D01*
X382386Y379808D01*
X382477Y379853D01*
X382589Y380011D01*
X382792Y380214D01*
X382882Y380259D01*
X382950Y380327D01*
X382995Y380417D01*
X383243Y380665D01*
X383334Y380710D01*
X383401Y380778D01*
X383446Y380868D01*
X383604Y381026D01*
X383694Y381071D01*
X384100Y381477D01*
X384191Y381522D01*
X384281Y381612D01*
X384371Y381658D01*
X384687Y381973D01*
X384912Y382109D01*
X385183Y382379D01*
X385273Y382424D01*
X385521Y382627D01*
X385679Y382785D01*
X385769Y382830D01*
X386017Y383033D01*
X386175Y383191D01*
X386265Y383236D01*
X386581Y383462D01*
X386716Y383597D01*
X386807Y383642D01*
X387212Y383868D01*
X387393Y384048D01*
X387483Y384093D01*
X387889Y384319D01*
X388024Y384454D01*
X388115Y384499D01*
X388340Y384589D01*
X388656Y384770D01*
X388791Y384905D01*
X389107Y385040D01*
X389400Y385153D01*
X389558Y385311D01*
X389783Y385401D01*
X390099Y385491D01*
X390415Y385672D01*
X390505Y385762D01*
X390731Y385852D01*
X390911Y385897D01*
X391204Y386010D01*
X391272Y386078D01*
X391362Y386123D01*
X391452Y386213D01*
X391768Y386303D01*
X392196Y386461D01*
X392264Y386529D01*
X392354Y386574D01*
X392670Y386709D01*
X392963Y386777D01*
X393144Y386822D01*
X393369Y386912D01*
X393437Y386980D01*
X393752Y387115D01*
X393933Y387160D01*
X394226Y387228D01*
X394451Y387318D01*
X394519Y387386D01*
X394835Y387521D01*
X395015Y387566D01*
X395331Y387611D01*
X395760Y387679D01*
X395940Y387724D01*
X396188Y387792D01*
X396413Y387882D01*
X397180Y388017D01*
X397767Y388062D01*
X397947Y388107D01*
X398421Y388175D01*
X398781Y388265D01*
X399007Y388310D01*
X399458Y388355D01*
X399999Y388401D01*
X402277Y388423D01*
X402412Y388378D01*
D02*
G37*
G36*
X379816Y330014D02*
X379928Y329902D01*
X379973Y329586D01*
X379928Y329270D01*
X379883Y328368D01*
X379725Y328165D01*
X379635Y328120D01*
X379545Y328030D01*
X379455Y327985D01*
X379229Y327895D01*
X378778Y327850D01*
X377335D01*
X373997Y327804D01*
X373885Y327692D01*
X373930Y325797D01*
X374042Y325640D01*
X374132Y325594D01*
X374448Y325369D01*
X374990Y325279D01*
X378011Y325234D01*
X378327Y325008D01*
X378530Y324850D01*
X378620Y324625D01*
X378665Y324038D01*
X378620Y323226D01*
X378417Y322978D01*
X378102Y322753D01*
X377786Y322663D01*
X377222Y322640D01*
X374899Y322663D01*
X374764Y322618D01*
X374426Y322550D01*
X374065Y322324D01*
X373930Y322189D01*
X373885Y322009D01*
X373930Y321016D01*
X374132Y320813D01*
X374223Y320768D01*
X374448Y320633D01*
X374629Y320588D01*
X375756Y320543D01*
X379635Y320498D01*
X379770Y320453D01*
X379861Y320408D01*
X380109Y320205D01*
X380244Y320114D01*
X380289Y320024D01*
X380379Y319799D01*
X380334Y318446D01*
X380221Y318333D01*
X379906Y318288D01*
X379455Y318333D01*
X371945Y318310D01*
X371787Y318378D01*
X371674Y318491D01*
X371652Y318784D01*
X371674Y324354D01*
X371629Y324489D01*
X371584Y328098D01*
X371539Y328233D01*
X371494Y328909D01*
X371359Y329225D01*
X371404Y329586D01*
X371742Y329924D01*
X371922Y329969D01*
X372216Y329992D01*
X372464Y329969D01*
X372599Y330014D01*
X373727Y330060D01*
X379816Y330014D01*
D02*
G37*
G36*
X417477D02*
X417589Y329902D01*
X417634Y329721D01*
X417589Y329135D01*
X417544Y328684D01*
X417499Y328413D01*
X417274Y328098D01*
X417229Y328007D01*
X417116Y327850D01*
X416890Y327759D01*
X416394Y327714D01*
X416169Y327624D01*
X415853Y327579D01*
X413124Y327602D01*
X412899Y327556D01*
X412718Y327511D01*
X412222Y327466D01*
X412064Y327398D01*
X411906Y327241D01*
X411816Y326925D01*
X411771Y326745D01*
X411816Y326158D01*
X411906Y325933D01*
X411951Y325842D01*
X412154Y325640D01*
X412651Y325414D01*
X413102Y325369D01*
X413959Y325324D01*
X414094Y325279D01*
X415470Y325211D01*
X415650Y325166D01*
X416281Y324805D01*
X416327Y324715D01*
X416417Y324489D01*
X416462Y324309D01*
X416552Y323993D01*
X416507Y323632D01*
X416417Y323407D01*
X416236Y323091D01*
X415672Y322843D01*
X415221Y322798D01*
X414883Y322730D01*
X412989Y322685D01*
X412583Y322640D01*
X412154Y322572D01*
X411749Y322347D01*
X411636Y322234D01*
X411546Y321873D01*
X411613Y321580D01*
X411884Y321129D01*
X412064Y320949D01*
X412380Y320904D01*
X412876Y320859D01*
X413011Y320813D01*
X413553Y320678D01*
X413868Y320633D01*
X416259Y320588D01*
X416394Y320543D01*
X417431Y320498D01*
X417680Y320295D01*
X417950Y320024D01*
X418040Y319708D01*
X417995Y318897D01*
X417882Y318739D01*
X417792Y318694D01*
X417657Y318558D01*
X417567Y318513D01*
X417477Y318423D01*
X417296Y318378D01*
X415627Y318333D01*
X410057Y318310D01*
X409787Y318355D01*
X409629Y318423D01*
X409516Y318536D01*
X409471Y318806D01*
X409516Y318942D01*
Y323046D01*
Y323091D01*
X409493Y329699D01*
X409584Y329924D01*
X409674Y329969D01*
X409809Y330014D01*
X409990Y330060D01*
X417477Y330014D01*
D02*
G37*
G36*
X365067D02*
X365202Y329969D01*
X365450Y329902D01*
X366014Y329654D01*
X366375Y329518D01*
X366623Y329315D01*
X366871Y329203D01*
X367164Y329090D01*
X367344Y328909D01*
X367480Y328594D01*
X367502Y328436D01*
X367457Y328256D01*
X367322Y327895D01*
X367254Y327827D01*
X367209Y327737D01*
X366781Y327308D01*
X366330Y327173D01*
X366014Y327128D01*
X365879Y327173D01*
X365585Y327286D01*
X365337Y327353D01*
X365157Y327398D01*
X364774Y327466D01*
X364323Y327647D01*
X364142Y327692D01*
X363872Y327737D01*
X363037Y327759D01*
X362721Y327579D01*
X362451Y327398D01*
X362361Y327353D01*
X362203Y327196D01*
X362068Y326970D01*
X361932Y326835D01*
X361842Y326609D01*
X361887Y326384D01*
X362045Y326226D01*
X362496Y326000D01*
X362519Y325978D01*
X362857Y325775D01*
X363150Y325707D01*
X363330Y325662D01*
X363556Y325572D01*
X363623Y325504D01*
X363714Y325459D01*
X363939Y325369D01*
X364120Y325324D01*
X364638Y325211D01*
X364864Y325121D01*
X364977Y325008D01*
X365202Y324918D01*
X365563Y324828D01*
X365879Y324647D01*
X366014Y324512D01*
X366510Y324241D01*
X366690Y324061D01*
X366781Y324016D01*
X367029Y323813D01*
X367435Y323407D01*
X367480Y323317D01*
X367705Y323091D01*
X367750Y323001D01*
X367841Y322776D01*
X367908Y322527D01*
X367953Y322347D01*
X367976Y321783D01*
X367931Y321648D01*
X367863Y321355D01*
X367818Y321084D01*
X367773Y320859D01*
X367547Y320498D01*
X367480Y320430D01*
X367254Y320024D01*
X366984Y319754D01*
X366939Y319663D01*
X366826Y319551D01*
X366736Y319506D01*
X366330Y319100D01*
X366240Y319055D01*
X365969Y318784D01*
X365540Y318626D01*
X365428Y318513D01*
X365337Y318468D01*
X365022Y318333D01*
X364683Y318265D01*
X364435Y318197D01*
X364074Y318107D01*
X363759Y318062D01*
X363421Y318130D01*
X363037Y318243D01*
X362857Y318288D01*
X362428Y318355D01*
X362203Y318401D01*
X361639Y318694D01*
X361459Y318739D01*
X361165Y318806D01*
X360466Y319190D01*
X360151Y319370D01*
X360038Y319483D01*
X359993Y319573D01*
X359880Y319686D01*
X359790Y319731D01*
X359722Y319799D01*
X359632Y320024D01*
X359677Y320295D01*
X359948Y320881D01*
X360060Y321174D01*
X360173Y321332D01*
X360241Y321400D01*
X360331Y321445D01*
X360421Y321535D01*
X360511Y321580D01*
X360647Y321625D01*
X360917Y321580D01*
X361323Y321400D01*
X361571Y321332D01*
X361729Y321265D01*
X362045Y321039D01*
X362361Y320949D01*
X362654Y320881D01*
X362879Y320791D01*
X363127Y320678D01*
X363443Y320633D01*
X364300Y320678D01*
X364616Y320813D01*
X364796Y320859D01*
X365112Y321039D01*
X365225Y321152D01*
X365315Y321467D01*
X365270Y321783D01*
X365089Y322099D01*
X364977Y322212D01*
X364661Y322392D01*
X364571Y322482D01*
X364480Y322527D01*
X364255Y322618D01*
X364074Y322663D01*
X363826Y322730D01*
X363669Y322798D01*
X363398Y322978D01*
X363218Y323024D01*
X362902Y323114D01*
X362496Y323339D01*
X362090Y323520D01*
X361842Y323587D01*
X361594Y323745D01*
X361098Y323971D01*
X360872Y324106D01*
X360308Y324535D01*
X360038Y324805D01*
X359903Y325121D01*
X359632Y325707D01*
X359587Y325888D01*
X359542Y326564D01*
X359587Y326699D01*
X359632Y327376D01*
X359812Y327692D01*
X360128Y328278D01*
X360444Y328594D01*
X360489Y328684D01*
X360557Y328752D01*
X360647Y328797D01*
X361007Y329158D01*
X361233Y329293D01*
X361459Y329518D01*
X361684Y329609D01*
X361932Y329676D01*
X362496Y329969D01*
X362676Y330014D01*
X363398Y330060D01*
X365067Y330014D01*
D02*
G37*
G36*
X431504D02*
X431662Y329857D01*
Y329721D01*
X431639Y329699D01*
X431436Y329361D01*
X431368Y329113D01*
X431211Y328864D01*
X431075Y328639D01*
X431030Y328458D01*
X430895Y328098D01*
X430805Y328007D01*
X430759Y327917D01*
X430579Y327511D01*
X430511Y327263D01*
X430399Y327105D01*
X430218Y326835D01*
X430151Y326587D01*
X430105Y326406D01*
X430038Y326248D01*
X429812Y325888D01*
X429722Y325572D01*
X429677Y325391D01*
X429452Y324986D01*
X429316Y324670D01*
X429271Y324399D01*
X429181Y324174D01*
X428865Y323497D01*
X428752Y323024D01*
X428572Y322753D01*
X428459Y322460D01*
X428392Y322122D01*
X428346Y321941D01*
X428256Y321715D01*
X428189Y321648D01*
X428053Y321332D01*
X427963Y320971D01*
X427828Y320610D01*
X427602Y320114D01*
X427512Y319754D01*
X427377Y319528D01*
X427151Y319212D01*
X427106Y319032D01*
X426903Y318739D01*
X426813Y318694D01*
X426497Y318378D01*
X426182Y318333D01*
X425054Y318378D01*
X424806Y318581D01*
X424738Y318649D01*
X424648Y318694D01*
X424490Y318851D01*
X424265Y319257D01*
X424174Y319348D01*
X424084Y319573D01*
X423971Y320092D01*
X423881Y320317D01*
X423814Y320385D01*
X423769Y320475D01*
X423678Y320701D01*
X423633Y320881D01*
X423520Y321355D01*
X423227Y321919D01*
X423160Y322257D01*
X423024Y322618D01*
X422957Y322685D01*
X422912Y322776D01*
X422776Y323091D01*
X422663Y323565D01*
X422415Y324038D01*
X422280Y324580D01*
X422190Y324805D01*
X421964Y325121D01*
X421897Y325369D01*
X421852Y325594D01*
X421739Y325888D01*
X421513Y326384D01*
X421423Y326745D01*
X421310Y327038D01*
X421243Y327105D01*
X421198Y327196D01*
X421062Y327511D01*
X421017Y327692D01*
X420859Y328120D01*
X420656Y328458D01*
X420589Y328752D01*
X420544Y328977D01*
X420295Y329451D01*
X420273Y329654D01*
X420363Y329879D01*
X420453Y329969D01*
X420814Y330060D01*
X422077Y330014D01*
X422325Y329812D01*
X422483Y329654D01*
X422573Y329609D01*
X422731Y329451D01*
X422844Y329158D01*
X423069Y328797D01*
X423182Y328549D01*
X423295Y328075D01*
X423363Y327917D01*
X423543Y327647D01*
X423633Y327421D01*
X423701Y327083D01*
X423791Y326857D01*
X423994Y326519D01*
X424129Y325978D01*
X424242Y325685D01*
X424445Y325346D01*
X424558Y324828D01*
X424716Y324399D01*
X424896Y323993D01*
X424986Y323632D01*
X425099Y323339D01*
X425347Y322776D01*
X425392Y322595D01*
X425460Y322167D01*
X425550Y322031D01*
X425776Y322076D01*
X426024Y322279D01*
X426069Y322370D01*
X426204Y322685D01*
X426317Y322978D01*
X426384Y323046D01*
X426430Y323136D01*
X426520Y323226D01*
X426655Y323677D01*
X426790Y324038D01*
X426881Y324129D01*
X426926Y324219D01*
X427106Y324625D01*
X427151Y324895D01*
X427377Y325256D01*
X427467Y325482D01*
X427535Y325775D01*
X427647Y326068D01*
X427828Y326339D01*
X427963Y326790D01*
X428031Y327083D01*
X428234Y327466D01*
X428324Y327692D01*
X428482Y328391D01*
X428730Y328955D01*
X428820Y329541D01*
X428910Y329631D01*
X428955Y329721D01*
X429113Y329879D01*
X429203Y329924D01*
X429429Y330014D01*
X429609Y330060D01*
X431504Y330014D01*
D02*
G37*
G36*
X384867Y330060D02*
X386964Y329992D01*
X388633Y329947D01*
X389174Y329857D01*
X389716Y329721D01*
X389986Y329676D01*
X390347Y329631D01*
X390843Y329541D01*
X391001Y329428D01*
X391181Y329248D01*
X391272Y329203D01*
X391520Y329000D01*
X391655Y328864D01*
X391700Y328774D01*
X391858Y328661D01*
X392016Y328504D01*
X392241Y328098D01*
X392377Y327962D01*
X392512Y327647D01*
X392625Y327353D01*
X392783Y327060D01*
X392828Y326880D01*
X392873Y326564D01*
X392828Y325391D01*
X392512Y324715D01*
X392467Y324535D01*
X392286Y324219D01*
X392151Y324083D01*
X391881Y323587D01*
X391813Y323520D01*
X391745Y323497D01*
X391700Y323407D01*
X391610Y323317D01*
X391565Y323226D01*
X391542Y323204D01*
X391520Y323181D01*
X391249Y322911D01*
X391204Y322821D01*
X391001Y322572D01*
X390911Y322527D01*
X390798Y322324D01*
X390843Y321964D01*
X391114Y321693D01*
X391339Y321287D01*
X391475Y321152D01*
X391520Y321061D01*
X391745Y320656D01*
X391971Y320430D01*
X392196Y320024D01*
X392332Y319889D01*
X392377Y319799D01*
X392602Y319393D01*
X392805Y319145D01*
X392873Y319077D01*
X392918Y318987D01*
X393121Y318739D01*
X393189Y318671D01*
X393234Y318536D01*
X393121Y318378D01*
X392940Y318333D01*
X390979Y318310D01*
X390821Y318378D01*
X390415Y318784D01*
X390324Y318829D01*
X390257Y318897D01*
X390212Y318987D01*
X389896Y319303D01*
X389851Y319393D01*
X389625Y319708D01*
X389490Y319844D01*
X389445Y320024D01*
X389265Y320340D01*
X389084Y320520D01*
X389039Y320610D01*
X388814Y320926D01*
X388633Y321107D01*
X388588Y321197D01*
X388475Y321310D01*
X388385Y321355D01*
X388295Y321445D01*
X388227Y321467D01*
X388182Y321558D01*
X388024Y321715D01*
X387528Y321986D01*
X387122Y322167D01*
X386536Y322212D01*
X386220Y322167D01*
X386062Y322054D01*
X385882Y321738D01*
X385701Y321467D01*
X385656Y321287D01*
X385611Y320971D01*
X385566Y320385D01*
X385521Y318897D01*
X385296Y318581D01*
X385138Y318423D01*
X384822Y318333D01*
X383627Y318310D01*
X383469Y318378D01*
X383356Y318491D01*
X383401Y329992D01*
X383514Y330105D01*
X383694Y330150D01*
X384867Y330060D01*
D02*
G37*
G36*
X399977Y330014D02*
X400112Y329969D01*
X401871Y329924D01*
X402006Y329879D01*
X402345Y329812D01*
X402593Y329744D01*
X402908Y329699D01*
X403089Y329654D01*
X403652Y329586D01*
X403878Y329496D01*
X403946Y329428D01*
X404036Y329383D01*
X404261Y329158D01*
X404487Y329022D01*
X404555Y328955D01*
X404600Y328864D01*
X404757Y328707D01*
X404848Y328661D01*
X405006Y328504D01*
X405096Y328278D01*
X405299Y328030D01*
X405366Y327962D01*
X405502Y327647D01*
X405547Y327466D01*
X405818Y326880D01*
X405863Y326564D01*
X405818Y325482D01*
X405547Y324895D01*
X405366Y324399D01*
X405163Y324151D01*
X404870Y323632D01*
X404645Y323407D01*
X404600Y323317D01*
X404397Y323069D01*
X404307Y323024D01*
X404239Y322956D01*
X404194Y322866D01*
X403991Y322618D01*
X403833Y322505D01*
X403743Y322279D01*
X403788Y321964D01*
X404104Y321648D01*
X404329Y321242D01*
X404555Y321016D01*
X404780Y320610D01*
X404960Y320430D01*
X405006Y320340D01*
X405254Y319956D01*
X405321Y319934D01*
X405366Y319844D01*
X405547Y319528D01*
X405750Y319280D01*
X405818Y319212D01*
X406020Y318874D01*
X406111Y318829D01*
X406269Y318671D01*
X406223Y318401D01*
X406156Y318333D01*
X405795Y318288D01*
X405660Y318333D01*
X403856Y318378D01*
X403607Y318581D01*
X403495Y318694D01*
X403404Y318739D01*
X403111Y319032D01*
X403066Y319122D01*
X402886Y319303D01*
X402705Y319618D01*
X402480Y319844D01*
X402209Y320340D01*
X402029Y320520D01*
X401803Y320926D01*
X401623Y321107D01*
X401578Y321197D01*
X401488Y321287D01*
X401442Y321377D01*
X401172Y321603D01*
X401127Y321693D01*
X400788Y321896D01*
X400292Y322122D01*
X399886Y322076D01*
X399481Y321761D01*
X399413Y321693D01*
X399323Y321467D01*
X399165Y321039D01*
X399120Y320859D01*
X399052Y320295D01*
Y320250D01*
X399007Y319393D01*
X398962Y319077D01*
X398917Y318897D01*
X398601Y318491D01*
X398533Y318423D01*
X398218Y318333D01*
X397022Y318310D01*
X396797Y318446D01*
X396752Y318761D01*
X396797Y319348D01*
X396752Y326609D01*
X396707Y326745D01*
X396661Y328278D01*
X396616Y328413D01*
X396571Y328955D01*
X396481Y329180D01*
X396436Y329496D01*
X396481Y329857D01*
X396549Y329924D01*
X396774Y330014D01*
X397225Y330060D01*
X399977Y330014D01*
D02*
G37*
G36*
X440344D02*
X440479Y329969D01*
X440727Y329902D01*
X440953Y329812D01*
X441201Y329699D01*
X441562Y329609D01*
X441855Y329541D01*
X442103Y329383D01*
X442509Y329203D01*
X442825Y329022D01*
X443050Y328797D01*
X443366Y328616D01*
X443569Y328413D01*
X443614Y328323D01*
X443727Y328210D01*
X443817Y328165D01*
X443885Y328098D01*
X443930Y328007D01*
X444245Y327602D01*
X444336Y327511D01*
X444426Y327286D01*
X444606Y326970D01*
X444832Y326654D01*
X444944Y326136D01*
X445192Y325617D01*
X445238Y325301D01*
X445283Y324715D01*
Y324174D01*
Y324129D01*
X445215Y323429D01*
X445170Y323204D01*
X444922Y322640D01*
X444877Y322324D01*
X444764Y322031D01*
X444516Y321693D01*
X444403Y321400D01*
X444245Y321152D01*
X444110Y321016D01*
X444065Y320926D01*
X443772Y320498D01*
X443681Y320453D01*
X443501Y320182D01*
X442870Y319551D01*
X442779Y319506D01*
X442667Y319348D01*
X442509Y319190D01*
X442193Y319009D01*
X442013Y318829D01*
X441697Y318694D01*
X441381Y318513D01*
X441066Y318378D01*
X440885Y318333D01*
X440457Y318265D01*
X440209Y318197D01*
X440028Y318152D01*
X439803Y318062D01*
X439487Y317972D01*
X438991Y318017D01*
X438856Y318062D01*
X438404Y318107D01*
X438179Y318197D01*
X437998Y318243D01*
X437683Y318288D01*
X437502Y318333D01*
X437209Y318446D01*
X437051Y318603D01*
X436736Y318739D01*
X436443Y318851D01*
X436375Y318919D01*
X436285Y318964D01*
X436149Y319100D01*
X435834Y319280D01*
X435676Y319438D01*
X435631Y319528D01*
X435473Y319641D01*
X435315Y319799D01*
X435270Y319889D01*
X434909Y320250D01*
X434728Y320565D01*
X434548Y320746D01*
X434458Y320971D01*
X434413Y321152D01*
X434187Y321558D01*
X434097Y321648D01*
X434007Y321964D01*
X433939Y322257D01*
X433804Y322618D01*
X433736Y322821D01*
X433646Y323181D01*
X433601Y323768D01*
X433646Y325482D01*
X433691Y325617D01*
X433872Y326068D01*
X433962Y326384D01*
X434007Y326564D01*
X434120Y326857D01*
X434232Y326970D01*
X434277Y327060D01*
X434593Y327647D01*
X434774Y327827D01*
X434819Y327917D01*
X435044Y328233D01*
X435112Y328301D01*
X435202Y328346D01*
X435315Y328458D01*
X435360Y328549D01*
X435473Y328661D01*
X435563Y328707D01*
X435879Y328932D01*
X435969Y329022D01*
X436059Y329067D01*
X436555Y329338D01*
X436736Y329518D01*
X436961Y329609D01*
X437254Y329676D01*
X437435Y329721D01*
X437818Y329879D01*
X438134Y329969D01*
X438314Y330014D01*
X438630Y330060D01*
X440344Y330014D01*
D02*
G37*
%LPC*%
G36*
X400157Y376786D02*
X400022Y376741D01*
X399706Y376561D01*
X399548Y376403D01*
X399458Y376178D01*
X399413Y375997D01*
Y375817D01*
Y375772D01*
X399526Y375478D01*
X399751Y375253D01*
X399841Y375208D01*
X400157Y375073D01*
X400518Y375118D01*
X400924Y375433D01*
X400991Y375501D01*
X401082Y375727D01*
X401127Y375997D01*
X401082Y376132D01*
X400991Y376358D01*
X400901Y376448D01*
X400856Y376538D01*
X400788Y376606D01*
X400698Y376651D01*
X400473Y376741D01*
X400157Y376786D01*
D02*
G37*
G36*
X403540Y376741D02*
X403134Y376696D01*
X402886Y376493D01*
X402863Y376426D01*
X402773Y376380D01*
X402525Y376132D01*
X402480Y375952D01*
X402435Y375817D01*
X402480Y375681D01*
X402525Y375456D01*
X402615Y375366D01*
X402660Y375275D01*
X402728Y375208D01*
X402818Y375163D01*
X402908Y375073D01*
X402998Y375027D01*
X403585Y374757D01*
X403856Y374802D01*
X404104Y375005D01*
X404307Y375208D01*
X404329Y375230D01*
X404419Y375456D01*
X404374Y375727D01*
X404284Y375952D01*
X404058Y376358D01*
X403720Y376696D01*
X403540Y376741D01*
D02*
G37*
G36*
X414770Y378049D02*
X413327Y378004D01*
X413079Y377801D01*
X412944Y377666D01*
X412853Y377440D01*
X412899Y376313D01*
X413124Y375907D01*
X413260Y375591D01*
X413372Y375298D01*
X413665Y375005D01*
X413801Y374779D01*
X414116Y374464D01*
X414161Y374373D01*
X414274Y374216D01*
X414364Y374170D01*
X414613Y373968D01*
X414680Y373900D01*
X414861Y373855D01*
X415086Y373900D01*
X415199Y374013D01*
X415267Y374170D01*
X415289Y374193D01*
X415334Y374779D01*
X415379Y374960D01*
X415334Y377485D01*
X414996Y377959D01*
X414770Y378049D01*
D02*
G37*
G36*
X403540Y373313D02*
X403495Y373268D01*
X403449D01*
X403224Y373133D01*
X403021Y372930D01*
X402976Y372840D01*
X402886Y372614D01*
X402931Y372163D01*
X403134Y371915D01*
X403449Y371690D01*
X403856Y371735D01*
X404419Y372299D01*
X404509Y372524D01*
X404464Y372885D01*
X404261Y373133D01*
X404171Y373223D01*
X403923Y373291D01*
X403540Y373313D01*
D02*
G37*
G36*
X400292Y373719D02*
X399999Y373607D01*
X399751Y373359D01*
X399661Y373313D01*
X399458Y373111D01*
X399413Y372795D01*
X399458Y372163D01*
X399661Y371915D01*
X399932Y371645D01*
X400112Y371600D01*
X400428Y371645D01*
X400473D01*
X400901Y371938D01*
X400991Y372028D01*
X401082Y372254D01*
X401127Y372614D01*
X401082Y372750D01*
X401037Y373111D01*
X400834Y373359D01*
X400721Y373471D01*
X400676Y373562D01*
X400608Y373629D01*
X400292Y373719D01*
D02*
G37*
G36*
X416033Y370968D02*
X415943Y370923D01*
X415875Y370675D01*
Y370630D01*
Y370585D01*
X415853Y368442D01*
X415898Y368262D01*
X415988Y368172D01*
X416169Y368127D01*
X416687Y368149D01*
X418559Y368127D01*
X418649Y368172D01*
X418785Y368127D01*
X418920Y368172D01*
X419145Y368217D01*
X419258Y368330D01*
X419213Y368510D01*
X419010Y368758D01*
X418740Y368938D01*
X418514Y369074D01*
X418289Y369299D01*
X418198Y369344D01*
X417882Y369570D01*
X417657Y369795D01*
X417341Y369976D01*
X417071Y370247D01*
X416755Y370427D01*
X416574Y370607D01*
X416484Y370652D01*
X416214Y370923D01*
X416033Y370968D01*
D02*
G37*
G36*
X409403Y375794D02*
X409200Y375681D01*
X409110Y375456D01*
X409065Y375275D01*
X408975Y374373D01*
X408930Y372569D01*
X408952Y368848D01*
X408930Y368330D01*
X409042Y368172D01*
X409223Y368127D01*
X409741Y368149D01*
X413913Y368127D01*
X414071Y368239D01*
X414116Y368420D01*
X414071Y369277D01*
Y369863D01*
Y369908D01*
X414026Y370043D01*
X413981Y371036D01*
X413936Y371171D01*
X413823Y371690D01*
X413756Y371938D01*
X413665Y372299D01*
X413553Y372592D01*
X413440Y372750D01*
X413260Y372930D01*
X413214Y373020D01*
X413102Y373178D01*
X413011Y373223D01*
X412763Y373426D01*
X412560Y373629D01*
X412470Y373674D01*
X412154Y373900D01*
X411929Y374125D01*
X411613Y374306D01*
X411388Y374531D01*
X411072Y374712D01*
X410801Y374982D01*
X410395Y375208D01*
X410215Y375388D01*
X409719Y375659D01*
X409629Y375749D01*
X409403Y375794D01*
D02*
G37*
G36*
X403179Y380350D02*
X402998Y380305D01*
X402886Y380056D01*
X402931Y378794D01*
X403134Y378545D01*
X403247Y378388D01*
X403449Y378139D01*
X403743Y378072D01*
X404104Y377982D01*
X404442Y377824D01*
X404667Y377734D01*
X404848Y377689D01*
X405163Y377643D01*
X405209D01*
X405524Y377463D01*
X405592Y377395D01*
X405682Y377170D01*
X405727Y376989D01*
X405682Y370720D01*
X405547Y370585D01*
X405524Y370517D01*
X405434Y370472D01*
X405209Y370382D01*
X404352Y370337D01*
X404036Y370292D01*
X403495Y370247D01*
X403089Y369931D01*
X403021Y369863D01*
X402976Y369773D01*
X402886Y369547D01*
X402931Y368645D01*
X403134Y368442D01*
X403224Y368397D01*
X403449Y368262D01*
X403630Y368217D01*
X404261Y368172D01*
X404397Y368127D01*
X406449Y368149D01*
X406968Y368127D01*
X407125Y368239D01*
X407170Y368420D01*
X407125Y377440D01*
X406968Y377598D01*
X406742Y377734D01*
X406562Y377914D01*
X406471Y377959D01*
X406043Y378252D01*
X405840Y378455D01*
X405615Y378590D01*
X405299Y378906D01*
X405073Y379042D01*
X404893Y379222D01*
X404803Y379267D01*
X404397Y379493D01*
X404126Y379763D01*
X404036Y379808D01*
X403788Y380011D01*
X403675Y380124D01*
X403585Y380169D01*
X403179Y380350D01*
D02*
G37*
G36*
X400969Y380530D02*
X400698Y380485D01*
X400473Y380259D01*
X400383Y380214D01*
X400067Y379989D01*
X399932Y379853D01*
X399841Y379808D01*
X399526Y379583D01*
X399300Y379357D01*
X399210Y379312D01*
X398962Y379109D01*
X398917Y379019D01*
X398533Y378771D01*
X398308Y378545D01*
X397902Y378320D01*
X397676Y378094D01*
X397293Y377891D01*
X397248Y377801D01*
X397180Y377734D01*
X397090Y377689D01*
X396842Y377485D01*
X396797Y377170D01*
X396842Y376854D01*
X396819Y368352D01*
X396842Y368330D01*
Y368285D01*
X397000Y368127D01*
X398127Y368172D01*
X398849Y368217D01*
X399841Y368262D01*
X400067Y368352D01*
X400608Y368397D01*
X400834Y368488D01*
X401059Y368623D01*
X401172Y368736D01*
X401262Y369051D01*
X401217Y369502D01*
X401014Y369795D01*
X400788Y369886D01*
X400495Y369998D01*
X400112Y370111D01*
X399548Y370179D01*
X398917Y370224D01*
X398669Y370247D01*
X398533Y370201D01*
X398172Y370292D01*
X398060Y370540D01*
X398105Y376493D01*
X398150Y376629D01*
X398195Y376944D01*
X398421Y377305D01*
X398466Y377485D01*
X398669Y377734D01*
X398894Y377869D01*
X399165Y378049D01*
X399616Y378094D01*
X400518Y378139D01*
X400766Y378343D01*
X400991Y378568D01*
X401082Y378794D01*
X401104Y379583D01*
X401059Y380440D01*
X400969Y380530D01*
D02*
G37*
G36*
X394519Y375794D02*
X394384Y375749D01*
X394271Y375681D01*
X394226Y375591D01*
X393955Y375411D01*
X393707Y375253D01*
X393617Y375163D01*
X393527Y375118D01*
X393121Y374892D01*
X392895Y374667D01*
X392805Y374622D01*
X392490Y374396D01*
X392309Y374216D01*
X391993Y374035D01*
X391813Y373855D01*
X391723Y373810D01*
X391407Y373629D01*
X391136Y373359D01*
X391046Y373313D01*
X390798Y373111D01*
X390595Y372863D01*
X390505Y372817D01*
X390347Y372659D01*
X390076Y372163D01*
X389941Y371848D01*
X389896Y371126D01*
X389941Y368239D01*
X390009Y368172D01*
X390189Y368127D01*
X390708Y368149D01*
X392038Y368127D01*
X392084D01*
X394316Y368149D01*
X394835Y368127D01*
X395038Y368285D01*
X395083Y368600D01*
X395038Y368736D01*
X394993Y374644D01*
X394948Y374779D01*
X394880Y375388D01*
X394835Y375569D01*
X394722Y375727D01*
X394519Y375794D01*
D02*
G37*
G36*
X387799Y370743D02*
X387438Y370697D01*
X387122Y370472D01*
X386942Y370292D01*
X386761Y370247D01*
X386446Y370021D01*
X386310Y369886D01*
X385904Y369660D01*
X385724Y369480D01*
X385634Y369435D01*
X385589Y369390D01*
X385544D01*
X385228Y369164D01*
X385138Y369074D01*
X385048Y369029D01*
X384732Y368848D01*
X384551Y368578D01*
X384484Y368375D01*
X384551Y368307D01*
X385634Y368262D01*
X385769Y368217D01*
X386987Y368172D01*
X387122Y368127D01*
X387709Y368172D01*
X388002Y368375D01*
X388092Y368736D01*
X388047Y370043D01*
X388002Y370179D01*
X387957Y370585D01*
X387799Y370743D01*
D02*
G37*
G36*
X408997Y362895D02*
X408681Y362850D01*
X408411Y362579D01*
X408321Y362534D01*
X408230Y362444D01*
X408140Y362399D01*
X408028Y362151D01*
X407982Y361970D01*
X407937Y361835D01*
X407982Y361699D01*
X408208Y361294D01*
X408276Y361226D01*
X408862Y360955D01*
X409132Y361000D01*
X409313Y361181D01*
X409403Y361226D01*
X409539Y361361D01*
X409584D01*
X409606Y361384D01*
X409696Y361609D01*
X409651Y362196D01*
X409426Y362511D01*
X409381Y362601D01*
X409178Y362850D01*
X408997Y362895D01*
D02*
G37*
G36*
X395466D02*
X394880Y362850D01*
X394384Y362353D01*
X394361Y362331D01*
X394316Y362196D01*
X394361Y361880D01*
X394497Y361744D01*
X394542Y361654D01*
X394632Y361564D01*
X394767Y361339D01*
X394880Y361226D01*
X395556Y360910D01*
X395872Y361090D01*
X395940Y361158D01*
X395985Y361248D01*
X396211Y361474D01*
X396256Y361790D01*
X396211Y362241D01*
X395985Y362466D01*
X395940Y362556D01*
X395692Y362805D01*
X395466Y362895D01*
D02*
G37*
G36*
X402367D02*
X401826Y362850D01*
X401262Y362286D01*
X401172Y361970D01*
X401217Y361294D01*
X401420Y361045D01*
X401600Y360820D01*
X401645D01*
X401668Y360797D01*
X401736Y360730D01*
X402051Y360685D01*
X402412Y360730D01*
X402728Y360910D01*
X402796Y360978D01*
X403066Y361474D01*
X403156Y361699D01*
X403201Y362015D01*
X403089Y362308D01*
X402705Y362692D01*
X402683Y362759D01*
X402593Y362805D01*
X402367Y362895D01*
D02*
G37*
G36*
X388430Y359602D02*
X388024Y359557D01*
X387709Y359377D01*
X387460Y359129D01*
X387325Y358813D01*
X387370Y358226D01*
X387506Y358046D01*
X387528Y358024D01*
X387641Y357866D01*
X387754Y357753D01*
X387844Y357708D01*
X388160Y357573D01*
X388746Y357618D01*
X389152Y357933D01*
X389310Y358317D01*
X389355Y358497D01*
X389310Y358858D01*
X389084Y359264D01*
X388926Y359422D01*
X388611Y359557D01*
X388430Y359602D01*
D02*
G37*
G36*
X415898Y359873D02*
X415627Y359828D01*
X415582D01*
X415470Y359760D01*
X415424Y359670D01*
X415244Y359354D01*
X415064Y358948D01*
X415019Y358497D01*
X415064Y358181D01*
X415244Y357866D01*
X415515Y357595D01*
X415560Y357505D01*
X415627Y357437D01*
X415943Y357392D01*
X416236Y357460D01*
X416507Y357640D01*
X416687Y357821D01*
X416823Y358272D01*
X416868Y358678D01*
X416823Y358813D01*
X416755Y359106D01*
X416710Y359286D01*
X416597Y359444D01*
X416394Y359647D01*
X416304Y359692D01*
X416214Y359783D01*
X415898Y359873D01*
D02*
G37*
G36*
X394203Y352837D02*
X393978Y352792D01*
X393910Y352724D01*
X393865Y352543D01*
X393910Y352047D01*
X394045Y351912D01*
X394091Y351822D01*
X394271Y351641D01*
X394294Y351574D01*
X394316Y351551D01*
X394474Y351393D01*
X394700Y351348D01*
X394925Y351484D01*
X394993Y351732D01*
X394948Y352047D01*
X394722Y352363D01*
X394519Y352611D01*
X394384Y352792D01*
X394203Y352837D01*
D02*
G37*
G36*
X409539Y352701D02*
X409110Y352543D01*
X408952Y352431D01*
X408794Y352273D01*
X408749Y352183D01*
X408659Y352047D01*
Y352002D01*
X408704Y351777D01*
X409020Y351461D01*
X409042Y351393D01*
X409132Y351348D01*
X409358Y351258D01*
X409674Y351303D01*
X409922Y351506D01*
X410147Y351732D01*
X410192Y352047D01*
X410125Y352295D01*
X409944Y352476D01*
X409854Y352521D01*
X409764Y352611D01*
X409539Y352701D01*
D02*
G37*
G36*
X416259Y351393D02*
X415898Y351348D01*
X415492Y351123D01*
X415289Y350739D01*
X415109Y350469D01*
X415064Y350153D01*
X415109Y349837D01*
X415312Y349589D01*
X415379Y349522D01*
X415424Y349431D01*
X415627Y349228D01*
X415808Y349183D01*
X416078Y349228D01*
X416169Y349319D01*
X416665Y349589D01*
X416732Y349657D01*
X416778Y349792D01*
X416800Y349815D01*
X416981Y350085D01*
X417048Y350288D01*
X417003Y350694D01*
X416778Y351010D01*
X416732Y351100D01*
X416574Y351258D01*
X416259Y351393D01*
D02*
G37*
G36*
X388092Y351641D02*
X387866Y351596D01*
X387731Y351461D01*
X387551Y351145D01*
X387460Y351055D01*
X387370Y350830D01*
X387325Y350604D01*
Y350559D01*
X387370Y349927D01*
X387821Y349296D01*
X387866Y349206D01*
X388115Y349093D01*
X388475Y349138D01*
X388791Y349364D01*
X388904Y349477D01*
X388949Y349567D01*
X389084Y349882D01*
X389174Y350198D01*
X389197Y350356D01*
X389152Y350536D01*
X388971Y351033D01*
X388859Y351190D01*
X388543Y351416D01*
X388498Y351506D01*
X388295Y351619D01*
X388092Y351641D01*
D02*
G37*
G36*
X401916Y386619D02*
X401781Y386574D01*
X400743Y386529D01*
X400608Y386484D01*
X399841Y386438D01*
X399706Y386393D01*
X399120Y386348D01*
X398939Y386303D01*
X397902Y386258D01*
X397767Y386213D01*
X397338Y386145D01*
X396616Y385965D01*
X395534Y385785D01*
X395083Y385604D01*
X394790Y385491D01*
X394091Y385333D01*
X393527Y385040D01*
X393166Y384950D01*
X392873Y384837D01*
X392805Y384770D01*
X392715Y384725D01*
X392399Y384589D01*
X392219Y384544D01*
X391971Y384476D01*
X391700Y384296D01*
X391497Y384183D01*
X391317Y384138D01*
X391024Y384071D01*
X390798Y383980D01*
X390685Y383868D01*
X390595Y383822D01*
X390189Y383642D01*
X389964Y383507D01*
X389783Y383326D01*
X389716Y383304D01*
X389693Y383281D01*
X389445Y383214D01*
X389084Y382988D01*
X388971Y382875D01*
X388678Y382763D01*
X388520Y382650D01*
X388340Y382469D01*
X388115Y382379D01*
X387889Y382244D01*
X387754Y382109D01*
X387664Y382064D01*
X387573Y381973D01*
X387393Y381928D01*
X387303Y381838D01*
X387212Y381793D01*
X386987Y381567D01*
X386671Y381387D01*
X386491Y381206D01*
X386401Y381161D01*
X386085Y380936D01*
X385859Y380710D01*
X385769Y380665D01*
X385521Y380462D01*
X385318Y380259D01*
X385228Y380214D01*
X384867Y379853D01*
X384777Y379808D01*
X384687Y379718D01*
X384596Y379673D01*
X384236Y379312D01*
X384145Y379267D01*
X383401Y378523D01*
X383356Y378433D01*
X382860Y377937D01*
X382815Y377846D01*
X382544Y377576D01*
X382499Y377485D01*
X382409Y377395D01*
X382364Y377305D01*
X382296Y377238D01*
X382206Y377192D01*
X382026Y376922D01*
X381687Y376584D01*
X381552Y376358D01*
X381327Y376132D01*
X381101Y375727D01*
X380875Y375501D01*
X380650Y375095D01*
X380424Y374869D01*
X380379Y374689D01*
X380086Y374261D01*
X380018Y374193D01*
X379928Y373968D01*
X379748Y373652D01*
X379613Y373516D01*
X379432Y373065D01*
X379387Y372975D01*
X379297Y372885D01*
X379252Y372795D01*
X379162Y372705D01*
X379026Y372254D01*
X378891Y372028D01*
X378801Y371938D01*
X378756Y371848D01*
X378665Y371622D01*
X378485Y371126D01*
X378305Y370855D01*
X378214Y370540D01*
X378147Y370201D01*
X378057Y369976D01*
X377989Y369908D01*
X377853Y369592D01*
X377763Y369232D01*
X377696Y368893D01*
X377515Y368442D01*
X377402Y368149D01*
X377312Y367518D01*
X377245Y367225D01*
X377154Y366864D01*
X377042Y366571D01*
X376974Y366277D01*
X376929Y365917D01*
X376884Y365285D01*
X376839Y364834D01*
X376794Y364563D01*
X376636Y363278D01*
X376591Y362827D01*
X376546Y362647D01*
X376523Y360234D01*
X376568Y358880D01*
X376613Y358430D01*
X376703Y357843D01*
X376748Y357573D01*
X376906Y356287D01*
X377019Y355588D01*
X377200Y355092D01*
X377267Y354844D01*
X377312Y354663D01*
X377380Y354235D01*
X377515Y353874D01*
X377718Y353400D01*
X377763Y353220D01*
X377831Y352882D01*
X378169Y352138D01*
X378214Y351957D01*
X378282Y351664D01*
X378462Y351393D01*
X378575Y351145D01*
X378620Y350965D01*
X378778Y350536D01*
X378891Y350424D01*
X378936Y350333D01*
X379026Y350108D01*
X379184Y349679D01*
X379342Y349522D01*
X379387Y349431D01*
X379522Y349116D01*
X379613Y348890D01*
X379816Y348642D01*
X379928Y348394D01*
X380154Y347988D01*
X380289Y347853D01*
X380334Y347763D01*
X380424Y347672D01*
X380447Y347605D01*
X380627Y347560D01*
X380763Y347605D01*
X380830Y347672D01*
X380875Y347988D01*
X380943Y348687D01*
X380988Y349048D01*
X381078Y350311D01*
X381123Y351664D01*
X381169Y353919D01*
X381214Y367991D01*
X381372Y368239D01*
X381575Y368442D01*
X381665Y368488D01*
X381980Y368713D01*
X382161Y368893D01*
X382251Y368938D01*
X382567Y369164D01*
X382747Y369344D01*
X383153Y369570D01*
X383334Y369750D01*
X383424Y369795D01*
X383739Y370021D01*
X383920Y370201D01*
X384010Y370247D01*
X384326Y370427D01*
X384596Y370697D01*
X384912Y370878D01*
X385093Y371058D01*
X385183Y371103D01*
X385498Y371329D01*
X385724Y371554D01*
X386040Y371735D01*
X386220Y371915D01*
X386310Y371960D01*
X386626Y372141D01*
X386852Y372366D01*
X386942Y372411D01*
X387258Y372637D01*
X387438Y372817D01*
X387754Y372998D01*
X387866Y373065D01*
X387889Y373133D01*
X387979Y373178D01*
X388069Y373268D01*
X388475Y373494D01*
X388701Y373719D01*
X389017Y373900D01*
X389197Y374080D01*
X389693Y374351D01*
X389874Y374531D01*
X390279Y374757D01*
X390550Y375027D01*
X390866Y375208D01*
X391046Y375388D01*
X391136Y375433D01*
X391565Y375727D01*
X391723Y375884D01*
X391948Y376020D01*
X392174Y376245D01*
X392264Y376290D01*
X392692Y376584D01*
X392850Y376741D01*
X393166Y376922D01*
X393392Y377147D01*
X393482Y377192D01*
X393910Y377485D01*
X394023Y377598D01*
X394519Y377869D01*
X394700Y378049D01*
X395015Y378230D01*
X395241Y378455D01*
X395556Y378636D01*
X395782Y378861D01*
X396188Y379087D01*
X396413Y379312D01*
X396819Y379538D01*
X397000Y379718D01*
X397496Y379989D01*
X397676Y380169D01*
X397767Y380214D01*
X398082Y380440D01*
X398263Y380620D01*
X398759Y380891D01*
X398894Y381026D01*
X399390Y381297D01*
X399571Y381477D01*
X399977Y381703D01*
X400202Y381928D01*
X400698Y382199D01*
X400834Y382334D01*
X401014Y382379D01*
X401375Y382515D01*
X401645Y382785D01*
X401826Y382830D01*
X402322Y382785D01*
X402638Y382605D01*
X402863Y382469D01*
X403156Y382357D01*
X403224Y382289D01*
X403292Y382266D01*
X403337Y382176D01*
X403449Y382064D01*
X403901Y381883D01*
X404149Y381680D01*
X404532Y381477D01*
X404848Y381161D01*
X405163Y380981D01*
X405254Y380891D01*
X405344Y380846D01*
X405434Y380755D01*
X405750Y380575D01*
X405863Y380507D01*
X405908Y380417D01*
X406471Y380079D01*
X406652Y379899D01*
X407058Y379673D01*
X407238Y379493D01*
X407328Y379448D01*
X407644Y379222D01*
X407779Y379087D01*
X407870Y379042D01*
X408298Y378748D01*
X408456Y378590D01*
X408546Y378545D01*
X408862Y378365D01*
X409042Y378185D01*
X409539Y377914D01*
X409719Y377734D01*
X410305Y377418D01*
X410531Y377328D01*
X410801Y377373D01*
X410914Y377485D01*
X411004Y377711D01*
X411049Y378162D01*
X411095Y379696D01*
X411207Y379808D01*
X411523Y379853D01*
X411839Y379808D01*
X414793Y379741D01*
X415830Y379696D01*
X416552Y379650D01*
X416710Y379583D01*
X416823Y379515D01*
X416868Y379425D01*
X416958Y379335D01*
X417003Y379019D01*
X417071Y377463D01*
X417116Y376020D01*
X417161Y373855D01*
X417206Y372366D01*
X417274Y372208D01*
X417386Y372096D01*
X417702Y371915D01*
X417928Y371690D01*
X418334Y371464D01*
X418559Y371239D01*
X418649Y371194D01*
X418965Y370968D01*
X419100Y370833D01*
X419596Y370562D01*
X419777Y370382D01*
X420183Y370156D01*
X420408Y369931D01*
X420814Y369705D01*
X420995Y369525D01*
X421085Y369480D01*
X421401Y369254D01*
X421491Y369164D01*
X421581Y369119D01*
X421671Y369029D01*
X421987Y368848D01*
X422212Y368623D01*
X422303Y368578D01*
X422506Y368375D01*
X422686Y367969D01*
X422731Y367518D01*
X422776Y366661D01*
X422821Y363233D01*
X422799Y350491D01*
X422844Y348687D01*
X422889Y348191D01*
X422934Y347966D01*
X423024Y347740D01*
X423160Y347605D01*
X423340Y347560D01*
X423656Y347785D01*
X423949Y348078D01*
X423994Y348168D01*
X424174Y348484D01*
X424400Y348710D01*
X424535Y349026D01*
X424580Y349116D01*
X424783Y349364D01*
X424851Y349431D01*
X424941Y349747D01*
X425031Y349973D01*
X425302Y350379D01*
X425392Y350739D01*
X425618Y351145D01*
X425753Y351461D01*
X425821Y351754D01*
X425911Y351980D01*
X426114Y352363D01*
X426204Y352679D01*
X426249Y352859D01*
X426317Y353107D01*
X426520Y353446D01*
X426610Y353761D01*
X426655Y354077D01*
X426745Y354438D01*
X426903Y354866D01*
X427016Y355250D01*
X427061Y355701D01*
X427174Y356490D01*
X427219Y356715D01*
X427264Y356896D01*
X427354Y357347D01*
X427399Y357708D01*
X427444Y358114D01*
X427490Y358655D01*
X427535Y360414D01*
X427557Y360933D01*
X427512Y361068D01*
X427467Y364135D01*
X427422Y364270D01*
X427377Y364721D01*
X427332Y364857D01*
X427264Y365150D01*
X427174Y365691D01*
X427106Y366300D01*
X427061Y366480D01*
X427016Y366931D01*
X426926Y367157D01*
X426881Y367337D01*
X426745Y367653D01*
X426655Y368014D01*
X426542Y368488D01*
X426475Y368645D01*
X426249Y369141D01*
X426182Y369480D01*
X426136Y369660D01*
X425843Y370224D01*
X425753Y370585D01*
X425640Y370878D01*
X425527Y370991D01*
X425392Y371306D01*
X425347Y371487D01*
X425234Y371780D01*
X425122Y371893D01*
X425076Y371983D01*
X424941Y372299D01*
X424828Y372592D01*
X424716Y372750D01*
X424625Y372840D01*
X424580Y372930D01*
X424490Y373156D01*
X424310Y373471D01*
X424084Y373787D01*
X423971Y374080D01*
X423746Y374351D01*
X423408Y374960D01*
X423272Y375095D01*
X423047Y375501D01*
X422866Y375681D01*
X422821Y375772D01*
X422641Y376087D01*
X422370Y376358D01*
X422190Y376674D01*
X421919Y376944D01*
X421874Y377034D01*
X421671Y377283D01*
X421513Y377440D01*
X421468Y377531D01*
X421265Y377779D01*
X421198Y377846D01*
X421152Y377937D01*
X421017Y378072D01*
X420972Y378162D01*
X420814Y378365D01*
X420724Y378410D01*
X420431Y378703D01*
X420408Y378771D01*
X420318Y378816D01*
X419777Y379357D01*
X419687Y379402D01*
X419281Y379808D01*
X419191Y379853D01*
X418830Y380214D01*
X418740Y380259D01*
X418379Y380620D01*
X418289Y380665D01*
X418040Y380868D01*
X417882Y381026D01*
X417792Y381071D01*
X417544Y381274D01*
X417386Y381432D01*
X417296Y381477D01*
X416981Y381703D01*
X416845Y381838D01*
X416349Y382109D01*
X416123Y382334D01*
X415830Y382447D01*
X415763Y382515D01*
X415672Y382560D01*
X415492Y382740D01*
X414996Y383011D01*
X414816Y383191D01*
X414635Y383236D01*
X414319Y383462D01*
X414184Y383597D01*
X413620Y383800D01*
X413553Y383868D01*
X413462Y383913D01*
X413372Y384003D01*
X413147Y384093D01*
X412966Y384138D01*
X412560Y384364D01*
X412470Y384454D01*
X412222Y384522D01*
X411997Y384567D01*
X411636Y384702D01*
X411523Y384815D01*
X411298Y384905D01*
X410756Y385040D01*
X410531Y385131D01*
X410440Y385176D01*
X410035Y385356D01*
X409651Y385424D01*
X409426Y385469D01*
X408975Y385649D01*
X408681Y385762D01*
X408050Y385852D01*
X407870Y385897D01*
X407577Y385965D01*
X407328Y386033D01*
X407013Y386123D01*
X406719Y386190D01*
X406111Y386258D01*
X405660Y386303D01*
X405141Y386371D01*
X404960Y386416D01*
X404690Y386461D01*
X404104Y386506D01*
X403382Y386551D01*
X402570Y386596D01*
X401916Y386619D01*
D02*
G37*
G36*
X421175Y366368D02*
X382612Y366322D01*
X382499Y366210D01*
X382454Y366029D01*
X382499Y365443D01*
X382567Y356535D01*
X382612Y353198D01*
X382657Y350446D01*
X382702Y348191D01*
X382747Y346342D01*
X382792Y345169D01*
X382882Y344944D01*
X382995Y344786D01*
X383469Y344312D01*
X383559Y344267D01*
X383965Y343861D01*
X384055Y343816D01*
X384416Y343455D01*
X384506Y343410D01*
X384912Y343004D01*
X385002Y342959D01*
X385363Y342598D01*
X385453Y342553D01*
X385611Y342395D01*
X385656Y342305D01*
X385724Y342237D01*
X385814Y342192D01*
X386062Y341989D01*
X386310Y341741D01*
X386536Y341651D01*
X386739Y341629D01*
X386897Y341696D01*
X387010Y341809D01*
X387077Y342057D01*
X387122Y342237D01*
X387167Y342508D01*
X387235Y343117D01*
X387280Y343974D01*
X387303Y346432D01*
X387258Y346973D01*
X387212Y347334D01*
X387122Y347560D01*
X386919Y347763D01*
X386874Y347853D01*
X386671Y348101D01*
X386378Y348394D01*
X386333Y348484D01*
X386220Y348597D01*
X386130Y348642D01*
X386017Y348755D01*
X385747Y349251D01*
X385656Y349341D01*
X385589Y349589D01*
X385544Y349995D01*
X385521Y350333D01*
X385566Y350469D01*
X385611Y350875D01*
X385837Y351190D01*
X385972Y351506D01*
X386017Y351596D01*
X386220Y351844D01*
X386333Y351957D01*
X386378Y352047D01*
X386694Y352453D01*
X386784Y352543D01*
X386964Y352859D01*
X387190Y353085D01*
X387303Y353378D01*
X387573Y353829D01*
X387641Y354077D01*
X387686Y354393D01*
X387618Y354776D01*
X387348Y355227D01*
X387280Y355475D01*
X387167Y355768D01*
X387055Y355881D01*
X387010Y355971D01*
X386874Y356107D01*
X386694Y356422D01*
X386423Y356693D01*
X386243Y357009D01*
X386017Y357234D01*
X385882Y357550D01*
X385566Y358226D01*
X385521Y358858D01*
X385566Y358993D01*
X385611Y359309D01*
X385837Y359670D01*
X386153Y360256D01*
X386310Y360369D01*
X386423Y360482D01*
X386468Y360572D01*
X386626Y360730D01*
X386919Y360842D01*
X387077Y360955D01*
X387348Y361136D01*
X387528Y361181D01*
X388160Y361271D01*
X388611Y361316D01*
X388791Y361271D01*
X389129Y361203D01*
X389400Y361068D01*
X389558Y360955D01*
X389964Y360730D01*
X390212Y360527D01*
X390302Y360437D01*
X390347Y360346D01*
X390415Y360279D01*
X390505Y360234D01*
X390663Y360076D01*
X390798Y359760D01*
X390888Y359535D01*
X391069Y359264D01*
X391159Y358903D01*
X391114Y358181D01*
X390753Y357415D01*
X390573Y357099D01*
X390392Y356919D01*
X390212Y356603D01*
X389941Y356332D01*
X389896Y356242D01*
X389693Y355949D01*
X389603Y355904D01*
X389400Y355430D01*
X389129Y354844D01*
X389084Y354528D01*
X389129Y353581D01*
X389445Y352904D01*
X389625Y352589D01*
X389806Y352408D01*
X390031Y352002D01*
X390167Y351867D01*
X390212Y351777D01*
X390347Y351461D01*
X390392Y351281D01*
X390618Y350920D01*
X390708Y350604D01*
X390753Y349927D01*
X390708Y349792D01*
X390663Y349386D01*
X390347Y348890D01*
X390302Y348710D01*
X390099Y348462D01*
X390031Y348394D01*
X389986Y348304D01*
X389806Y348033D01*
X389670Y347808D01*
X389490Y347402D01*
X389445Y346951D01*
X389400Y346635D01*
X389355Y346049D01*
X389310Y345598D01*
X389265Y344605D01*
X389310Y339644D01*
X389693Y339261D01*
X390009Y339170D01*
X390482Y339058D01*
X390956Y338810D01*
X391272Y338719D01*
X391452Y338674D01*
X391700Y338607D01*
X392264Y338314D01*
X392647Y338246D01*
X392873Y338201D01*
X393098Y338110D01*
X393166Y338043D01*
X393482Y337908D01*
X393775Y337840D01*
X394000Y337795D01*
X394294Y337682D01*
X394564Y337502D01*
X394925Y337411D01*
X395308Y337344D01*
X395669Y337118D01*
X395917Y337005D01*
X396188Y337051D01*
X396301Y337163D01*
X396391Y337524D01*
X396436Y338381D01*
X396391Y340366D01*
X396346Y340501D01*
X396301Y340952D01*
X396120Y341268D01*
X395760Y341944D01*
X395534Y342170D01*
X395489Y342260D01*
X395286Y342508D01*
X395038Y342756D01*
X394993Y342846D01*
X394587Y343252D01*
X394542Y343342D01*
X394474Y343410D01*
X394384Y343455D01*
X394181Y343658D01*
X394136Y343748D01*
X394023Y343861D01*
X393933Y343906D01*
X393730Y344109D01*
X393685Y344199D01*
X393527Y344312D01*
X393279Y344560D01*
X393234Y344651D01*
X393166Y344718D01*
X393076Y344763D01*
X392918Y344921D01*
X392873Y345011D01*
X392512Y345372D01*
X392467Y345462D01*
X392241Y345778D01*
X392061Y345958D01*
X391881Y346274D01*
X391678Y346522D01*
X391565Y346815D01*
X391610Y347221D01*
X391723Y347334D01*
X392219Y347289D01*
X392309Y347199D01*
X392399Y347154D01*
X393076Y346793D01*
X393256Y346613D01*
X393346Y346567D01*
X393662Y346387D01*
X393888Y346161D01*
X394384Y345891D01*
X394564Y345710D01*
X394970Y345485D01*
X395196Y345259D01*
X395534Y345056D01*
X395579Y344966D01*
X395692Y344853D01*
X396098Y344628D01*
X396188Y344538D01*
X396413Y344447D01*
X396639Y344493D01*
X396707Y344560D01*
X396797Y345192D01*
X396865Y345620D01*
X396910Y345891D01*
X396955Y346071D01*
X397000Y346297D01*
X397045Y346703D01*
X397067Y347627D01*
X397022Y347763D01*
X396955Y348056D01*
X396842Y348439D01*
X396774Y348732D01*
X396684Y348958D01*
X396616Y349026D01*
X396571Y349116D01*
X396391Y349296D01*
X396346Y349386D01*
X396233Y349499D01*
X395669Y349702D01*
X395602Y349770D01*
X395286Y349815D01*
X394970Y349770D01*
X394745Y349679D01*
X394339Y349725D01*
X394113Y349815D01*
X393752Y349905D01*
X393459Y350018D01*
X393369Y350108D01*
X393324Y350198D01*
X393256Y350266D01*
X393166Y350311D01*
X392918Y350514D01*
X392625Y350807D01*
X392535Y350852D01*
X392467Y350920D01*
X392286Y351236D01*
X392151Y351371D01*
X392061Y351596D01*
X392016Y352047D01*
X392061Y352589D01*
X392286Y352904D01*
X392377Y352994D01*
X392557Y353310D01*
X392625Y353378D01*
X392715Y353423D01*
X393076Y353784D01*
X393572Y354054D01*
X393662Y354145D01*
X393978Y354280D01*
X394925Y354235D01*
X395060Y354190D01*
X395376Y354009D01*
X395850Y353761D01*
X395895Y353671D01*
X395985Y353581D01*
X396030Y353491D01*
X396346Y353175D01*
X396616Y352679D01*
X396797Y352273D01*
X396865Y351529D01*
X396955Y351303D01*
X397067Y351145D01*
X397248Y350739D01*
X397428Y350424D01*
X397586Y350311D01*
X397767Y350040D01*
X398060Y349747D01*
X398150Y349522D01*
X398195Y349431D01*
X398421Y349071D01*
X398511Y348710D01*
X398556Y348259D01*
X398601Y346319D01*
X398578Y337502D01*
X398601Y337254D01*
X398556Y337118D01*
X398601Y336667D01*
X398714Y336555D01*
X398962Y336532D01*
X400608Y336555D01*
X400743Y336509D01*
X400991Y336577D01*
X401082Y336667D01*
X401127Y336848D01*
X401082Y337840D01*
X401104Y350988D01*
X401037Y351145D01*
X400834Y351348D01*
X400766Y351371D01*
X400721Y351461D01*
X400518Y351664D01*
X400428Y351709D01*
X400225Y351912D01*
X400180Y352002D01*
X399864Y352228D01*
X399819Y352318D01*
X399661Y352476D01*
X399571Y352521D01*
X399165Y352927D01*
X399075Y352972D01*
X398917Y353130D01*
X398872Y353220D01*
X398759Y353333D01*
X398669Y353378D01*
X398263Y353784D01*
X398172Y353829D01*
X398015Y353987D01*
X397970Y354077D01*
X397857Y354190D01*
X397767Y354235D01*
X397564Y354438D01*
X397518Y354528D01*
X397451Y354596D01*
X397361Y354641D01*
X397158Y354844D01*
X397113Y354934D01*
X397000Y355047D01*
X396910Y355092D01*
X396616Y355385D01*
X396594Y355453D01*
X396504Y355498D01*
X396391Y355610D01*
X396346Y355701D01*
X396143Y355949D01*
X395940Y356152D01*
X395895Y356242D01*
X395534Y356603D01*
X395444Y356828D01*
X395263Y357144D01*
X395083Y357550D01*
X395038Y358136D01*
X394993Y358813D01*
X394700Y359241D01*
X394564Y359377D01*
X394203Y359467D01*
X393888Y359647D01*
X393820Y359715D01*
X393775Y359805D01*
X393707Y359873D01*
X393617Y359918D01*
X393414Y360121D01*
X393324Y360346D01*
X393279Y360527D01*
X393166Y360820D01*
X393053Y361068D01*
X392963Y361429D01*
X392918Y362151D01*
X392963Y362466D01*
X393008Y362692D01*
X393234Y363053D01*
X393414Y363368D01*
X393482Y363436D01*
X393572Y363481D01*
X393888Y363797D01*
X394181Y363910D01*
X394564Y364112D01*
X394745Y364158D01*
X395241Y364203D01*
X395376Y364158D01*
X395827Y364112D01*
X396233Y363932D01*
X396459Y363842D01*
X396752Y363729D01*
X397203Y363278D01*
X397316Y362985D01*
X397406Y362759D01*
X397564Y362376D01*
X397609Y362196D01*
X397564Y361384D01*
X397518Y361248D01*
X397293Y360662D01*
X397225Y360324D01*
X397180Y360143D01*
X396887Y359580D01*
X396842Y359399D01*
X396797Y359084D01*
X396842Y358046D01*
X397022Y357730D01*
X397158Y357595D01*
X397248Y357369D01*
X397383Y357144D01*
X397586Y356896D01*
X397654Y356828D01*
X397789Y356603D01*
X398105Y356287D01*
X398150Y356197D01*
X398263Y356039D01*
X398353Y355994D01*
X398556Y355791D01*
X398601Y355701D01*
X398759Y355543D01*
X398849Y355498D01*
X398962Y355385D01*
X399007Y355295D01*
X399165Y355137D01*
X399255Y355092D01*
X399413Y354934D01*
X399458Y354844D01*
X399616Y354686D01*
X399706Y354641D01*
X399864Y354483D01*
X399909Y354393D01*
X400022Y354280D01*
X400112Y354235D01*
X400586Y353761D01*
X400631Y353671D01*
X400834Y353423D01*
X401014Y353468D01*
X401082Y353536D01*
X401127Y353716D01*
X401082Y354573D01*
X401104Y356174D01*
X401059Y357618D01*
X401014Y358024D01*
X400969Y358294D01*
X400924Y358475D01*
X400811Y358723D01*
X400608Y359286D01*
X400518Y359422D01*
X400428Y359467D01*
X400225Y359670D01*
X400180Y359760D01*
X399864Y360076D01*
X399774Y360391D01*
X399706Y360685D01*
X399661Y360865D01*
X399593Y361113D01*
X399548Y361294D01*
X399593Y362060D01*
X399683Y362286D01*
X399774Y362647D01*
X399909Y363007D01*
X399999Y363098D01*
X400044Y363188D01*
X400518Y363661D01*
X400608Y363706D01*
X401014Y363887D01*
X401600Y364158D01*
X401781Y364203D01*
X402367Y364248D01*
X402818Y364203D01*
X403111Y364135D01*
X403765Y363752D01*
X404104Y363413D01*
X404239Y363098D01*
X404555Y362421D01*
X404600Y361294D01*
X404555Y361158D01*
X404487Y360910D01*
X404397Y360685D01*
X404329Y360617D01*
X404284Y360482D01*
X404013Y359985D01*
X403743Y359715D01*
X403607Y359489D01*
X403540Y359422D01*
X403449Y359377D01*
X403382Y359309D01*
X403224Y358880D01*
X403134Y358655D01*
X403066Y358587D01*
X402976Y358272D01*
X402931Y357956D01*
X402886Y357505D01*
X402931Y353581D01*
X402998Y353513D01*
X403224Y353558D01*
X403292Y353626D01*
X403337Y353716D01*
X403901Y354280D01*
X403991Y354325D01*
X404352Y354686D01*
X404442Y354731D01*
X404757Y355047D01*
X404848Y355092D01*
X405299Y355543D01*
X405389Y355588D01*
X405457Y355656D01*
X405502Y355746D01*
X406719Y356964D01*
X406900Y357279D01*
X407125Y357505D01*
X407193Y357753D01*
X407283Y357978D01*
X407396Y358226D01*
X407441Y358407D01*
X407486Y358723D01*
X407374Y359196D01*
X407261Y359489D01*
X407170Y359850D01*
X407013Y360279D01*
X406900Y360391D01*
X406719Y360797D01*
X406652Y361045D01*
X406404Y361474D01*
X406359Y361654D01*
X406404Y362331D01*
X406629Y362647D01*
X406719Y362872D01*
X406900Y363188D01*
X407125Y363413D01*
X407306Y363729D01*
X407689Y363932D01*
X407779Y364022D01*
X408005Y364112D01*
X408366Y364203D01*
X408952Y364248D01*
X409268Y364203D01*
X409539Y364158D01*
X409854Y363932D01*
X410147Y363819D01*
X410373Y363729D01*
X410801Y363301D01*
X410892Y363256D01*
X411004Y363143D01*
X411140Y362827D01*
X411230Y362601D01*
X411410Y362196D01*
X411455Y361880D01*
X411410Y361294D01*
X411140Y360707D01*
X411027Y360414D01*
X410734Y360121D01*
X410689Y360031D01*
X410576Y359873D01*
X410486Y359828D01*
X410238Y359625D01*
X410170Y359557D01*
X409944Y359467D01*
X409584Y359331D01*
X409336Y359129D01*
X409268Y359061D01*
X409178Y359016D01*
X409065Y358903D01*
X408975Y358587D01*
X409042Y358159D01*
X409087Y357933D01*
X409110Y357595D01*
X409065Y357460D01*
X408907Y357031D01*
X408681Y356761D01*
X408569Y356648D01*
X408343Y356242D01*
X407892Y355791D01*
X407870Y355723D01*
X407779Y355678D01*
X407283Y355182D01*
X407193Y355137D01*
X407058Y355002D01*
X406968Y354957D01*
X406900Y354889D01*
X406855Y354799D01*
X406697Y354686D01*
X406449Y354483D01*
X406156Y354190D01*
X406066Y354145D01*
X405908Y353987D01*
X405863Y353897D01*
X405795Y353829D01*
X405705Y353784D01*
X405299Y353378D01*
X405209Y353333D01*
X405006Y353130D01*
X404960Y353040D01*
X404645Y352814D01*
X404600Y352724D01*
X404397Y352521D01*
X404307Y352476D01*
X404104Y352273D01*
X404081Y352205D01*
X403991Y352160D01*
X403856Y352025D01*
X403765Y351980D01*
X403540Y351709D01*
X403292Y351506D01*
X403201Y351281D01*
X403111Y350965D01*
Y341538D01*
Y341493D01*
X403134Y337231D01*
X403089Y336960D01*
X403066Y336893D01*
X403201Y336667D01*
X403269Y336600D01*
X403449Y336555D01*
X404938Y336600D01*
X405186Y336803D01*
X405209Y336870D01*
X405276Y336893D01*
X405321Y336983D01*
X405411Y337209D01*
X405457Y337524D01*
X405502Y343072D01*
X405547Y343207D01*
X405592Y346274D01*
X405637Y346410D01*
X405682Y347266D01*
X405727Y347402D01*
X405840Y348417D01*
X405885Y348777D01*
X405930Y349048D01*
X406156Y349409D01*
X406223Y349477D01*
X406449Y349882D01*
X406517Y349950D01*
X406607Y349995D01*
X406674Y350063D01*
X406900Y350469D01*
X407035Y350604D01*
X407080Y350694D01*
X407170Y350920D01*
X407396Y351326D01*
X407577Y351732D01*
X407644Y352341D01*
X407734Y352566D01*
X407847Y352724D01*
X408028Y352994D01*
X408073Y353175D01*
X408433Y353536D01*
X408478Y353626D01*
X408636Y353829D01*
X408727Y353874D01*
X409087Y354235D01*
X409268Y354280D01*
X409990Y354235D01*
X410238Y354032D01*
X410846Y353694D01*
X411117Y353423D01*
X411343Y353288D01*
X411455Y353175D01*
X411500Y353085D01*
X411771Y352589D01*
X411906Y352273D01*
X411951Y351687D01*
X411906Y351506D01*
X411861Y351190D01*
X411636Y350875D01*
X411591Y350784D01*
X411388Y350446D01*
X411298Y350401D01*
X411207Y350311D01*
X411117Y350266D01*
X411049Y350198D01*
X411004Y350108D01*
X410892Y349995D01*
X410666Y349905D01*
X410260Y349679D01*
X409944Y349544D01*
X409764Y349499D01*
X408321Y349454D01*
X408005Y349273D01*
X407915Y349183D01*
X407825Y349138D01*
X407622Y348935D01*
X407464Y348507D01*
X407374Y348281D01*
X407328Y348056D01*
X407261Y347447D01*
X407306Y345372D01*
X407351Y345237D01*
X407396Y344425D01*
X407509Y344312D01*
X407779Y344357D01*
X408028Y344560D01*
X408276Y344808D01*
X408366Y344853D01*
X408478Y344966D01*
X408524Y345056D01*
X408591Y345124D01*
X408681Y345169D01*
X408930Y345372D01*
X409178Y345620D01*
X409268Y345665D01*
X409426Y345823D01*
X409471Y345913D01*
X409741Y346139D01*
X410283Y346680D01*
X410328Y346770D01*
X410486Y346883D01*
X410576Y346973D01*
X410666Y347018D01*
X410779Y347176D01*
X410892Y347289D01*
X410982Y347334D01*
X411049Y347402D01*
X411095Y347492D01*
X411252Y347650D01*
X411433Y347695D01*
X411658Y347650D01*
X411749Y347560D01*
X411839Y347515D01*
X411974Y347379D01*
X412064Y347334D01*
X412312Y347131D01*
X412470Y346973D01*
X412921Y346838D01*
X413237Y346703D01*
X413462Y346613D01*
X413756Y346545D01*
X414996Y346522D01*
X415221Y346658D01*
X415289Y346725D01*
X415312Y346928D01*
X415267Y347109D01*
X415019Y347357D01*
X414816Y347695D01*
X414725Y347740D01*
X414568Y347898D01*
X414522Y347988D01*
X414364Y348191D01*
X414274Y348236D01*
X414116Y348394D01*
X413891Y348800D01*
X413710Y349071D01*
X413643Y349499D01*
X413553Y350040D01*
X413530Y350784D01*
X413575Y350920D01*
X413688Y351484D01*
X413778Y351709D01*
X413846Y351777D01*
X413891Y351867D01*
X414071Y352047D01*
X414116Y352138D01*
X414568Y352589D01*
X414613Y352679D01*
X414928Y352994D01*
X415064Y353310D01*
X415109Y353400D01*
X415289Y353671D01*
X415334Y353987D01*
X415289Y354799D01*
X414973Y355475D01*
X414748Y355881D01*
X414613Y356016D01*
X414387Y356422D01*
X414161Y356648D01*
X414116Y356738D01*
X413801Y357144D01*
X413710Y357234D01*
X413620Y357460D01*
X413440Y357775D01*
X413350Y357866D01*
X413260Y358226D01*
X413305Y359174D01*
X413530Y359535D01*
X413643Y359828D01*
X413733Y360053D01*
X414116Y360437D01*
X414161Y360527D01*
X414364Y360730D01*
X415131Y361090D01*
X415312Y361136D01*
X415875Y361203D01*
X416214Y361226D01*
X416349Y361181D01*
X416890Y361136D01*
X417026Y361090D01*
X417792Y360685D01*
X417995Y360482D01*
X418040Y360391D01*
X418401Y360031D01*
X418491Y359805D01*
X418604Y359512D01*
X418807Y359174D01*
X418852Y358723D01*
X418807Y358046D01*
X418582Y357730D01*
X418491Y357505D01*
X418311Y357189D01*
X418131Y357009D01*
X418085Y356919D01*
X417905Y356603D01*
X417634Y356332D01*
X417454Y356016D01*
X417274Y355836D01*
X417183Y355610D01*
X417138Y355430D01*
X417026Y355137D01*
X416868Y354844D01*
X416778Y354483D01*
X416823Y353491D01*
X417274Y352679D01*
X417589Y352363D01*
X417634Y352273D01*
X417725Y352183D01*
X417747Y352115D01*
X417837Y352070D01*
X417950Y351957D01*
X418085Y351641D01*
X418356Y351055D01*
X418401Y350875D01*
X418446Y350288D01*
X418379Y349634D01*
X418334Y349454D01*
X418085Y348935D01*
X418018Y348687D01*
X417928Y348462D01*
X417680Y348214D01*
X417589Y347988D01*
X417409Y347672D01*
X417319Y347582D01*
X417229Y347357D01*
X417183Y347176D01*
X417138Y346590D01*
X417093Y346274D01*
X417138Y342621D01*
X417183Y342485D01*
X417229Y341042D01*
X417296Y340975D01*
X417477Y341020D01*
X417950Y341493D01*
X417995Y341583D01*
X418108Y341696D01*
X418198Y341741D01*
X418446Y341989D01*
X418491Y342080D01*
X418559Y342147D01*
X418649Y342192D01*
X418852Y342395D01*
X418897Y342485D01*
X419055Y342643D01*
X419145Y342688D01*
X419258Y342801D01*
X419303Y342891D01*
X419416Y343004D01*
X419506Y343049D01*
X419957Y343500D01*
X420048Y343545D01*
X420115Y343613D01*
X420160Y343703D01*
X420318Y343861D01*
X420408Y343906D01*
X420656Y344154D01*
X420702Y344245D01*
X420972Y344425D01*
X421152Y344696D01*
X421198Y344786D01*
X421333Y345101D01*
X421288Y345688D01*
X421333Y345823D01*
X421401Y353333D01*
X421446Y358745D01*
X421491Y365826D01*
X421513Y366120D01*
X421355Y366322D01*
X421175Y366368D01*
D02*
G37*
G36*
X413553Y345936D02*
X413372Y345891D01*
X413011Y345846D01*
X412605Y345665D01*
X412177Y345507D01*
X412019Y345395D01*
X411839Y345214D01*
X411523Y345034D01*
X411343Y344853D01*
X411252Y344808D01*
X410824Y344515D01*
X410486Y344177D01*
X410395Y344132D01*
X410328Y344064D01*
Y344019D01*
X409629Y343320D01*
X409539Y343275D01*
X409471Y343207D01*
X409426Y343117D01*
X409313Y343004D01*
X409223Y342959D01*
X409132Y342869D01*
X409042Y342824D01*
X408930Y342666D01*
X408862Y342598D01*
X408772Y342553D01*
X408681Y342463D01*
X408591Y342418D01*
X408478Y342260D01*
X408411Y342147D01*
X408321Y342102D01*
X408118Y341899D01*
X408005Y341606D01*
X407712Y341042D01*
X407667Y340726D01*
X407644Y339576D01*
X407689Y338088D01*
X407734Y337682D01*
X407779Y337502D01*
X407892Y337209D01*
X408005Y337051D01*
X408321Y336960D01*
X408569Y337028D01*
X408727Y337096D01*
X409223Y337321D01*
X409539Y337411D01*
X409809Y337456D01*
X410395Y337727D01*
X410756Y337817D01*
X411049Y337885D01*
X411207Y337953D01*
X411523Y338178D01*
X411771Y338246D01*
X412222Y338336D01*
X412448Y338426D01*
X412651Y338539D01*
X412876Y338629D01*
X413417Y338719D01*
X413665Y338787D01*
X413891Y338877D01*
X413959Y338945D01*
X414184Y339035D01*
X414500Y339215D01*
X414568Y339283D01*
X414838Y339869D01*
X414883Y340185D01*
X414928Y340636D01*
X414973Y342846D01*
X414928Y345643D01*
X414725Y345846D01*
X413688Y345891D01*
X413553Y345936D01*
D02*
G37*
%LPD*%
G36*
X387258Y378004D02*
X387573Y377779D01*
X387776Y377576D01*
Y377531D01*
X387866Y377440D01*
X387912Y377350D01*
X388092Y376944D01*
X388047Y376313D01*
X387821Y375997D01*
X387754Y375929D01*
X387664Y375884D01*
X387167Y375659D01*
X386897Y375704D01*
X386581Y375884D01*
X386423Y375997D01*
X386198Y376403D01*
X386062Y376629D01*
X386017Y376809D01*
X386062Y377395D01*
X386378Y377711D01*
X386423Y377801D01*
X386581Y377959D01*
X386807Y378049D01*
X387258Y378004D01*
D02*
G37*
%LPC*%
G36*
X388160Y327850D02*
X386536Y327804D01*
X386243Y327602D01*
X386198Y327511D01*
X386062Y327376D01*
X386017Y327060D01*
X385995Y324692D01*
X386062Y324535D01*
X386175Y324422D01*
X386987Y324467D01*
X387032D01*
X388137Y324535D01*
X388363Y324580D01*
X388633Y324625D01*
X388814Y324670D01*
X389039Y324760D01*
X389219Y324805D01*
X389670Y324895D01*
X389896Y324986D01*
X389964Y325053D01*
X390054Y325098D01*
X390189Y325234D01*
X390279Y325279D01*
X390573Y325572D01*
X390618Y325888D01*
X390573Y326248D01*
X390347Y326564D01*
X390257Y326790D01*
X390054Y326993D01*
X389964Y327038D01*
X389716Y327241D01*
X389603Y327353D01*
X389310Y327466D01*
X389084Y327556D01*
X389017Y327624D01*
X388926Y327669D01*
X388611Y327804D01*
X388160Y327850D01*
D02*
G37*
G36*
X401239D02*
X399075Y327804D01*
X398962Y327556D01*
X399007Y326699D01*
X399052Y324489D01*
X399142Y324309D01*
X399165Y324286D01*
X399390Y324061D01*
X399706Y323971D01*
X400698Y324016D01*
X401014Y324061D01*
X401352Y324129D01*
X401578Y324219D01*
X401871Y324331D01*
X402187Y324422D01*
X402593Y324647D01*
X402773Y324828D01*
X402863Y324873D01*
X403247Y325256D01*
X403382Y325707D01*
X403427Y325888D01*
X403382Y326339D01*
X403337Y326474D01*
X403224Y326767D01*
X403111Y326925D01*
X402683Y327353D01*
X402119Y327556D01*
X401555Y327804D01*
X401239Y327850D01*
D02*
G37*
G36*
X439352Y327759D02*
X439216Y327714D01*
X438878Y327647D01*
X438698Y327602D01*
X438404Y327489D01*
X438224Y327444D01*
X437931Y327376D01*
X437683Y327218D01*
X437593Y327128D01*
X437502Y327083D01*
X437187Y326902D01*
X437074Y326835D01*
X437029Y326745D01*
X436871Y326587D01*
X436781Y326542D01*
X436668Y326429D01*
X436623Y326339D01*
X436420Y326091D01*
X436307Y325978D01*
X436217Y325752D01*
X436059Y325324D01*
X435856Y324850D01*
X435811Y324535D01*
X435766Y323993D01*
X435811Y323858D01*
X435856Y323497D01*
X436172Y323001D01*
X436217Y322821D01*
X436443Y322505D01*
X436578Y322370D01*
X436691Y322076D01*
X436803Y321919D01*
X436916Y321806D01*
X436984Y321783D01*
X437029Y321693D01*
X437119Y321603D01*
X437164Y321513D01*
X437277Y321400D01*
X437367Y321355D01*
X437683Y321039D01*
X437998Y320949D01*
X438292Y320836D01*
X438359Y320768D01*
X438449Y320723D01*
X438540Y320633D01*
X438856Y320543D01*
X440299Y320588D01*
X440615Y320768D01*
X440705Y320859D01*
X440885Y320904D01*
X441111Y320994D01*
X441201Y321039D01*
X441517Y321355D01*
X441607Y321400D01*
X441810Y321558D01*
X441855Y321648D01*
X442216Y322009D01*
X442396Y322324D01*
X442577Y322505D01*
X442667Y322821D01*
X442734Y323114D01*
X442982Y323677D01*
X443027Y323813D01*
Y323858D01*
X442982Y324805D01*
X442802Y325076D01*
X442712Y325301D01*
X442667Y325482D01*
X442486Y325797D01*
X442306Y325978D01*
X442216Y326203D01*
X442170Y326293D01*
X442013Y326497D01*
X441923Y326542D01*
X441674Y326745D01*
X441517Y326902D01*
X441111Y327128D01*
X440930Y327308D01*
X440705Y327398D01*
X440524Y327444D01*
X440231Y327511D01*
X439577Y327714D01*
X439352Y327759D01*
D02*
G37*
%LPD*%
D33*
X69276Y273143D02*
D03*
Y288183D02*
D03*
X90476D02*
D03*
Y273143D02*
D03*
D34*
X69276Y280663D02*
D03*
X90476D02*
D03*
D35*
X156520Y321852D02*
D03*
Y348624D02*
D03*
X172268D02*
D03*
Y321852D02*
D03*
X34400Y375883D02*
D03*
Y349111D02*
D03*
X18652D02*
D03*
Y375883D02*
D03*
D36*
X40287Y298189D02*
D03*
X33594D02*
D03*
X40673Y331698D02*
D03*
X33980D02*
D03*
D37*
X115974Y239981D02*
D03*
X112234Y247855D02*
D03*
X119714D02*
D03*
D38*
X7563Y306925D02*
D03*
Y317949D02*
D03*
D39*
X24098Y305547D02*
D03*
Y307516D02*
D03*
Y309484D02*
D03*
Y311453D02*
D03*
Y313421D02*
D03*
Y315390D02*
D03*
Y317358D02*
D03*
Y319327D02*
D03*
D40*
Y303185D02*
D03*
Y300232D02*
D03*
Y321689D02*
D03*
Y324642D02*
D03*
D41*
X58220Y318327D02*
D03*
Y316358D02*
D03*
Y314390D02*
D03*
X51881D02*
D03*
Y316358D02*
D03*
Y318327D02*
D03*
D43*
X40673Y264419D02*
D03*
Y281348D02*
D03*
D44*
X97701Y356985D02*
D03*
X92189D02*
D03*
X103213D02*
D03*
X92189Y351473D02*
D03*
X97701D02*
D03*
X103213D02*
D03*
X92189Y362497D02*
D03*
X97701D02*
D03*
X103213D02*
D03*
D45*
X69157Y387379D02*
D03*
Y382379D02*
D03*
Y377379D02*
D03*
Y372379D02*
D03*
Y367379D02*
D03*
Y362379D02*
D03*
Y357379D02*
D03*
Y352379D02*
D03*
Y347379D02*
D03*
Y342379D02*
D03*
Y337379D02*
D03*
Y332379D02*
D03*
Y327379D02*
D03*
Y322379D02*
D03*
X138055D02*
D03*
Y327379D02*
D03*
Y332379D02*
D03*
Y337379D02*
D03*
Y342379D02*
D03*
Y347379D02*
D03*
Y352379D02*
D03*
Y357379D02*
D03*
Y362379D02*
D03*
Y367379D02*
D03*
Y372379D02*
D03*
Y377379D02*
D03*
Y382379D02*
D03*
Y387379D02*
D03*
D46*
X76106Y317458D02*
D03*
X81106D02*
D03*
X86106D02*
D03*
X91106D02*
D03*
X96106D02*
D03*
X101106D02*
D03*
X106106D02*
D03*
X111106D02*
D03*
X116106D02*
D03*
X121106D02*
D03*
X126106D02*
D03*
X131106D02*
D03*
D47*
X473794Y355307D02*
D03*
Y360425D02*
D03*
X181531Y313914D02*
D03*
Y319032D02*
D03*
X58541Y382497D02*
D03*
Y377379D02*
D03*
X433474Y281455D02*
D03*
Y286573D02*
D03*
X439653Y281388D02*
D03*
Y286506D02*
D03*
X126114Y248105D02*
D03*
Y242986D02*
D03*
X364049Y281325D02*
D03*
Y286443D02*
D03*
X370747Y281455D02*
D03*
Y286573D02*
D03*
X292575Y281275D02*
D03*
Y286394D02*
D03*
X299317Y281275D02*
D03*
Y286394D02*
D03*
X223227Y281276D02*
D03*
Y286394D02*
D03*
X230566Y281390D02*
D03*
Y286508D02*
D03*
X427021Y281455D02*
D03*
Y286573D02*
D03*
X445815Y281455D02*
D03*
Y286573D02*
D03*
X357390Y281275D02*
D03*
Y286393D02*
D03*
X377332Y281568D02*
D03*
Y286686D02*
D03*
X285833Y281275D02*
D03*
Y286394D02*
D03*
X306060Y281275D02*
D03*
Y286394D02*
D03*
X9531Y367261D02*
D03*
Y372379D02*
D03*
X215887Y281276D02*
D03*
Y286394D02*
D03*
X237906Y281409D02*
D03*
Y286528D02*
D03*
D48*
X258441Y286273D02*
D03*
Y288832D02*
D03*
Y291391D02*
D03*
X250882D02*
D03*
Y288832D02*
D03*
Y286273D02*
D03*
X326239Y286273D02*
D03*
Y288832D02*
D03*
Y291391D02*
D03*
X318680D02*
D03*
Y288832D02*
D03*
Y286273D02*
D03*
X398083Y286190D02*
D03*
Y288749D02*
D03*
Y291308D02*
D03*
X390524D02*
D03*
Y288749D02*
D03*
Y286190D02*
D03*
X464042Y286273D02*
D03*
Y288832D02*
D03*
Y291391D02*
D03*
X456483D02*
D03*
Y288832D02*
D03*
Y286273D02*
D03*
D49*
X266878Y287212D02*
D03*
Y292527D02*
D03*
X334582Y286320D02*
D03*
Y291635D02*
D03*
X407131Y292696D02*
D03*
Y287381D02*
D03*
X59169Y349602D02*
D03*
Y354917D02*
D03*
X472898Y287298D02*
D03*
Y292613D02*
D03*
X47461Y349602D02*
D03*
Y354917D02*
D03*
X49680Y298645D02*
D03*
Y303960D02*
D03*
D50*
X183059Y371662D02*
D03*
X177941D02*
D03*
X183059Y382737D02*
D03*
X177941D02*
D03*
X31953Y214048D02*
D03*
X37071D02*
D03*
X16854Y287423D02*
D03*
X21972D02*
D03*
X34768Y311150D02*
D03*
X39886D02*
D03*
X34768Y318295D02*
D03*
X39886D02*
D03*
D51*
X171429Y371662D02*
D03*
X165524D02*
D03*
Y382737D02*
D03*
X171429D02*
D03*
D52*
X100961Y272384D02*
D03*
X108835D02*
D03*
X108836Y288423D02*
D03*
X100962D02*
D03*
D53*
X24591Y388025D02*
D03*
X29906D02*
D03*
D54*
X353830Y266192D02*
D03*
X282713D02*
D03*
X424112Y266127D02*
D03*
X213204Y266531D02*
D03*
D55*
X349815Y258200D02*
D03*
X357807D02*
D03*
X365799D02*
D03*
X361823Y266192D02*
D03*
X369815D02*
D03*
X377807D02*
D03*
X373791Y258200D02*
D03*
X278697D02*
D03*
X286689D02*
D03*
X294681D02*
D03*
X290705Y266192D02*
D03*
X298697D02*
D03*
X306689D02*
D03*
X302674Y258200D02*
D03*
X420096Y258135D02*
D03*
X428088D02*
D03*
X436080D02*
D03*
X432104Y266127D02*
D03*
X440096D02*
D03*
X448088D02*
D03*
X444072Y258135D02*
D03*
X209189Y258538D02*
D03*
X217181D02*
D03*
X225173D02*
D03*
X221197Y266531D02*
D03*
X229189D02*
D03*
X237181D02*
D03*
X233165Y258538D02*
D03*
D56*
X341311Y235680D02*
D03*
X386311D02*
D03*
X270193D02*
D03*
X315193D02*
D03*
X411592Y235615D02*
D03*
X456592D02*
D03*
X200685Y236019D02*
D03*
X245685D02*
D03*
D57*
X468504Y377953D02*
D03*
X15748Y224410D02*
D03*
D58*
X166585Y264227D02*
D03*
X176428D02*
D03*
X156743D02*
D03*
X76308Y222440D02*
D03*
X86150D02*
D03*
X66465D02*
D03*
X95993D02*
D03*
X105835D02*
D03*
X115678D02*
D03*
X125520D02*
D03*
X135363D02*
D03*
X145205D02*
D03*
D59*
X146900Y264227D02*
D03*
X56623Y222440D02*
D03*
D60*
X19768Y300626D02*
D03*
D61*
Y324248D02*
D03*
D62*
X7563Y295429D02*
D03*
Y329445D02*
D03*
D63*
X22622Y295429D02*
D03*
Y329445D02*
D03*
M02*
