M48
;Layer_Color=9474304
;FILE_FORMAT=2:5
INCH,LZ
;TYPE=PLATED
T1F00S00C0.00787
T2F00S00C0.01181
T4F00S00C0.03504
T5F00S00C0.03937
T6F00S00C0.12992
;TYPE=NON_PLATED
T7F00S00C0.02362
T9F00S00C0.12795
%
T01
X0094945Y0351473
X0092189Y0354229
X0094945Y0356985
X0092189Y0359741
X0094945Y0362497
X0097701Y0359741
X0100457Y0362497
X0103213Y0359741
Y0354229
X0097701
X0100457Y0356985
Y0351473
T02
X0039827Y0214048
X0040673Y0258412
X0041949Y0298189
X004968Y0294862
X0059337Y0289152
X0080745Y0282064
X0084682
X0082714Y0278127
X0098462
X0102399
X0106336
X0110273
X0108304Y0282064
X0104367
X010043
X0096493
X01195Y02685
X0024728Y0287423
X0027543Y0300134
X0189015Y0289152
X0192164
X0195314
X0196889Y0286002
X0193739
X0190589
X018744
X0189015Y0282853
X0192164
X0195314
X0198463
X0201613
X0203188Y0279703
X0200038
X0196889
X0193739
X0190589
X018744
X0189015Y0276554
X0192164
X0195314
X0198463
X0201613
X0204763
X0207912
X0209487Y0273404
X0206337
X0203188
X0200038
X0196889
X0193739
X0190589
X018744
X0189015Y0270254
X0192164
X0195314
X0198463
X0201613
X0204763
X0207912
X0206337Y0267105
X0203188
X0200038
X0196889
X0193739
X0190589
X018744
X0189015Y0263955
X0192164
X0195314
X0198463
X0201613
X0204763
X0207912
X0203188Y0260806
X0200038
X0196889
X0193739
X0195314Y0257656
X0198463
X0201613
X0203188Y0254506
X0206337
X0200038
X0212637Y0273404
X0215786
X0234796Y0276609
X0247482Y0283972
X0247535Y0288832
X0261787
X0266879Y0284555
X030678Y0277522
X0313686Y0285427
X0315333Y0288832
X0329585
X0334582Y0283662
X0373121Y0277372
X0387177Y0285789
X0385594Y0288443
X0400549Y0288749
X0407131Y0284723
X0441348Y0278131
X0453083Y0283517
X0453137Y0288832
X0467389
X0472898Y028464
X0473794Y0350663
X0185815Y0371662
Y0382737
X0143Y0387379
X0142946Y0342094
X0142848Y0337207
X0159555Y0350107
X0131489Y0312641
X0126114Y0312489
X0127137Y0307852
X0118837Y0312952
X0127437Y0338452
X0073694Y033347
X0073753Y0326
X00765Y0324
X0053737Y0332752
X0044371Y0331698
X0048166Y0316425
X0027855Y0326869
X0037663Y0345345
X0051422Y0349602
X0063083
X006471Y0345952
X0088619Y0368678
X0092556
X0090588Y0372615
X0086651
X0088619Y0376552
X0092556
X0090588Y0380489
X0086651
X0082714
X0078777
X0080745Y0384426
X0084682
X0088619
X0092556
X0084682Y0376552
X0080745
X0076808Y0384426
X003398Y038409
X0033Y0388
T04
X0209189Y0258538
X0217181
X0225173
X0233165
X0229189Y0266531
X0237181
X0221197
X0213204
X0282713Y0266192
X0286689Y02582
X0278697
X0294681
X0302674
X0298697Y0266192
X0306689
X0290705
X035383
X0361823
X0369815
X0377807
X0373791Y02582
X0365799
X0357807
X0349815
X0420096Y0258135
X0428088
X043608
X0432104Y0266127
X0424112
X0440096
X0448088
X0444072Y0258135
T05
X0056623Y022244
X0066465
X0076308
X008615
X0095993
X0105835
X0115678
X012552
X0135363
X0145205
X01469Y0264227
X0156743
X0166585
X0176428
T06
X0015748Y022441
X0468504Y0377953
T07
X0019768Y0324248
T09
X0200685Y0236019
X0245685
X0270193Y023568
X0315193
X0341311
X0386311
X0411592Y0235615
X0456592
M30
