G04*
G04 #@! TF.GenerationSoftware,Altium Limited,Altium Designer,22.11.1 (43)*
G04*
G04 Layer_Color=8421504*
%FSLAX25Y25*%
%MOIN*%
G70*
G04*
G04 #@! TF.SameCoordinates,3125327F-633B-4DE6-8F98-D116A0B0FB6F*
G04*
G04*
G04 #@! TF.FilePolarity,Positive*
G04*
G01*
G75*
%ADD12C,0.00500*%
%ADD19C,0.01575*%
%ADD20C,0.03937*%
%ADD21C,0.02362*%
%ADD22C,0.01000*%
%ADD23R,0.06299X0.11024*%
%ADD24R,0.03543X0.03543*%
%ADD25R,0.05906X0.03543*%
%ADD26R,0.03543X0.05906*%
%ADD27R,0.03740X0.03347*%
G04:AMPARAMS|DCode=28|XSize=46.85mil|YSize=15.75mil|CornerRadius=3.94mil|HoleSize=0mil|Usage=FLASHONLY|Rotation=180.000|XOffset=0mil|YOffset=0mil|HoleType=Round|Shape=RoundedRectangle|*
%AMROUNDEDRECTD28*
21,1,0.04685,0.00787,0,0,180.0*
21,1,0.03898,0.01575,0,0,180.0*
1,1,0.00787,-0.01949,0.00394*
1,1,0.00787,0.01949,0.00394*
1,1,0.00787,0.01949,-0.00394*
1,1,0.00787,-0.01949,-0.00394*
%
%ADD28ROUNDEDRECTD28*%
%ADD29R,0.03937X0.03543*%
%ADD30R,0.03347X0.03740*%
%ADD31R,0.03150X0.03150*%
%ADD32R,0.03937X0.04724*%
%ADD33R,0.06000X0.02000*%
%ADD34R,0.06000X0.07000*%
%ADD35R,0.03937X0.12598*%
%ADD36R,0.03543X0.03150*%
%ADD37R,0.03150X0.03543*%
%ADD38R,0.07874X0.03937*%
%ADD39R,0.03937X0.01063*%
%ADD40R,0.03937X0.02047*%
%ADD41R,0.03898X0.01181*%
%ADD42R,0.03543X0.03937*%
G36*
X-250895Y-27520D02*
X-248915D01*
X-248140D01*
X-246619Y-27217D01*
X-245187Y-26624D01*
X-243898Y-25763D01*
X-242802Y-24667D01*
X-241940Y-23378D01*
X-241347Y-21945D01*
X-241045Y-20425D01*
Y-19650D01*
Y-18873D01*
X-241347Y-17351D01*
X-241941Y-15917D01*
X-242804Y-14626D01*
X-243901Y-13529D01*
X-245192Y-12666D01*
X-246626Y-12072D01*
X-248148Y-11770D01*
X-248925D01*
D01*
X-250895D01*
Y-27520D01*
D02*
G37*
G36*
Y19730D02*
X-248915D01*
X-248140D01*
X-246619Y20033D01*
X-245187Y20626D01*
X-243898Y21487D01*
X-242802Y22583D01*
X-241940Y23873D01*
X-241347Y25305D01*
X-241045Y26825D01*
Y27600D01*
Y28376D01*
X-241347Y29899D01*
X-241941Y31333D01*
X-242804Y32624D01*
X-243901Y33721D01*
X-245192Y34584D01*
X-246626Y35177D01*
X-248148Y35480D01*
X-248925D01*
D01*
X-250895D01*
Y19730D01*
D02*
G37*
G36*
Y66970D02*
X-248915D01*
X-248140D01*
X-246619Y67273D01*
X-245187Y67866D01*
X-243898Y68727D01*
X-242802Y69823D01*
X-241940Y71113D01*
X-241347Y72545D01*
X-241045Y74065D01*
Y74840D01*
Y75617D01*
X-241347Y77139D01*
X-241941Y78573D01*
X-242804Y79864D01*
X-243901Y80961D01*
X-245192Y81823D01*
X-246626Y82418D01*
X-248148Y82720D01*
X-248925D01*
D01*
X-250895D01*
Y66970D01*
D02*
G37*
G36*
Y114210D02*
X-248915D01*
X-248140D01*
X-246619Y114513D01*
X-245187Y115106D01*
X-243898Y115967D01*
X-242802Y117063D01*
X-241940Y118352D01*
X-241347Y119785D01*
X-241045Y121305D01*
Y122080D01*
Y122856D01*
X-241347Y124379D01*
X-241941Y125813D01*
X-242804Y127103D01*
X-243901Y128201D01*
X-245192Y129063D01*
X-246626Y129657D01*
X-248148Y129960D01*
X-248925D01*
D01*
X-250895D01*
Y114210D01*
D02*
G37*
G36*
Y161460D02*
X-248915D01*
X-248140D01*
X-246619Y161763D01*
X-245187Y162356D01*
X-243898Y163217D01*
X-242802Y164313D01*
X-241940Y165603D01*
X-241347Y167035D01*
X-241045Y168555D01*
Y169330D01*
Y170106D01*
X-241347Y171629D01*
X-241941Y173063D01*
X-242804Y174354D01*
X-243901Y175451D01*
X-245192Y176313D01*
X-246626Y176908D01*
X-248148Y177210D01*
X-248925D01*
D01*
X-250895D01*
Y161460D01*
D02*
G37*
G36*
Y208700D02*
X-248915D01*
X-248140D01*
X-246619Y209003D01*
X-245187Y209596D01*
X-243898Y210457D01*
X-242802Y211554D01*
X-241940Y212842D01*
X-241347Y214275D01*
X-241045Y215795D01*
Y216570D01*
Y217347D01*
X-241347Y218869D01*
X-241941Y220303D01*
X-242804Y221594D01*
X-243901Y222691D01*
X-245192Y223553D01*
X-246626Y224148D01*
X-248148Y224450D01*
X-248925D01*
D01*
X-250895D01*
Y208700D01*
D02*
G37*
G36*
Y255950D02*
X-248915D01*
X-248140D01*
X-246619Y256253D01*
X-245187Y256846D01*
X-243898Y257707D01*
X-242802Y258804D01*
X-241940Y260092D01*
X-241347Y261525D01*
X-241045Y263045D01*
Y263820D01*
Y264597D01*
X-241347Y266119D01*
X-241941Y267553D01*
X-242804Y268844D01*
X-243901Y269941D01*
X-245192Y270803D01*
X-246626Y271397D01*
X-248148Y271700D01*
X-248925D01*
D01*
X-250895D01*
Y255950D01*
D02*
G37*
G36*
Y303190D02*
X-248915D01*
X-248140D01*
X-246619Y303493D01*
X-245187Y304086D01*
X-243898Y304947D01*
X-242802Y306044D01*
X-241940Y307332D01*
X-241347Y308765D01*
X-241045Y310285D01*
Y311060D01*
Y311837D01*
X-241347Y313359D01*
X-241941Y314793D01*
X-242804Y316084D01*
X-243901Y317181D01*
X-245192Y318043D01*
X-246626Y318637D01*
X-248148Y318940D01*
X-248925D01*
D01*
X-250895D01*
Y303190D01*
D02*
G37*
G36*
Y350430D02*
X-248915D01*
X-248140D01*
X-246619Y350733D01*
X-245187Y351326D01*
X-243898Y352187D01*
X-242802Y353284D01*
X-241940Y354573D01*
X-241347Y356005D01*
X-241045Y357525D01*
Y358300D01*
Y359076D01*
X-241347Y360599D01*
X-241941Y362033D01*
X-242804Y363323D01*
X-243901Y364421D01*
X-245192Y365283D01*
X-246626Y365878D01*
X-248148Y366180D01*
X-248925D01*
D01*
X-250895D01*
Y350430D01*
D02*
G37*
G36*
Y397680D02*
X-248915D01*
X-248140D01*
X-246619Y397983D01*
X-245187Y398576D01*
X-243898Y399437D01*
X-242802Y400533D01*
X-241940Y401823D01*
X-241347Y403255D01*
X-241045Y404775D01*
Y405550D01*
Y406326D01*
X-241347Y407849D01*
X-241941Y409283D01*
X-242804Y410573D01*
X-243901Y411671D01*
X-245192Y412534D01*
X-246626Y413128D01*
X-248148Y413430D01*
X-248925D01*
D01*
X-250895D01*
Y397680D01*
D02*
G37*
G36*
Y444920D02*
X-248915D01*
X-248140D01*
X-246619Y445223D01*
X-245187Y445816D01*
X-243898Y446677D01*
X-242802Y447774D01*
X-241940Y449062D01*
X-241347Y450495D01*
X-241045Y452015D01*
Y452790D01*
Y453567D01*
X-241347Y455089D01*
X-241941Y456523D01*
X-242804Y457814D01*
X-243901Y458911D01*
X-245192Y459773D01*
X-246626Y460367D01*
X-248148Y460670D01*
X-248925D01*
D01*
X-250895D01*
Y444920D01*
D02*
G37*
G36*
Y492170D02*
X-248915D01*
X-248140D01*
X-246619Y492473D01*
X-245187Y493066D01*
X-243898Y493927D01*
X-242802Y495023D01*
X-241940Y496313D01*
X-241347Y497745D01*
X-241045Y499265D01*
Y500040D01*
Y500816D01*
X-241347Y502339D01*
X-241941Y503773D01*
X-242804Y505064D01*
X-243901Y506161D01*
X-245192Y507023D01*
X-246626Y507618D01*
X-248148Y507920D01*
X-248925D01*
D01*
X-250895D01*
Y492170D01*
D02*
G37*
G36*
Y539410D02*
X-248915D01*
X-248140D01*
X-246619Y539713D01*
X-245187Y540306D01*
X-243898Y541167D01*
X-242802Y542264D01*
X-241940Y543552D01*
X-241347Y544985D01*
X-241045Y546505D01*
Y547280D01*
Y548057D01*
X-241347Y549579D01*
X-241941Y551013D01*
X-242804Y552304D01*
X-243901Y553401D01*
X-245192Y554263D01*
X-246626Y554857D01*
X-248148Y555160D01*
X-248925D01*
D01*
X-250895D01*
Y539410D01*
D02*
G37*
G36*
Y586650D02*
X-248915D01*
X-248140D01*
X-246619Y586953D01*
X-245187Y587546D01*
X-243898Y588407D01*
X-242802Y589503D01*
X-241940Y590793D01*
X-241347Y592225D01*
X-241045Y593745D01*
Y594520D01*
Y595296D01*
X-241347Y596819D01*
X-241941Y598253D01*
X-242804Y599544D01*
X-243901Y600641D01*
X-245192Y601504D01*
X-246626Y602098D01*
X-248148Y602400D01*
X-248925D01*
D01*
X-250895D01*
Y586650D01*
D02*
G37*
G36*
Y633900D02*
X-248915D01*
X-248140D01*
X-246619Y634203D01*
X-245187Y634796D01*
X-243898Y635657D01*
X-242802Y636754D01*
X-241940Y638042D01*
X-241347Y639475D01*
X-241045Y640995D01*
Y641770D01*
Y642547D01*
X-241347Y644069D01*
X-241941Y645503D01*
X-242804Y646794D01*
X-243901Y647891D01*
X-245192Y648753D01*
X-246626Y649347D01*
X-248148Y649650D01*
X-248925D01*
D01*
X-250895D01*
Y633900D01*
D02*
G37*
G36*
X733355Y-27520D02*
X731375D01*
X730600D01*
X729080Y-27217D01*
X727647Y-26624D01*
X726358Y-25763D01*
X725262Y-24667D01*
X724401Y-23378D01*
X723808Y-21945D01*
X723505Y-20425D01*
Y-19650D01*
Y-18873D01*
X723808Y-17351D01*
X724402Y-15917D01*
X725264Y-14626D01*
X726362Y-13529D01*
X727653Y-12666D01*
X729087Y-12072D01*
X730609Y-11770D01*
X731385D01*
D01*
X733355D01*
Y-27520D01*
D02*
G37*
G36*
Y19730D02*
X731375D01*
X730600D01*
X729080Y20033D01*
X727647Y20626D01*
X726358Y21487D01*
X725262Y22583D01*
X724401Y23873D01*
X723808Y25305D01*
X723505Y26825D01*
Y27600D01*
Y28376D01*
X723808Y29899D01*
X724402Y31333D01*
X725264Y32624D01*
X726362Y33721D01*
X727653Y34584D01*
X729087Y35177D01*
X730609Y35480D01*
X731385D01*
D01*
X733355D01*
Y19730D01*
D02*
G37*
G36*
Y66970D02*
X731375D01*
X730600D01*
X729080Y67273D01*
X727647Y67866D01*
X726358Y68727D01*
X725262Y69823D01*
X724401Y71113D01*
X723808Y72545D01*
X723505Y74065D01*
Y74840D01*
Y75617D01*
X723808Y77139D01*
X724402Y78573D01*
X725264Y79864D01*
X726362Y80961D01*
X727653Y81823D01*
X729087Y82418D01*
X730609Y82720D01*
X731385D01*
D01*
X733355D01*
Y66970D01*
D02*
G37*
G36*
Y114210D02*
X731375D01*
X730600D01*
X729080Y114513D01*
X727647Y115106D01*
X726358Y115967D01*
X725262Y117063D01*
X724401Y118352D01*
X723808Y119785D01*
X723505Y121305D01*
Y122080D01*
Y122856D01*
X723808Y124379D01*
X724402Y125813D01*
X725264Y127103D01*
X726362Y128201D01*
X727653Y129063D01*
X729087Y129657D01*
X730609Y129960D01*
X731385D01*
D01*
X733355D01*
Y114210D01*
D02*
G37*
G36*
Y161460D02*
X731375D01*
X730600D01*
X729080Y161763D01*
X727647Y162356D01*
X726358Y163217D01*
X725262Y164313D01*
X724401Y165603D01*
X723808Y167035D01*
X723505Y168555D01*
Y169330D01*
Y170106D01*
X723808Y171629D01*
X724402Y173063D01*
X725264Y174354D01*
X726362Y175451D01*
X727653Y176313D01*
X729087Y176908D01*
X730609Y177210D01*
X731385D01*
D01*
X733355D01*
Y161460D01*
D02*
G37*
G36*
Y208700D02*
X731375D01*
X730600D01*
X729080Y209003D01*
X727647Y209596D01*
X726358Y210457D01*
X725262Y211554D01*
X724401Y212842D01*
X723808Y214275D01*
X723505Y215795D01*
Y216570D01*
Y217347D01*
X723808Y218869D01*
X724402Y220303D01*
X725264Y221594D01*
X726362Y222691D01*
X727653Y223553D01*
X729087Y224148D01*
X730609Y224450D01*
X731385D01*
D01*
X733355D01*
Y208700D01*
D02*
G37*
G36*
Y255950D02*
X731375D01*
X730600D01*
X729080Y256253D01*
X727647Y256846D01*
X726358Y257707D01*
X725262Y258804D01*
X724401Y260092D01*
X723808Y261525D01*
X723505Y263045D01*
Y263820D01*
Y264597D01*
X723808Y266119D01*
X724402Y267553D01*
X725264Y268844D01*
X726362Y269941D01*
X727653Y270803D01*
X729087Y271397D01*
X730609Y271700D01*
X731385D01*
D01*
X733355D01*
Y255950D01*
D02*
G37*
G36*
Y303190D02*
X731375D01*
X730600D01*
X729080Y303493D01*
X727647Y304086D01*
X726358Y304947D01*
X725262Y306044D01*
X724401Y307332D01*
X723808Y308765D01*
X723505Y310285D01*
Y311060D01*
Y311837D01*
X723808Y313359D01*
X724402Y314793D01*
X725264Y316084D01*
X726362Y317181D01*
X727653Y318043D01*
X729087Y318637D01*
X730609Y318940D01*
X731385D01*
D01*
X733355D01*
Y303190D01*
D02*
G37*
G36*
Y350430D02*
X731375D01*
X730600D01*
X729080Y350733D01*
X727647Y351326D01*
X726358Y352187D01*
X725262Y353284D01*
X724401Y354573D01*
X723808Y356005D01*
X723505Y357525D01*
Y358300D01*
Y359076D01*
X723808Y360599D01*
X724402Y362033D01*
X725264Y363323D01*
X726362Y364421D01*
X727653Y365283D01*
X729087Y365878D01*
X730609Y366180D01*
X731385D01*
D01*
X733355D01*
Y350430D01*
D02*
G37*
G36*
Y397680D02*
X731375D01*
X730600D01*
X729080Y397983D01*
X727647Y398576D01*
X726358Y399437D01*
X725262Y400533D01*
X724401Y401823D01*
X723808Y403255D01*
X723505Y404775D01*
Y405550D01*
Y406326D01*
X723808Y407849D01*
X724402Y409283D01*
X725264Y410573D01*
X726362Y411671D01*
X727653Y412534D01*
X729087Y413128D01*
X730609Y413430D01*
X731385D01*
D01*
X733355D01*
Y397680D01*
D02*
G37*
G36*
Y444920D02*
X731375D01*
X730600D01*
X729080Y445223D01*
X727647Y445816D01*
X726358Y446677D01*
X725262Y447774D01*
X724401Y449062D01*
X723808Y450495D01*
X723505Y452015D01*
Y452790D01*
Y453567D01*
X723808Y455089D01*
X724402Y456523D01*
X725264Y457814D01*
X726362Y458911D01*
X727653Y459773D01*
X729087Y460367D01*
X730609Y460670D01*
X731385D01*
D01*
X733355D01*
Y444920D01*
D02*
G37*
G36*
Y492170D02*
X731375D01*
X730600D01*
X729080Y492473D01*
X727647Y493066D01*
X726358Y493927D01*
X725262Y495023D01*
X724401Y496313D01*
X723808Y497745D01*
X723505Y499265D01*
Y500040D01*
Y500816D01*
X723808Y502339D01*
X724402Y503773D01*
X725264Y505064D01*
X726362Y506161D01*
X727653Y507023D01*
X729087Y507618D01*
X730609Y507920D01*
X731385D01*
D01*
X733355D01*
Y492170D01*
D02*
G37*
G36*
Y539410D02*
X731375D01*
X730600D01*
X729080Y539713D01*
X727647Y540306D01*
X726358Y541167D01*
X725262Y542264D01*
X724401Y543552D01*
X723808Y544985D01*
X723505Y546505D01*
Y547280D01*
Y548057D01*
X723808Y549579D01*
X724402Y551013D01*
X725264Y552304D01*
X726362Y553401D01*
X727653Y554263D01*
X729087Y554857D01*
X730609Y555160D01*
X731385D01*
D01*
X733355D01*
Y539410D01*
D02*
G37*
G36*
Y586650D02*
X731375D01*
X730600D01*
X729080Y586953D01*
X727647Y587546D01*
X726358Y588407D01*
X725262Y589503D01*
X724401Y590793D01*
X723808Y592225D01*
X723505Y593745D01*
Y594520D01*
Y595296D01*
X723808Y596819D01*
X724402Y598253D01*
X725264Y599544D01*
X726362Y600641D01*
X727653Y601504D01*
X729087Y602098D01*
X730609Y602400D01*
X731385D01*
D01*
X733355D01*
Y586650D01*
D02*
G37*
G36*
Y633900D02*
X731375D01*
X730600D01*
X729080Y634203D01*
X727647Y634796D01*
X726358Y635657D01*
X725262Y636754D01*
X724401Y638042D01*
X723808Y639475D01*
X723505Y640995D01*
Y641770D01*
Y642547D01*
X723808Y644069D01*
X724402Y645503D01*
X725264Y646794D01*
X726362Y647891D01*
X727653Y648753D01*
X729087Y649347D01*
X730609Y649650D01*
X731385D01*
D01*
X733355D01*
Y633900D01*
D02*
G37*
D12*
X-309957Y-51135D02*
G03*
X-302083Y-59009I7874J0D01*
G01*
X784531D02*
G03*
X792405Y-51135I0J7874D01*
G01*
X-302083Y653589D02*
G03*
X-309957Y645715I0J-7874D01*
G01*
X792405D02*
G03*
X784531Y653589I-7874J0D01*
G01*
X-279248Y83516D02*
G03*
X-264288Y98477I0J14961D01*
G01*
Y98471D02*
G03*
X-279248Y113431I-14961J0D01*
G01*
Y272493D02*
G03*
X-264288Y287453I0J14961D01*
G01*
Y287447D02*
G03*
X-279248Y302408I-14961J0D01*
G01*
Y414225D02*
G03*
X-264288Y429185I0J14961D01*
G01*
Y429179D02*
G03*
X-279248Y444140I-14961J0D01*
G01*
Y603201D02*
G03*
X-264288Y618162I0J14961D01*
G01*
Y618156D02*
G03*
X-279248Y633116I-14961J0D01*
G01*
X761696Y491384D02*
G03*
X746736Y476424I0J-14961D01*
G01*
Y476430D02*
G03*
X761696Y461469I14961J0D01*
G01*
X746736Y98477D02*
G03*
X761696Y83516I14961J0D01*
G01*
Y113431D02*
G03*
X746736Y98471I0J-14961D01*
G01*
Y287453D02*
G03*
X761696Y272493I14961J0D01*
G01*
Y302408D02*
G03*
X746736Y287447I0J-14961D01*
G01*
X-333579Y-59009D02*
X-309957D01*
X-302083Y-59010D02*
X784531Y-59009D01*
X264846Y-70821D02*
X792405Y-70820D01*
X-309957Y-70820D02*
X217602Y-70821D01*
X-329642Y-47199D02*
X-321768Y-59009D01*
X-313894Y-47199D01*
X780594Y-62946D02*
X792405Y-70820D01*
X-309957Y-70820D02*
X-298146Y-62946D01*
X792405Y-82631D02*
Y-59009D01*
X780594Y-78694D02*
X792405Y-70820D01*
X-309957Y-70820D02*
X-298146Y-78694D01*
X792405Y-51135D02*
Y83510D01*
Y491384D02*
Y645715D01*
X-333579Y653589D02*
X-309957D01*
X-302083Y653588D02*
X784531Y653589D01*
X-321768Y653589D02*
X-313894Y641778D01*
X-329642D02*
X-321768Y653589D01*
X-309957Y83510D02*
X-279248D01*
X-309957Y113431D02*
X-279248D01*
X-309957Y272487D02*
X-279248D01*
X-309957Y302408D02*
X-279248D01*
X-309957Y414219D02*
X-279248D01*
X-309957Y444140D02*
X-279248D01*
X-309957Y603195D02*
X-279248D01*
X-309957Y633116D02*
X-279248D01*
X-309957D02*
Y645715D01*
Y444140D02*
Y603195D01*
Y302408D02*
Y414219D01*
Y113431D02*
Y272487D01*
Y-51135D02*
Y83510D01*
X792405Y302408D02*
Y461469D01*
X761696Y491384D02*
X792405D01*
X761696Y461463D02*
X792405D01*
X761696Y83510D02*
X792405D01*
X761696Y113431D02*
X792405D01*
X761696Y272487D02*
X792405D01*
X761696Y302408D02*
X792405D01*
Y113431D02*
Y272487D01*
X-321768Y311069D02*
X-321768Y653589D01*
X-321768Y-59009D02*
Y263825D01*
X-309957Y-82631D02*
Y-59009D01*
D19*
X671407Y-43860D02*
X670095Y-45172D01*
Y-47796D01*
X671407Y-49108D01*
X672719D01*
X674031Y-47796D01*
Y-45172D01*
X675343Y-43860D01*
X676654D01*
X677966Y-45172D01*
Y-47796D01*
X676654Y-49108D01*
X677966Y-37301D02*
Y-39925D01*
X676654Y-41237D01*
X674031D01*
X672719Y-39925D01*
Y-37301D01*
X674031Y-35989D01*
X675343D01*
Y-41237D01*
X672719Y-33365D02*
X677966D01*
X675343D01*
X674031Y-32053D01*
X672719Y-30741D01*
Y-29429D01*
Y-25494D02*
X677966D01*
X675343D01*
X674031Y-24182D01*
X672719Y-22870D01*
Y-21558D01*
X677966Y-13686D02*
Y-16310D01*
X676654Y-17622D01*
X674031D01*
X672719Y-16310D01*
Y-13686D01*
X674031Y-12375D01*
X675343D01*
Y-17622D01*
X670095Y-9751D02*
X675343D01*
X677966Y-7127D01*
X675343Y-4503D01*
X670095D01*
X677966Y-567D02*
Y2057D01*
X676654Y3368D01*
X674031D01*
X672719Y2057D01*
Y-567D01*
X674031Y-1879D01*
X676654D01*
X677966Y-567D01*
X671407Y19111D02*
X670095Y17799D01*
Y15176D01*
X671407Y13864D01*
X676654D01*
X677966Y15176D01*
Y17799D01*
X676654Y19111D01*
X677966Y23047D02*
Y25671D01*
X676654Y26983D01*
X674031D01*
X672719Y25671D01*
Y23047D01*
X674031Y21735D01*
X676654D01*
X677966Y23047D01*
Y29607D02*
X672719D01*
Y33542D01*
X674031Y34854D01*
X677966D01*
X671407Y38790D02*
X672719D01*
Y37478D01*
Y40102D01*
Y38790D01*
X676654D01*
X677966Y40102D01*
X672719Y44038D02*
X677966D01*
X675343D01*
X674031Y45350D01*
X672719Y46662D01*
Y47973D01*
X677966Y53221D02*
Y55845D01*
X676654Y57157D01*
X674031D01*
X672719Y55845D01*
Y53221D01*
X674031Y51909D01*
X676654D01*
X677966Y53221D01*
Y59781D02*
Y62405D01*
Y61093D01*
X670095D01*
Y59781D01*
X677966Y70276D02*
Y67652D01*
X676654Y66340D01*
X674031D01*
X672719Y67652D01*
Y70276D01*
X674031Y71588D01*
X675343D01*
Y66340D01*
X672719Y74212D02*
X676654D01*
X677966Y75524D01*
Y79459D01*
X672719D01*
Y82083D02*
X677966D01*
X675343D01*
X674031Y83395D01*
X672719Y84707D01*
Y86019D01*
X762709Y150138D02*
X754838D01*
Y154074D01*
X756149Y155385D01*
X758773D01*
X760085Y154074D01*
Y150138D01*
X756149Y163257D02*
X754838Y161945D01*
Y159321D01*
X756149Y158009D01*
X761397D01*
X762709Y159321D01*
Y161945D01*
X761397Y163257D01*
X754838Y165881D02*
X762709D01*
Y169817D01*
X761397Y171128D01*
X760085D01*
X758773Y169817D01*
Y165881D01*
Y169817D01*
X757461Y171128D01*
X756149D01*
X754838Y169817D01*
Y165881D01*
X762709Y181624D02*
X754838D01*
Y185559D01*
X756149Y186871D01*
X758773D01*
X760085Y185559D01*
Y181624D01*
Y184248D02*
X762709Y186871D01*
Y193431D02*
Y190807D01*
X761397Y189495D01*
X758773D01*
X757461Y190807D01*
Y193431D01*
X758773Y194743D01*
X760085D01*
Y189495D01*
X757461Y197367D02*
X762709Y199990D01*
X757461Y202614D01*
X762709Y205238D02*
Y207862D01*
Y206550D01*
X757461D01*
Y205238D01*
X762709Y211798D02*
Y215734D01*
X761397Y217045D01*
X760085Y215734D01*
Y213110D01*
X758773Y211798D01*
X757461Y213110D01*
Y217045D01*
X762709Y219669D02*
Y222293D01*
Y220981D01*
X757461D01*
Y219669D01*
X762709Y227541D02*
Y230165D01*
X761397Y231476D01*
X758773D01*
X757461Y230165D01*
Y227541D01*
X758773Y226229D01*
X761397D01*
X762709Y227541D01*
Y234100D02*
X757461D01*
Y238036D01*
X758773Y239348D01*
X762709D01*
X780967Y193477D02*
Y196101D01*
Y194789D01*
X773095D01*
X774407Y193477D01*
D20*
X829305Y518412D02*
X825042Y522676D01*
Y531204D01*
X829305Y535467D01*
X846360D01*
X850624Y531204D01*
Y522676D01*
X846360Y518412D01*
X829305D01*
X850624Y543995D02*
X846360D01*
Y548258D01*
X850624D01*
Y543995D01*
Y565313D02*
Y573841D01*
Y569577D01*
X825042D01*
X829305Y565313D01*
X850624Y612214D02*
X825042D01*
X833569Y620742D01*
X825042Y629269D01*
X850624D01*
Y637796D02*
X825042D01*
X833569Y646324D01*
X825042Y654851D01*
X850624D01*
X826864Y22784D02*
X822600Y18520D01*
Y9993D01*
X826864Y5729D01*
X831128D01*
X835391Y9993D01*
Y18520D01*
X839655Y22784D01*
X843919D01*
X848183Y18520D01*
Y9993D01*
X843919Y5729D01*
X822600Y31311D02*
Y48366D01*
Y39839D01*
X848183D01*
X822600Y73949D02*
Y56894D01*
X848183D01*
Y73949D01*
X835391Y56894D02*
Y65421D01*
X848183Y82476D02*
X822600D01*
X848183Y99531D01*
X822600D01*
X826864Y125113D02*
X822600Y120849D01*
Y112322D01*
X826864Y108058D01*
X843919D01*
X848183Y112322D01*
Y120849D01*
X843919Y125113D01*
X822600Y133641D02*
Y142168D01*
Y137904D01*
X848183D01*
Y133641D01*
Y142168D01*
X822600Y154959D02*
X848183D01*
Y172014D01*
X822600Y206124D02*
Y223179D01*
Y214651D01*
X848183D01*
X822600Y231706D02*
X848183D01*
X835391D01*
Y248761D01*
X822600D01*
X848183D01*
X822600Y257288D02*
Y265816D01*
Y261552D01*
X848183D01*
Y257288D01*
Y265816D01*
X826864Y295662D02*
X822600Y291398D01*
Y282871D01*
X826864Y278607D01*
X843919D01*
X848183Y282871D01*
Y291398D01*
X843919Y295662D01*
X822600Y304189D02*
X848183D01*
X839655D01*
X822600Y321244D01*
X835391Y308453D01*
X848183Y321244D01*
Y329771D02*
X822600D01*
X848183Y346826D01*
X822600D01*
Y372409D02*
Y355354D01*
X848183D01*
Y372409D01*
X835391Y355354D02*
Y363881D01*
X826864Y397991D02*
X822600Y393727D01*
Y385200D01*
X826864Y380936D01*
X831128D01*
X835391Y385200D01*
Y393727D01*
X839655Y397991D01*
X843919D01*
X848183Y393727D01*
Y385200D01*
X843919Y380936D01*
X826864Y423573D02*
X822600Y419309D01*
Y410782D01*
X826864Y406518D01*
X831128D01*
X835391Y410782D01*
Y419309D01*
X839655Y423573D01*
X843919D01*
X848183Y419309D01*
Y410782D01*
X843919Y406518D01*
X835391Y457683D02*
Y474738D01*
D21*
X756977Y549644D02*
Y560140D01*
Y554892D01*
X772720D01*
X756977Y573259D02*
Y568011D01*
X759601Y565387D01*
X770096D01*
X772720Y568011D01*
Y573259D01*
X770096Y575882D01*
X759601D01*
X756977Y573259D01*
X772720Y581130D02*
X756977D01*
Y589002D01*
X759601Y591625D01*
X764849D01*
X767473Y589002D01*
Y581130D01*
D22*
X-318831Y269256D02*
Y271589D01*
Y270423D01*
X-325829D01*
X-324662Y269256D01*
Y275088D02*
X-325829Y276254D01*
Y278587D01*
X-324662Y279753D01*
X-323496D01*
X-322330Y278587D01*
X-321164Y279753D01*
X-319997D01*
X-318831Y278587D01*
Y276254D01*
X-319997Y275088D01*
X-321164D01*
X-322330Y276254D01*
X-323496Y275088D01*
X-324662D01*
X-322330Y276254D02*
Y278587D01*
X-318831Y282086D02*
Y284418D01*
Y283252D01*
X-325829D01*
X-324662Y282086D01*
X-318831Y294915D02*
X-325829D01*
X-323496Y297248D01*
X-325829Y299580D01*
X-318831D01*
Y301913D02*
X-325829D01*
X-323496Y304245D01*
X-325829Y306578D01*
X-318831D01*
X256120Y-67883D02*
X260785D01*
X256120Y-72549D01*
Y-73715D01*
X257287Y-74881D01*
X259619D01*
X260785Y-73715D01*
X253788D02*
X252621Y-74881D01*
X250289D01*
X249123Y-73715D01*
Y-72549D01*
X250289Y-71382D01*
X249123Y-70216D01*
Y-69050D01*
X250289Y-67883D01*
X252621D01*
X253788Y-69050D01*
Y-70216D01*
X252621Y-71382D01*
X253788Y-72549D01*
Y-73715D01*
X252621Y-71382D02*
X250289D01*
X246790Y-73715D02*
X245624Y-74881D01*
X243291D01*
X242125Y-73715D01*
Y-69050D01*
X243291Y-67883D01*
X245624D01*
X246790Y-69050D01*
Y-73715D01*
X232794Y-67883D02*
Y-74881D01*
X230462Y-72549D01*
X228129Y-74881D01*
Y-67883D01*
X225797D02*
Y-74881D01*
X223464Y-72549D01*
X221131Y-74881D01*
Y-67883D01*
D23*
X40673Y264419D02*
D03*
Y281348D02*
D03*
D24*
X97701Y356985D02*
D03*
X92189D02*
D03*
X103213D02*
D03*
X92189Y351473D02*
D03*
X97701D02*
D03*
X103213D02*
D03*
X92189Y362497D02*
D03*
X97701D02*
D03*
X103213D02*
D03*
D25*
X69157Y387379D02*
D03*
Y382379D02*
D03*
Y377379D02*
D03*
Y372379D02*
D03*
Y367379D02*
D03*
Y362379D02*
D03*
Y357379D02*
D03*
Y352379D02*
D03*
Y347379D02*
D03*
Y342379D02*
D03*
Y337379D02*
D03*
Y332379D02*
D03*
Y327379D02*
D03*
Y322379D02*
D03*
X138055D02*
D03*
Y327379D02*
D03*
Y332379D02*
D03*
Y337379D02*
D03*
Y342379D02*
D03*
Y347379D02*
D03*
Y352379D02*
D03*
Y357379D02*
D03*
Y362379D02*
D03*
Y367379D02*
D03*
Y372379D02*
D03*
Y377379D02*
D03*
Y382379D02*
D03*
Y387379D02*
D03*
D26*
X76106Y317458D02*
D03*
X81106D02*
D03*
X86106D02*
D03*
X91106D02*
D03*
X96106D02*
D03*
X101106D02*
D03*
X106106D02*
D03*
X111106D02*
D03*
X116106D02*
D03*
X121106D02*
D03*
X126106D02*
D03*
X131106D02*
D03*
D27*
X473794Y355307D02*
D03*
Y360425D02*
D03*
X181531Y313914D02*
D03*
Y319032D02*
D03*
X58541Y382497D02*
D03*
Y377379D02*
D03*
X433474Y281455D02*
D03*
Y286573D02*
D03*
X439653Y281388D02*
D03*
Y286506D02*
D03*
X126114Y248105D02*
D03*
Y242986D02*
D03*
X364049Y281325D02*
D03*
Y286443D02*
D03*
X370747Y281455D02*
D03*
Y286573D02*
D03*
X292575Y281275D02*
D03*
Y286394D02*
D03*
X299317Y281275D02*
D03*
Y286394D02*
D03*
X223227Y281276D02*
D03*
Y286394D02*
D03*
X230566Y281390D02*
D03*
Y286508D02*
D03*
X427021Y281455D02*
D03*
Y286573D02*
D03*
X445815Y281455D02*
D03*
Y286573D02*
D03*
X357390Y281275D02*
D03*
Y286393D02*
D03*
X377332Y281568D02*
D03*
Y286686D02*
D03*
X285833Y281275D02*
D03*
Y286394D02*
D03*
X306060Y281275D02*
D03*
Y286394D02*
D03*
X9531Y367261D02*
D03*
Y372379D02*
D03*
X215887Y281276D02*
D03*
Y286394D02*
D03*
X237906Y281409D02*
D03*
Y286528D02*
D03*
D28*
X258441Y286273D02*
D03*
Y288832D02*
D03*
Y291391D02*
D03*
X250882D02*
D03*
Y288832D02*
D03*
Y286273D02*
D03*
X326239Y286273D02*
D03*
Y288832D02*
D03*
Y291391D02*
D03*
X318680D02*
D03*
Y288832D02*
D03*
Y286273D02*
D03*
X398083Y286190D02*
D03*
Y288749D02*
D03*
Y291308D02*
D03*
X390524D02*
D03*
Y288749D02*
D03*
Y286190D02*
D03*
X464042Y286273D02*
D03*
Y288832D02*
D03*
Y291391D02*
D03*
X456483D02*
D03*
Y288832D02*
D03*
Y286273D02*
D03*
D29*
X266878Y287212D02*
D03*
Y292527D02*
D03*
X334582Y286320D02*
D03*
Y291635D02*
D03*
X407131Y292696D02*
D03*
Y287381D02*
D03*
X59169Y349602D02*
D03*
Y354917D02*
D03*
X472898Y287298D02*
D03*
Y292613D02*
D03*
X47461Y349602D02*
D03*
Y354917D02*
D03*
X49680Y298645D02*
D03*
Y303960D02*
D03*
D30*
X183059Y371662D02*
D03*
X177941D02*
D03*
X183059Y382737D02*
D03*
X177941D02*
D03*
X31953Y214048D02*
D03*
X37071D02*
D03*
X16854Y287423D02*
D03*
X21972D02*
D03*
X34768Y311150D02*
D03*
X39886D02*
D03*
X34768Y318295D02*
D03*
X39886D02*
D03*
D31*
X171429Y371662D02*
D03*
X165524D02*
D03*
Y382737D02*
D03*
X171429D02*
D03*
D32*
X100961Y272384D02*
D03*
X108835D02*
D03*
X108836Y288423D02*
D03*
X100962D02*
D03*
D33*
X69276Y273143D02*
D03*
Y288183D02*
D03*
X90476D02*
D03*
Y273143D02*
D03*
D34*
X69276Y280663D02*
D03*
X90476D02*
D03*
D35*
X156520Y321852D02*
D03*
Y348624D02*
D03*
X172268D02*
D03*
Y321852D02*
D03*
X34400Y375883D02*
D03*
Y349111D02*
D03*
X18652D02*
D03*
Y375883D02*
D03*
D36*
X40287Y298189D02*
D03*
X33594D02*
D03*
X40673Y331698D02*
D03*
X33980D02*
D03*
D37*
X115974Y239981D02*
D03*
X112234Y247855D02*
D03*
X119714D02*
D03*
D38*
X7563Y306925D02*
D03*
Y317949D02*
D03*
D39*
X24098Y305547D02*
D03*
Y307516D02*
D03*
Y309484D02*
D03*
Y311453D02*
D03*
Y313421D02*
D03*
Y315390D02*
D03*
Y317358D02*
D03*
Y319327D02*
D03*
D40*
Y303185D02*
D03*
Y300232D02*
D03*
Y321689D02*
D03*
Y324642D02*
D03*
D41*
X58220Y318327D02*
D03*
Y316358D02*
D03*
Y314390D02*
D03*
X51881D02*
D03*
Y316358D02*
D03*
Y318327D02*
D03*
D42*
X24591Y388025D02*
D03*
X29906D02*
D03*
M02*
