G04*
G04 #@! TF.GenerationSoftware,Altium Limited,Altium Designer,22.11.1 (43)*
G04*
G04 Layer_Color=16711935*
%FSLAX25Y25*%
%MOIN*%
G70*
G04*
G04 #@! TF.SameCoordinates,3125327F-633B-4DE6-8F98-D116A0B0FB6F*
G04*
G04*
G04 #@! TF.FilePolarity,Negative*
G04*
G01*
G75*
%ADD49R,0.04337X0.03943*%
%ADD54R,0.05904X0.05904*%
%ADD55C,0.05904*%
%ADD56C,0.13195*%
%ADD57C,0.24961*%
%ADD58C,0.06337*%
%ADD59R,0.06337X0.06337*%
G04:AMPARAMS|DCode=60|XSize=33.47mil|YSize=23.62mil|CornerRadius=11.81mil|HoleSize=0mil|Usage=FLASHONLY|Rotation=270.000|XOffset=0mil|YOffset=0mil|HoleType=Round|Shape=RoundedRectangle|*
%AMROUNDEDRECTD60*
21,1,0.03347,0.00000,0,0,270.0*
21,1,0.00984,0.02362,0,0,270.0*
1,1,0.02362,0.00000,-0.00492*
1,1,0.02362,0.00000,0.00492*
1,1,0.02362,0.00000,0.00492*
1,1,0.02362,0.00000,-0.00492*
%
%ADD60ROUNDEDRECTD60*%
%ADD61C,0.02362*%
G04:AMPARAMS|DCode=62|XSize=51.18mil|YSize=102.36mil|CornerRadius=25.59mil|HoleSize=0mil|Usage=FLASHONLY|Rotation=270.000|XOffset=0mil|YOffset=0mil|HoleType=Round|Shape=RoundedRectangle|*
%AMROUNDEDRECTD62*
21,1,0.05118,0.05118,0,0,270.0*
21,1,0.00000,0.10236,0,0,270.0*
1,1,0.05118,-0.02559,0.00000*
1,1,0.05118,-0.02559,0.00000*
1,1,0.05118,0.02559,0.00000*
1,1,0.05118,0.02559,0.00000*
%
%ADD62ROUNDEDRECTD62*%
G04:AMPARAMS|DCode=63|XSize=51.18mil|YSize=90.55mil|CornerRadius=25.59mil|HoleSize=0mil|Usage=FLASHONLY|Rotation=270.000|XOffset=0mil|YOffset=0mil|HoleType=Round|Shape=RoundedRectangle|*
%AMROUNDEDRECTD63*
21,1,0.05118,0.03937,0,0,270.0*
21,1,0.00000,0.09055,0,0,270.0*
1,1,0.05118,-0.01968,0.00000*
1,1,0.05118,-0.01968,0.00000*
1,1,0.05118,0.01968,0.00000*
1,1,0.05118,0.01968,0.00000*
%
%ADD63ROUNDEDRECTD63*%
D49*
X367976Y235297D02*
D03*
Y240612D02*
D03*
X354985Y235297D02*
D03*
Y240612D02*
D03*
X297447Y234674D02*
D03*
Y239989D02*
D03*
X281621Y234288D02*
D03*
Y239603D02*
D03*
X436928Y234110D02*
D03*
Y239425D02*
D03*
X423260Y233427D02*
D03*
Y238742D02*
D03*
X213598Y235158D02*
D03*
Y240474D02*
D03*
X230829Y235118D02*
D03*
Y240433D02*
D03*
D54*
X353830Y266192D02*
D03*
X282713D02*
D03*
X424112Y266127D02*
D03*
X213204Y266531D02*
D03*
D55*
X349815Y258200D02*
D03*
X357807D02*
D03*
X365799D02*
D03*
X361823Y266192D02*
D03*
X369815D02*
D03*
X377807D02*
D03*
X373791Y258200D02*
D03*
X278697D02*
D03*
X286689D02*
D03*
X294681D02*
D03*
X290705Y266192D02*
D03*
X298697D02*
D03*
X306689D02*
D03*
X302674Y258200D02*
D03*
X420096Y258135D02*
D03*
X428088D02*
D03*
X436080D02*
D03*
X432104Y266127D02*
D03*
X440096D02*
D03*
X448088D02*
D03*
X444072Y258135D02*
D03*
X209189Y258538D02*
D03*
X217181D02*
D03*
X225173D02*
D03*
X221197Y266531D02*
D03*
X229189D02*
D03*
X237181D02*
D03*
X233165Y258538D02*
D03*
D56*
X341311Y235680D02*
D03*
X386311D02*
D03*
X270193D02*
D03*
X315193D02*
D03*
X411592Y235615D02*
D03*
X456592D02*
D03*
X200685Y236019D02*
D03*
X245685D02*
D03*
D57*
X468504Y377953D02*
D03*
X15748Y224410D02*
D03*
D58*
X166585Y264227D02*
D03*
X176428D02*
D03*
X156743D02*
D03*
X76308Y222440D02*
D03*
X86150D02*
D03*
X66465D02*
D03*
X95993D02*
D03*
X105835D02*
D03*
X115678D02*
D03*
X125520D02*
D03*
X135363D02*
D03*
X145205D02*
D03*
D59*
X146900Y264227D02*
D03*
X56623Y222440D02*
D03*
D60*
X19768Y300626D02*
D03*
D61*
Y324248D02*
D03*
D62*
X7563Y295429D02*
D03*
Y329445D02*
D03*
D63*
X22622Y295429D02*
D03*
Y329445D02*
D03*
M02*
